{
.appVersion = "983";
copyright = "Copyright © 2018 by Cadson Demak Co.,Ltd.. All rights reserved.";
customParameters = (
{
name = vendorID;
value = CDK;
},
{
name = description;
value = "Copyright (c) 2018, Cadson Demak (info@cadsondemak.com)";
},
{
name = license;

glyphs = (
{
glyphname = A;
lastChange = "2017-12-19 08:22:12 +0000";
layers = (
{
layerId = "0B1DFD06-3317-40CA-B510-4969A0718C16";
paths = (
{
closed = 1;
nodes = (
"884 733 OFFCURVE",
"857 745 OFFCURVE",
"823 745 CURVE SMOOTH",
"794 745 OFFCURVE",
"774 712 OFFCURVE",
"753 683 CURVE SMOOTH",
"738 660 OFFCURVE",
"707 655 OFFCURVE",
"687 655 CURVE SMOOTH",
"587 655 OFFCURVE",
"482 731 OFFCURVE",
"368 731 CURVE SMOOTH",
"218 731 OFFCURVE",
"156 616 OFFCURVE",
"187 487 CURVE",
"187 483 OFFCURVE",
"220 480 OFFCURVE",
"220 488 CURVE",
"205 628 OFFCURVE",
"261 679 OFFCURVE",
"356 679 CURVE SMOOTH",
"440 679 OFFCURVE",
"547 613 OFFCURVE",
"643 613 CURVE SMOOTH",
"682 613 OFFCURVE",
"725 626 OFFCURVE",
"740 631 CURVE",
"645 494 OFFCURVE",
"583 409 OFFCURVE",
"491 289 CURVE",
"464 290 OFFCURVE",
"434 293 OFFCURVE",
"419 301 CURVE",
"414 301 OFFCURVE",
"402 262 OFFCURVE",
"402 255 CURVE",
"403 248 OFFCURVE",
"422 244 OFFCURVE",
"459 244 CURVE",
"342 98 OFFCURVE",
"267 36 OFFCURVE",
"138 36 CURVE SMOOTH",
"36 36 OFFCURVE",
"-2 111 OFFCURVE",
"-6 195 CURVE",
"-10 240 OFFCURVE",
"10 306 OFFCURVE",
"35 338 CURVE",
"30 342 OFFCURVE",
"7 350 OFFCURVE",
"4 349 CURVE",
"-35 309 OFFCURVE",
"-67 248 OFFCURVE",
"-63 181 CURVE SMOOTH",
"-60 81 OFFCURVE",
"11 -15 OFFCURVE",
"143 -15 CURVE SMOOTH",
"318 -15 OFFCURVE",
"397 80 OFFCURVE",
"512 244 CURVE",
"584 244 OFFCURVE",
"668 246 OFFCURVE",
"690 246 CURVE SMOOTH",
"708 246 OFFCURVE",
"726 226 OFFCURVE",
"726 212 CURVE",
"731 137 OFFCURVE",
"734 95 OFFCURVE",
"744 57 CURVE SMOOTH",
"753 20 OFFCURVE",
"789 -6 OFFCURVE",
"819 -6 CURVE SMOOTH",
"859 -6 OFFCURVE",
"919 40 OFFCURVE",
"941 69 CURVE",
"945 73 OFFCURVE",
"937 100 OFFCURVE",
"932 100 CURVE",
"916 84 OFFCURVE",
"869 52 OFFCURVE",
"848 52 CURVE SMOOTH",
"828 52 OFFCURVE",
"798 76 OFFCURVE",
"789 118 CURVE SMOOTH",
"766 213 OFFCURVE",
"763 402 OFFCURVE",
"782 607 CURVE SMOOTH",
"785 655 OFFCURVE",
"787 689 OFFCURVE",
"819 689 CURVE SMOOTH",
"828 689 OFFCURVE",
"854 679 OFFCURVE",
"864 670 CURVE",
"872 688 OFFCURVE",
"890 707 OFFCURVE",
"889 715 CURVE"
);
},
{
closed = 1;
nodes = (
"728 450 OFFCURVE",
"727 362 OFFCURVE",
"724 286 CURVE",
"710 286 OFFCURVE",
"606 282 OFFCURVE",
"541 286 CURVE",
"605 368 OFFCURVE",
"660 457 OFFCURVE",
"737 562 CURVE",
"745 570 OFFCURVE",
"746 563 OFFCURVE",
"746 558 CURVE"
);
}
);
width = 964;
}
);
note = A;
unicode = 0041;
},
{
glyphname = B;
lastChange = "2017-12-19 08:22:12 +0000";
layers = (
{
layerId = "0B1DFD06-3317-40CA-B510-4969A0718C16";
paths = (
{
closed = 1;
nodes = (
"148 -6 LINE",
"167 19 OFFCURVE",
"182 44 OFFCURVE",
"200 44 CURVE SMOOTH",
"227 44 OFFCURVE",
"278 -17 OFFCURVE",
"415 -17 CURVE SMOOTH",
"613 -17 OFFCURVE",
"713 101 OFFCURVE",
"707 212 CURVE SMOOTH",
"703 318 OFFCURVE",
"631 359 OFFCURVE",
"562 365 CURVE",
"559 365 OFFCURVE",
"558 367 OFFCURVE",
"558 369 CURVE SMOOTH",
"558 370 OFFCURVE",
"559 371 OFFCURVE",
"562 372 CURVE",
"676 407 OFFCURVE",
"699 500 OFFCURVE",
"695 563 CURVE SMOOTH",
"691 697 OFFCURVE",
"576 715 OFFCURVE",
"381 715 CURVE SMOOTH",
"292 715 OFFCURVE",
"251 710 OFFCURVE",
"184 710 CURVE SMOOTH",
"130 710 OFFCURVE",
"126 713 OFFCURVE",
"117 719 CURVE",
"113 722 OFFCURVE",
"112 724 OFFCURVE",
"111 724 CURVE",
"107 715 OFFCURVE",
"104 683 OFFCURVE",
"107 670 CURVE",
"109 659 OFFCURVE",
"119 655 OFFCURVE",
"136 655 CURVE SMOOTH",
"170 655 OFFCURVE",
"261 675 OFFCURVE",
"318 675 CURVE SMOOTH",
"324 675 OFFCURVE",
"327 674 OFFCURVE",
"328 670 CURVE SMOOTH",
"330 666 OFFCURVE",
"330 664 OFFCURVE",
"328 662 CURVE",
"262 450 OFFCURVE",
"219 307 OFFCURVE",
"152 88 CURVE SMOOTH",
"150 80 OFFCURVE",
"124 32 OFFCURVE",
"101 4 CURVE"
);
},
{
closed = 1;
nodes = (
"278 301 OFFCURVE",
"314 441 OFFCURVE",
"356 564 CURVE",
"371 616 OFFCURVE",
"390 674 OFFCURVE",
"453 674 CURVE SMOOTH",
"549 674 OFFCURVE",
"625 652 OFFCURVE",
"628 560 CURVE SMOOTH",
"632 478 OFFCURVE",
"577 414 OFFCURVE",
"515 399 CURVE",
"496 393 OFFCURVE",
"470 389 OFFCURVE",
"451 389 CURVE SMOOTH",
"427 389 OFFCURVE",
"406 395 OFFCURVE",
"383 395 CURVE SMOOTH",
"370 395 OFFCURVE",
"369 376 OFFCURVE",
"370 365 CURVE",
"370 352 OFFCURVE",
"377 334 OFFCURVE",
"382 333 CURVE",
"420 333 OFFCURVE",
"450 338 OFFCURVE",
"480 338 CURVE SMOOTH",
"583 338 OFFCURVE",
"637 290 OFFCURVE",
"640 225 CURVE SMOOTH",
"646 98 OFFCURVE",
"530 26 OFFCURVE",
"401 26 CURVE SMOOTH",
"312 26 OFFCURVE",
"236 86 OFFCURVE",
"228 112 CURVE",
"227 120 OFFCURVE",
"228 130 OFFCURVE",
"232 140 CURVE"
);
}
);
width = 806;
}
);
note = B;
unicode = 0042;
},
{
glyphname = C;
lastChange = "2017-12-19 08:22:12 +0000";
layers = (
{
layerId = "0B1DFD06-3317-40CA-B510-4969A0718C16";
paths = (
{
closed = 1;
nodes = (
"781 509 LINE",
"782 532 OFFCURVE",
"785 556 OFFCURVE",
"790 583 CURVE",
"798 610 OFFCURVE",
"802 630 OFFCURVE",
"807 643 CURVE",
"803 652 OFFCURVE",
"796 658 OFFCURVE",
"788 662 CURVE",
"712 703 OFFCURVE",
"622 716 OFFCURVE",
"546 716 CURVE SMOOTH",
"305 716 OFFCURVE",
"115 491 OFFCURVE",
"125 246 CURVE SMOOTH",
"131 69 OFFCURVE",
"263 -17 OFFCURVE",
"414 -17 CURVE SMOOTH",
"608 -17 OFFCURVE",
"754 74 OFFCURVE",
"822 221 CURVE",
"825 231 OFFCURVE",
"826 242 OFFCURVE",
"826 252 CURVE SMOOTH",
"826 267 OFFCURVE",
"814 292 OFFCURVE",
"806 292 CURVE SMOOTH",
"802 292 OFFCURVE",
"798 292 OFFCURVE",
"797 287 CURVE",
"706 106 OFFCURVE",
"585 33 OFFCURVE",
"415 33 CURVE SMOOTH",
"306 33 OFFCURVE",
"199 114 OFFCURVE",
"193 250 CURVE SMOOTH",
"187 461 OFFCURVE",
"368 676 OFFCURVE",
"539 676 CURVE SMOOTH",
"689 676 OFFCURVE",
"737 626 OFFCURVE",
"750 559 CURVE",
"756 541 OFFCURVE",
"756 518 OFFCURVE",
"756 505 CURVE"
);
}
);
width = 829;
}
);
note = C;
unicode = 0043;
},
{
glyphname = D;
lastChange = "2017-12-19 08:22:12 +0000";
layers = (
{
layerId = "0B1DFD06-3317-40CA-B510-4969A0718C16";
paths = (
{
closed = 1;
nodes = (
"409 670 OFFCURVE",
"425 670 OFFCURVE",
"450 670 CURVE SMOOTH",
"725 670 OFFCURVE",
"789 574 OFFCURVE",
"793 413 CURVE SMOOTH",
"802 188 OFFCURVE",
"621 30 OFFCURVE",
"414 30 CURVE SMOOTH",
"347 30 OFFCURVE",
"286 45 OFFCURVE",
"242 82 CURVE",
"227 93 OFFCURVE",
"224 107 OFFCURVE",
"230 124 CURVE",
"277 286 OFFCURVE",
"340 478 OFFCURVE",
"401 651 CURVE"
);
},
{
closed = 1;
nodes = (
"137 -5 LINE",
"161 20 OFFCURVE",
"170 36 OFFCURVE",
"188 36 CURVE SMOOTH",
"223 36 OFFCURVE",
"287 -13 OFFCURVE",
"417 -13 CURVE SMOOTH",
"669 -13 OFFCURVE",
"870 144 OFFCURVE",
"860 422 CURVE SMOOTH",
"851 659 OFFCURVE",
"663 707 OFFCURVE",
"470 707 CURVE SMOOTH",
"365 707 OFFCURVE",
"290 694 OFFCURVE",
"169 694 CURVE SMOOTH",
"139 694 OFFCURVE",
"101 713 OFFCURVE",
"98 713 CURVE SMOOTH",
"87 713 OFFCURVE",
"101 644 OFFCURVE",
"120 644 CURVE SMOOTH",
"188 645 OFFCURVE",
"249 665 OFFCURVE",
"317 665 CURVE SMOOTH",
"321 665 OFFCURVE",
"330 663 OFFCURVE",
"331 657 CURVE",
"312 558 OFFCURVE",
"174 161 OFFCURVE",
"154 96 CURVE",
"144 74 OFFCURVE",
"111 33 OFFCURVE",
"92 5 CURVE"
);
}
);
width = 921;
}
);
note = D;
unicode = 0044;
},
{
glyphname = E;
lastChange = "2017-12-19 08:22:12 +0000";
layers = (
{
layerId = "0B1DFD06-3317-40CA-B510-4969A0718C16";
paths = (
{
closed = 1;
nodes = (
"658 58 OFFCURVE",
"428 32 OFFCURVE",
"309 32 CURVE SMOOTH",
"243 32 OFFCURVE",
"203 37 OFFCURVE",
"202 86 CURVE SMOOTH",
"199 171 OFFCURVE",
"236 258 OFFCURVE",
"268 339 CURVE SMOOTH",
"270 345 OFFCURVE",
"275 349 OFFCURVE",
"283 349 CURVE",
"331 352 OFFCURVE",
"545 349 OFFCURVE",
"609 349 CURVE SMOOTH",
"618 349 OFFCURVE",
"621 351 OFFCURVE",
"622 355 CURVE",
"622 365 OFFCURVE",
"634 399 OFFCURVE",
"638 408 CURVE",
"632 413 LINE",
"556 390 OFFCURVE",
"395 388 OFFCURVE",
"303 394 CURVE",
"293 394 OFFCURVE",
"288 399 OFFCURVE",
"290 408 CURVE",
"322 501 OFFCURVE",
"338 569 OFFCURVE",
"382 645 CURVE",
"388 658 OFFCURVE",
"396 662 OFFCURVE",
"414 662 CURVE SMOOTH",
"491 662 OFFCURVE",
"577 657 OFFCURVE",
"649 647 CURVE",
"656 644 OFFCURVE",
"662 635 OFFCURVE",
"668 620 CURVE",
"674 619 LINE",
"679 641 OFFCURVE",
"696 693 OFFCURVE",
"700 703 CURVE",
"699 709 OFFCURVE",
"695 713 OFFCURVE",
"689 713 CURVE SMOOTH",
"589 713 OFFCURVE",
"387 702 OFFCURVE",
"343 702 CURVE SMOOTH",
"276 702 OFFCURVE",
"199 704 OFFCURVE",
"132 709 CURVE",
"125 702 OFFCURVE",
"115 664 OFFCURVE",
"119 645 CURVE",
"123 644 LINE",
"164 657 OFFCURVE",
"232 660 OFFCURVE",
"298 660 CURVE SMOOTH",
"303 660 OFFCURVE",
"307 658 OFFCURVE",
"308 655 CURVE SMOOTH",
"314 637 OFFCURVE",
"257 463 OFFCURVE",
"248 434 CURVE SMOOTH",
"234 395 OFFCURVE",
"232 401 OFFCURVE",
"200 395 CURVE",
"187 392 OFFCURVE",
"177 370 OFFCURVE",
"177 362 CURVE SMOOTH",
"177 358 OFFCURVE",
"181 356 OFFCURVE",
"187 356 CURVE SMOOTH",
"212 356 OFFCURVE",
"217 353 OFFCURVE",
"215 349 CURVE",
"199 300 OFFCURVE",
"129 107 OFFCURVE",
"132 63 CURVE",
"132 20 OFFCURVE",
"164 -13 OFFCURVE",
"336 -13 CURVE SMOOTH",
"444 -13 OFFCURVE",
"588 6 OFFCURVE",
"689 31 CURVE",
"709 37 OFFCURVE",
"724 46 OFFCURVE",
"729 60 CURVE",
"733 71 OFFCURVE",
"740 117 OFFCURVE",
"752 129 CURVE",
"750 136 OFFCURVE",
"747 138 OFFCURVE",
"744 134 CURVE"
);
}
);
width = 732;
}
);
note = E;
unicode = 0045;
},
{
glyphname = F;
lastChange = "2017-12-19 08:22:12 +0000";
layers = (
{
layerId = "0B1DFD06-3317-40CA-B510-4969A0718C16";
paths = (
{
closed = 1;
nodes = (
"601 386 LINE",
"543 368 OFFCURVE",
"469 361 OFFCURVE",
"393 361 CURVE SMOOTH",
"294 361 OFFCURVE",
"277 374 OFFCURVE",
"281 387 CURVE",
"302 452 OFFCURVE",
"346 584 OFFCURVE",
"369 641 CURVE SMOOTH",
"374 655 OFFCURVE",
"378 660 OFFCURVE",
"396 662 CURVE SMOOTH",
"461 668 OFFCURVE",
"581 666 OFFCURVE",
"653 670 CURVE",
"662 670 OFFCURVE",
"666 676 OFFCURVE",
"669 687 CURVE",
"672 700 OFFCURVE",
"678 731 OFFCURVE",
"687 741 CURVE",
"687 745 OFFCURVE",
"684 747 OFFCURVE",
"678 747 CURVE SMOOTH",
"677 747 OFFCURVE",
"676 746 OFFCURVE",
"672 745 CURVE",
"600 710 OFFCURVE",
"386 697 OFFCURVE",
"228 707 CURVE",
"224 707 OFFCURVE",
"212 677 OFFCURVE",
"212 671 CURVE SMOOTH",
"212 668 OFFCURVE",
"215 666 OFFCURVE",
"224 666 CURVE SMOOTH",
"242 666 OFFCURVE",
"274 665 OFFCURVE",
"288 664 CURVE",
"298 663 OFFCURVE",
"308 651 OFFCURVE",
"305 640 CURVE SMOOTH",
"253 497 OFFCURVE",
"173 242 OFFCURVE",
"96 44 CURVE SMOOTH",
"88 21 OFFCURVE",
"104 -6 OFFCURVE",
"132 -10 CURVE SMOOTH",
"164 -13 OFFCURVE",
"202 -15 OFFCURVE",
"249 -6 CURVE",
"263 -4 OFFCURVE",
"258 27 OFFCURVE",
"243 27 CURVE SMOOTH",
"167 27 OFFCURVE",
"162 37 OFFCURVE",
"171 71 CURVE SMOOTH",
"186 118 OFFCURVE",
"221 206 OFFCURVE",
"256 306 CURVE",
"258 314 OFFCURVE",
"264 319 OFFCURVE",
"275 319 CURVE",
"355 309 OFFCURVE",
"555 318 OFFCURVE",
"587 318 CURVE",
"596 324 OFFCURVE",
"605 378 OFFCURVE",
"605 382 CURVE"
);
}
);
width = 563;
}
);
note = F;
unicode = 0046;
},
{
glyphname = G;
lastChange = "2017-12-19 08:22:12 +0000";
layers = (
{
layerId = "0B1DFD06-3317-40CA-B510-4969A0718C16";
paths = (
{
closed = 1;
nodes = (
"268 -408 LINE",
"309 -421 OFFCURVE",
"336 -424 OFFCURVE",
"365 -424 CURVE SMOOTH",
"549 -424 OFFCURVE",
"625 -305 OFFCURVE",
"657 -246 CURVE SMOOTH",
"716 -143 OFFCURVE",
"806 121 OFFCURVE",
"850 280 CURVE SMOOTH",
"858 309 OFFCURVE",
"869 317 OFFCURVE",
"902 326 CURVE",
"906 332 OFFCURVE",
"903 358 OFFCURVE",
"900 362 CURVE",
"831 339 OFFCURVE",
"701 337 OFFCURVE",
"615 337 CURVE",
"615 296 LINE",
"676 300 OFFCURVE",
"727 306 OFFCURVE",
"762 306 CURVE SMOOTH",
"784 306 OFFCURVE",
"785 298 OFFCURVE",
"781 274 CURVE",
"776 221 OFFCURVE",
"607 24 OFFCURVE",
"415 24 CURVE SMOOTH",
"287 24 OFFCURVE",
"208 92 OFFCURVE",
"205 201 CURVE SMOOTH",
"195 413 OFFCURVE",
"392 662 OFFCURVE",
"606 662 CURVE SMOOTH",
"722 662 OFFCURVE",
"810 633 OFFCURVE",
"820 555 CURVE",
"823 539 OFFCURVE",
"821 527 OFFCURVE",
"821 514 CURVE",
"822 513 OFFCURVE",
"825 513 OFFCURVE",
"827 512 CURVE",
"832 511 OFFCURVE",
"835 509 OFFCURVE",
"839 509 CURVE SMOOTH",
"845 509 OFFCURVE",
"850 511 OFFCURVE",
"853 512 CURVE",
"854 513 OFFCURVE",
"856 513 OFFCURVE",
"857 513 CURVE",
"865 552 OFFCURVE",
"873 610 OFFCURVE",
"875 649 CURVE",
"820 694 OFFCURVE",
"716 713 OFFCURVE",
"643 713 CURVE SMOOTH",
"322 713 OFFCURVE",
"129 434 OFFCURVE",
"134 209 CURVE SMOOTH",
"140 67 OFFCURVE",
"243 -21 OFFCURVE",
"420 -21 CURVE SMOOTH",
"589 -18 OFFCURVE",
"701 96 OFFCURVE",
"733 132 CURVE",
"737 138 OFFCURVE",
"740 137 OFFCURVE",
"743 129 CURVE",
"694 -26 OFFCURVE",
"584 -392 OFFCURVE",
"363 -392 CURVE SMOOTH",
"333 -392 OFFCURVE",
"296 -386 OFFCURVE",
"269 -372 CURVE",
"265 -378 OFFCURVE",
"264 -386 OFFCURVE",
"265 -394 CURVE SMOOTH"
);
}
);
width = 915;
}
);
note = G;
unicode = 0047;
},
{
glyphname = H;
lastChange = "2017-12-19 08:22:12 +0000";
layers = (
{
layerId = "0B1DFD06-3317-40CA-B510-4969A0718C16";
paths = (
{
closed = 1;
nodes = (
"101 -7 LINE",
"139 12 OFFCURVE",
"131 7 OFFCURVE",
"173 7 CURVE SMOOTH",
"190 7 OFFCURVE",
"190 11 OFFCURVE",
"190 24 CURVE",
"208 123 OFFCURVE",
"252 221 OFFCURVE",
"292 303 CURVE",
"298 318 OFFCURVE",
"301 325 OFFCURVE",
"314 328 CURVE",
"388 342 OFFCURVE",
"520 340 OFFCURVE",
"621 340 CURVE SMOOTH",
"651 340 OFFCURVE",
"695 333 OFFCURVE",
"701 301 CURVE",
"703 293 OFFCURVE",
"703 284 OFFCURVE",
"700 274 CURVE",
"687 225 OFFCURVE",
"668 132 OFFCURVE",
"668 74 CURVE SMOOTH",
"669 35 OFFCURVE",
"690 -6 OFFCURVE",
"737 -6 CURVE",
"834 -2 OFFCURVE",
"879 26 OFFCURVE",
"916 45 CURVE",
"922 55 OFFCURVE",
"921 81 OFFCURVE",
"912 81 CURVE",
"889 64 OFFCURVE",
"831 46 OFFCURVE",
"800 46 CURVE SMOOTH",
"757 46 OFFCURVE",
"741 56 OFFCURVE",
"733 98 CURVE",
"727 145 OFFCURVE",
"728 230 OFFCURVE",
"774 389 CURVE SMOOTH",
"812 509 OFFCURVE",
"839 635 OFFCURVE",
"925 728 CURVE",
"960 764 OFFCURVE",
"1016 774 OFFCURVE",
"1035 774 CURVE SMOOTH",
"1040 774 OFFCURVE",
"1045 781 OFFCURVE",
"1044 790 CURVE",
"1044 803 OFFCURVE",
"1032 809 OFFCURVE",
"1027 809 CURVE SMOOTH",
"988 809 OFFCURVE",
"885 762 OFFCURVE",
"843 735 CURVE SMOOTH",
"834 731 OFFCURVE",
"828 725 OFFCURVE",
"826 719 CURVE",
"797 628 OFFCURVE",
"768 532 OFFCURVE",
"721 412 CURVE",
"719 401 OFFCURVE",
"713 395 OFFCURVE",
"702 393 CURVE SMOOTH",
"651 380 OFFCURVE",
"486 380 OFFCURVE",
"449 380 CURVE SMOOTH",
"414 380 OFFCURVE",
"375 378 OFFCURVE",
"326 382 CURVE",
"320 383 OFFCURVE",
"318 389 OFFCURVE",
"320 400 CURVE",
"336 458 OFFCURVE",
"353 524 OFFCURVE",
"371 581 CURVE SMOOTH",
"384 627 OFFCURVE",
"397 658 OFFCURVE",
"415 688 CURVE",
"421 702 OFFCURVE",
"419 709 OFFCURVE",
"407 709 CURVE",
"339 700 OFFCURVE",
"251 696 OFFCURVE",
"201 696 CURVE SMOOTH",
"193 696 OFFCURVE",
"188 682 OFFCURVE",
"192 676 CURVE",
"193 670 OFFCURVE",
"196 656 OFFCURVE",
"202 656 CURVE",
"225 659 OFFCURVE",
"261 659 OFFCURVE",
"283 659 CURVE SMOOTH",
"313 659 OFFCURVE",
"314 658 OFFCURVE",
"320 631 CURVE SMOOTH",
"326 599 OFFCURVE",
"282 427 OFFCURVE",
"264 394 CURVE SMOOTH",
"259 386 OFFCURVE",
"253 381 OFFCURVE",
"246 381 CURVE SMOOTH",
"214 381 LINE SMOOTH",
"205 381 OFFCURVE",
"200 370 OFFCURVE",
"200 365 CURVE",
"206 356 OFFCURVE",
"221 338 OFFCURVE",
"239 319 CURVE",
"144 81 OFFCURVE",
"112 37 OFFCURVE",
"96 -5 CURVE"
);
}
);
width = 919;
}
);
note = H;
unicode = 0048;
},
{
glyphname = I;
lastChange = "2017-12-19 08:22:12 +0000";
layers = (
{
layerId = "0B1DFD06-3317-40CA-B510-4969A0718C16";
paths = (
{
closed = 1;
nodes = (
"61 -4 LINE",
"108 -7 OFFCURVE",
"139 -14 OFFCURVE",
"164 40 CURVE SMOOTH",
"256 225 OFFCURVE",
"326 484 OFFCURVE",
"390 647 CURVE SMOOTH",
"396 662 OFFCURVE",
"426 670 OFFCURVE",
"426 674 CURVE",
"427 682 OFFCURVE",
"426 701 OFFCURVE",
"418 704 CURVE",
"362 695 OFFCURVE",
"282 696 OFFCURVE",
"193 691 CURVE",
"189 685 OFFCURVE",
"180 660 OFFCURVE",
"183 645 CURVE",
"208 650 OFFCURVE",
"243 652 OFFCURVE",
"270 652 CURVE SMOOTH",
"312 652 OFFCURVE",
"322 646 OFFCURVE",
"318 616 CURVE",
"303 489 OFFCURVE",
"150 131 OFFCURVE",
"94 32 CURVE",
"84 18 OFFCURVE",
"70 10 OFFCURVE",
"52 8 CURVE"
);
}
);
width = 394;
}
);
note = I;
unicode = 0049;
},
{
glyphname = J;
lastChange = "2017-12-19 08:22:12 +0000";
layers = (
{
layerId = "0B1DFD06-3317-40CA-B510-4969A0718C16";
paths = (
{
closed = 1;
nodes = (
"369 715 OFFCURVE",
"289 693 OFFCURVE",
"228 677 CURVE SMOOTH",
"152 658 OFFCURVE",
"121 616 OFFCURVE",
"125 556 CURVE",
"125 518 OFFCURVE",
"151 472 OFFCURVE",
"167 466 CURVE",
"170 466 OFFCURVE",
"190 478 OFFCURVE",
"189 482 CURVE",
"181 495 OFFCURVE",
"175 524 OFFCURVE",
"175 538 CURVE",
"174 571 OFFCURVE",
"183 599 OFFCURVE",
"207 614 CURVE SMOOTH",
"270 652 OFFCURVE",
"397 668 OFFCURVE",
"487 668 CURVE SMOOTH",
"497 668 OFFCURVE",
"502 662 OFFCURVE",
"499 651 CURVE",
"441 403 OFFCURVE",
"307 -129 OFFCURVE",
"0 -129 CURVE SMOOTH",
"-102 -129 OFFCURVE",
"-140 -84 OFFCURVE",
"-163 -27 CURVE",
"-184 -31 LINE",
"-170 -114 LINE",
"-169 -129 OFFCURVE",
"-158 -139 OFFCURVE",
"-149 -144 CURVE",
"-112 -157 OFFCURVE",
"-71 -168 OFFCURVE",
"-23 -168 CURVE SMOOTH",
"359 -168 OFFCURVE",
"449 289 OFFCURVE",
"534 574 CURVE SMOOTH",
"547 615 OFFCURVE",
"555 635 OFFCURVE",
"565 659 CURVE",
"574 675 OFFCURVE",
"585 681 OFFCURVE",
"603 681 CURVE SMOOTH",
"632 681 OFFCURVE",
"635 679 OFFCURVE",
"644 679 CURVE SMOOTH",
"652 679 OFFCURVE",
"649 715 OFFCURVE",
"639 715 CURVE SMOOTH"
);
}
);
width = 555;
}
);
note = J;
unicode = 004A;
},
{
glyphname = K;
lastChange = "2017-12-19 08:22:12 +0000";
layers = (
{
layerId = "0B1DFD06-3317-40CA-B510-4969A0718C16";
paths = (
{
closed = 1;
nodes = (
"133 -2 OFFCURVE",
"139 0 OFFCURVE",
"169 0 CURVE SMOOTH",
"209 0 OFFCURVE",
"196 -5 OFFCURVE",
"206 38 CURVE",
"234 125 OFFCURVE",
"253 198 OFFCURVE",
"295 302 CURVE",
"300 317 OFFCURVE",
"306 312 OFFCURVE",
"311 306 CURVE",
"495 -5 OFFCURVE",
"877 -194 OFFCURVE",
"1150 -194 CURVE SMOOTH",
"1253 -194 OFFCURVE",
"1347 -168 OFFCURVE",
"1401 -129 CURVE",
"1404 -125 OFFCURVE",
"1403 -98 OFFCURVE",
"1403 -88 CURVE SMOOTH",
"1403 -84 OFFCURVE",
"1392 -80 OFFCURVE",
"1384 -86 CURVE",
"1340 -120 OFFCURVE",
"1259 -144 OFFCURVE",
"1172 -144 CURVE SMOOTH",
"864 -144 OFFCURVE",
"512 69 OFFCURVE",
"368 340 CURVE SMOOTH",
"367 343 OFFCURVE",
"368 346 OFFCURVE",
"372 350 CURVE",
"462 425 OFFCURVE",
"854 699 OFFCURVE",
"872 687 CURVE",
"873 690 OFFCURVE",
"875 693 OFFCURVE",
"873 695 CURVE",
"858 700 OFFCURVE",
"831 714 OFFCURVE",
"818 720 CURVE",
"812 720 LINE",
"625 602 OFFCURVE",
"506 484 OFFCURVE",
"327 370 CURVE SMOOTH",
"321 367 OFFCURVE",
"312 372 OFFCURVE",
"315 381 CURVE",
"365 513 OFFCURVE",
"381 568 OFFCURVE",
"419 655 CURVE",
"424 663 OFFCURVE",
"430 668 OFFCURVE",
"437 668 CURVE",
"455 671 OFFCURVE",
"484 670 OFFCURVE",
"497 670 CURVE",
"500 675 OFFCURVE",
"513 704 OFFCURVE",
"506 712 CURVE",
"396 702 OFFCURVE",
"298 691 OFFCURVE",
"190 710 CURVE",
"180 713 OFFCURVE",
"174 719 OFFCURVE",
"173 728 CURVE",
"157 728 OFFCURVE",
"143 684 OFFCURVE",
"143 665 CURVE SMOOTH",
"143 658 OFFCURVE",
"150 655 OFFCURVE",
"163 655 CURVE SMOOTH",
"211 655 OFFCURVE",
"274 664 OFFCURVE",
"334 664 CURVE SMOOTH",
"343 664 OFFCURVE",
"347 657 OFFCURVE",
"344 651 CURVE",
"283 436 OFFCURVE",
"213 190 OFFCURVE",
"109 -5 CURVE",
"109 -10 OFFCURVE",
"113 -12 OFFCURVE",
"119 -12 CURVE"
);
}
);
width = 807;
}
);
note = K;
unicode = 004B;
},
{
glyphname = L;
lastChange = "2017-12-19 08:22:12 +0000";
layers = (
{
layerId = "0B1DFD06-3317-40CA-B510-4969A0718C16";
paths = (
{
closed = 1;
nodes = (
"552 682 OFFCURVE",
"552 720 OFFCURVE",
"539 724 CURVE",
"483 724 OFFCURVE",
"427 715 OFFCURVE",
"386 697 CURVE",
"376 694 OFFCURVE",
"364 688 OFFCURVE",
"361 675 CURVE",
"299 508 OFFCURVE",
"258 37 OFFCURVE",
"25 37 CURVE SMOOTH",
"17 37 OFFCURVE",
"14 33 OFFCURVE",
"15 27 CURVE",
"18 19 OFFCURVE",
"27 -13 OFFCURVE",
"37 -13 CURVE",
"161 20 OFFCURVE",
"506 44 OFFCURVE",
"640 -4 CURVE",
"653 -7 OFFCURVE",
"656 -24 OFFCURVE",
"656 -33 CURVE",
"660 -37 OFFCURVE",
"665 -38 OFFCURVE",
"669 -38 CURVE",
"676 -20 OFFCURVE",
"672 42 OFFCURVE",
"672 51 CURVE",
"669 64 OFFCURVE",
"659 71 OFFCURVE",
"641 74 CURVE",
"526 96 OFFCURVE",
"293 55 OFFCURVE",
"186 55 CURVE SMOOTH",
"177 55 OFFCURVE",
"179 62 OFFCURVE",
"182 65 CURVE",
"264 113 OFFCURVE",
"376 522 OFFCURVE",
"406 625 CURVE SMOOTH",
"414 657 OFFCURVE",
"455 685 OFFCURVE",
"494 685 CURVE SMOOTH",
"519 685 OFFCURVE",
"533 683 OFFCURVE",
"547 679 CURVE"
);
}
);
width = 707;
}
);
note = L;
unicode = 004C;
},
{
glyphname = M;
lastChange = "2017-12-19 08:22:12 +0000";
layers = (
{
layerId = "0B1DFD06-3317-40CA-B510-4969A0718C16";
paths = (
{
closed = 1;
nodes = (
"608 164 OFFCURVE",
"591 282 OFFCURVE",
"588 326 CURVE",
"655 437 OFFCURVE",
"712 543 OFFCURVE",
"706 668 CURVE SMOOTH",
"704 701 OFFCURVE",
"679 741 OFFCURVE",
"641 741 CURVE SMOOTH",
"632 741 OFFCURVE",
"585 724 OFFCURVE",
"555 662 CURVE SMOOTH",
"513 581 OFFCURVE",
"521 487 OFFCURVE",
"540 337 CURVE",
"480 238 OFFCURVE",
"308 46 OFFCURVE",
"167 46 CURVE SMOOTH",
"61 46 OFFCURVE",
"12 108 OFFCURVE",
"8 205 CURVE SMOOTH",
"7 244 OFFCURVE",
"21 288 OFFCURVE",
"54 327 CURVE",
"56 336 OFFCURVE",
"27 350 OFFCURVE",
"25 344 CURVE",
"-19 305 OFFCURVE",
"-43 243 OFFCURVE",
"-39 182 CURVE SMOOTH",
"-36 64 OFFCURVE",
"49 -7 OFFCURVE",
"137 -7 CURVE SMOOTH",
"302 -7 OFFCURVE",
"450 129 OFFCURVE",
"546 275 CURVE",
"560 183 OFFCURVE",
"568 119 OFFCURVE",
"568 62 CURVE SMOOTH",
"568 13 OFFCURVE",
"555 14 OFFCURVE",
"555 8 CURVE",
"556 5 OFFCURVE",
"571 -4 OFFCURVE",
"572 0 CURVE",
"585 18 OFFCURVE",
"603 17 OFFCURVE",
"621 20 CURVE",
"632 24 OFFCURVE",
"622 32 OFFCURVE",
"624 45 CURVE",
"627 60 OFFCURVE",
"640 81 OFFCURVE",
"650 95 CURVE",
"716 206 OFFCURVE",
"835 367 OFFCURVE",
"917 462 CURVE",
"923 470 OFFCURVE",
"932 462 OFFCURVE",
"927 452 CURVE",
"881 328 OFFCURVE",
"868 234 OFFCURVE",
"869 173 CURVE SMOOTH",
"872 70 OFFCURVE",
"915 -31 OFFCURVE",
"1012 -31 CURVE SMOOTH",
"1113 -31 OFFCURVE",
"1182 68 OFFCURVE",
"1195 113 CURVE",
"1195 119 OFFCURVE",
"1171 146 OFFCURVE",
"1169 144 CURVE",
"1144 79 OFFCURVE",
"1083 18 OFFCURVE",
"1026 18 CURVE SMOOTH",
"952 18 OFFCURVE",
"928 100 OFFCURVE",
"925 171 CURVE SMOOTH",
"920 364 OFFCURVE",
"1009 702 OFFCURVE",
"1132 702 CURVE SMOOTH",
"1135 702 OFFCURVE",
"1158 693 OFFCURVE",
"1158 701 CURVE",
"1154 721 OFFCURVE",
"1141 770 OFFCURVE",
"1116 770 CURVE SMOOTH",
"1078 770 OFFCURVE",
"1057 715 OFFCURVE",
"962 601 CURVE SMOOTH",
"882 502 OFFCURVE",
"683 234 OFFCURVE",
"612 126 CURVE"
);
},
{
closed = 1;
nodes = (
"549 577 OFFCURVE",
"595 671 OFFCURVE",
"635 671 CURVE SMOOTH",
"658 671 OFFCURVE",
"660 652 OFFCURVE",
"662 634 CURVE",
"663 593 OFFCURVE",
"643 511 OFFCURVE",
"577 393 CURVE"
);
}
);
width = 1141;
}
);
note = M;
unicode = 004D;
},
{
glyphname = N;
lastChange = "2017-12-19 08:22:12 +0000";
layers = (
{
layerId = "0B1DFD06-3317-40CA-B510-4969A0718C16";
paths = (
{
closed = 1;
nodes = (
"186 -25 LINE",
"201 192 OFFCURVE",
"253 339 OFFCURVE",
"333 565 CURVE SMOOTH",
"342 589 OFFCURVE",
"352 595 OFFCURVE",
"365 572 CURVE SMOOTH",
"437 450 OFFCURVE",
"577 130 OFFCURVE",
"644 -8 CURVE",
"659 -17 OFFCURVE",
"676 -14 OFFCURVE",
"689 -8 CURVE",
"770 325 OFFCURVE",
"840 798 OFFCURVE",
"1027 798 CURVE SMOOTH",
"1041 798 OFFCURVE",
"970 835 OFFCURVE",
"956 835 CURVE SMOOTH",
"796 835 OFFCURVE",
"716 324 OFFCURVE",
"664 129 CURVE SMOOTH",
"660 115 OFFCURVE",
"657 113 OFFCURVE",
"652 113 CURVE SMOOTH",
"643 113 OFFCURVE",
"640 115 OFFCURVE",
"632 133 CURVE SMOOTH",
"546 305 OFFCURVE",
"438 518 OFFCURVE",
"362 678 CURVE SMOOTH",
"357 689 OFFCURVE",
"351 694 OFFCURVE",
"345 694 CURVE",
"321 684 OFFCURVE",
"292 677 OFFCURVE",
"250 677 CURVE SMOOTH",
"218 677 OFFCURVE",
"186 678 OFFCURVE",
"163 687 CURVE",
"158 687 OFFCURVE",
"157 684 OFFCURVE",
"158 681 CURVE",
"164 670 OFFCURVE",
"170 632 OFFCURVE",
"179 632 CURVE",
"201 633 OFFCURVE",
"227 635 OFFCURVE",
"252 635 CURVE SMOOTH",
"284 635 OFFCURVE",
"288 616 OFFCURVE",
"289 591 CURVE SMOOTH",
"294 481 OFFCURVE",
"115 148 OFFCURVE",
"125 30 CURVE",
"131 14 OFFCURVE",
"168 -19 OFFCURVE",
"181 -25 CURVE"
);
}
);
width = 890;
}
);
note = N;
unicode = 004E;
},
{
glyphname = O;
lastChange = "2017-12-19 08:22:12 +0000";
layers = (
{
layerId = "0B1DFD06-3317-40CA-B510-4969A0718C16";
paths = (
{
closed = 1;
nodes = (
"825 595 OFFCURVE",
"694 719 OFFCURVE",
"518 719 CURVE SMOOTH",
"276 719 OFFCURVE",
"130 566 OFFCURVE",
"139 296 CURVE SMOOTH",
"145 96 OFFCURVE",
"277 -15 OFFCURVE",
"465 -15 CURVE SMOOTH",
"719 -15 OFFCURVE",
"840 176 OFFCURVE",
"831 413 CURVE SMOOTH"
);
},
{
closed = 1;
nodes = (
"775 188 OFFCURVE",
"672 33 OFFCURVE",
"451 33 CURVE SMOOTH",
"327 33 OFFCURVE",
"208 146 OFFCURVE",
"202 292 CURVE SMOOTH",
"193 516 OFFCURVE",
"295 674 OFFCURVE",
"524 674 CURVE SMOOTH",
"662 674 OFFCURVE",
"765 543 OFFCURVE",
"769 401 CURVE SMOOTH"
);
}
);
width = 876;
}
);
note = O;
unicode = 004F;
},
{
glyphname = P;
lastChange = "2017-12-19 08:22:12 +0000";
layers = (
{
layerId = "0B1DFD06-3317-40CA-B510-4969A0718C16";
paths = (
{
closed = 1;
nodes = (
"79 716 OFFCURVE",
"77 663 OFFCURVE",
"77 659 CURVE",
"80 647 OFFCURVE",
"92 641 OFFCURVE",
"112 641 CURVE SMOOTH",
"181 641 OFFCURVE",
"231 656 OFFCURVE",
"300 656 CURVE SMOOTH",
"324 656 OFFCURVE",
"303 601 OFFCURVE",
"300 591 CURVE SMOOTH",
"242 424 OFFCURVE",
"180 232 OFFCURVE",
"123 60 CURVE",
"120 50 OFFCURVE",
"119 43 OFFCURVE",
"119 37 CURVE",
"123 -1 OFFCURVE",
"174 -8 OFFCURVE",
"196 -8 CURVE SMOOTH",
"243 -8 OFFCURVE",
"268 -2 OFFCURVE",
"301 4 CURVE",
"308 4 OFFCURVE",
"300 37 OFFCURVE",
"289 37 CURVE SMOOTH",
"217 37 OFFCURVE",
"196 32 OFFCURVE",
"193 73 CURVE",
"193 132 OFFCURVE",
"318 506 OFFCURVE",
"370 634 CURVE",
"380 671 OFFCURVE",
"458 670 OFFCURVE",
"490 670 CURVE SMOOTH",
"584 670 OFFCURVE",
"656 653 OFFCURVE",
"659 553 CURVE SMOOTH",
"665 444 OFFCURVE",
"577 356 OFFCURVE",
"431 356 CURVE SMOOTH",
"406 356 OFFCURVE",
"370 362 OFFCURVE",
"357 367 CURVE SMOOTH",
"351 369 OFFCURVE",
"357 324 OFFCURVE",
"361 324 CURVE",
"381 317 OFFCURVE",
"405 313 OFFCURVE",
"432 313 CURVE SMOOTH",
"637 313 OFFCURVE",
"726 443 OFFCURVE",
"720 547 CURVE SMOOTH",
"716 679 OFFCURVE",
"615 716 OFFCURVE",
"496 716 CURVE SMOOTH",
"445 716 OFFCURVE",
"231 684 OFFCURVE",
"113 697 CURVE",
"94 701 OFFCURVE",
"88 716 OFFCURVE",
"84 716 CURVE SMOOTH"
);
}
);
width = 677;
}
);
note = P;
unicode = 0050;
},
{
glyphname = Q;
lastChange = "2017-12-19 08:22:12 +0000";
layers = (
{
layerId = "0B1DFD06-3317-40CA-B510-4969A0718C16";
paths = (
{
closed = 1;
nodes = (
"1050 -56 OFFCURVE",
"1019 -32 OFFCURVE",
"1016 -37 CURVE",
"982 -151 OFFCURVE",
"920 -158 OFFCURVE",
"877 -158 CURVE SMOOTH",
"770 -158 OFFCURVE",
"664 -32 OFFCURVE",
"613 45 CURVE",
"785 143 OFFCURVE",
"834 328 OFFCURVE",
"828 459 CURVE SMOOTH",
"825 600 OFFCURVE",
"706 709 OFFCURVE",
"650 709 CURVE SMOOTH",
"627 709 OFFCURVE",
"600 710 OFFCURVE",
"587 707 CURVE",
"577 703 OFFCURVE",
"581 676 OFFCURVE",
"589 670 CURVE",
"693 651 OFFCURVE",
"772 540 OFFCURVE",
"776 428 CURVE SMOOTH",
"782 294 OFFCURVE",
"700 152 OFFCURVE",
"583 87 CURVE",
"530 173 OFFCURVE",
"456 187 OFFCURVE",
"418 187 CURVE SMOOTH",
"375 187 OFFCURVE",
"298 171 OFFCURVE",
"234 120 CURVE",
"215 148 OFFCURVE",
"192 195 OFFCURVE",
"188 280 CURVE SMOOTH",
"182 499 OFFCURVE",
"352 683 OFFCURVE",
"530 674 CURVE",
"533 674 OFFCURVE",
"534 715 OFFCURVE",
"515 715 CURVE SMOOTH",
"289 715 OFFCURVE",
"112 514 OFFCURVE",
"121 269 CURVE SMOOTH",
"125 193 OFFCURVE",
"164 123 OFFCURVE",
"199 88 CURVE",
"167 58 OFFCURVE",
"126 17 OFFCURVE",
"99 -26 CURVE",
"99 -32 OFFCURVE",
"127 -58 OFFCURVE",
"131 -58 CURVE",
"155 -17 OFFCURVE",
"190 33 OFFCURVE",
"224 61 CURVE",
"287 12 OFFCURVE",
"351 -8 OFFCURVE",
"422 -8 CURVE SMOOTH",
"474 -8 OFFCURVE",
"521 -1 OFFCURVE",
"568 21 CURVE",
"626 -71 OFFCURVE",
"733 -230 OFFCURVE",
"868 -230 CURVE SMOOTH",
"970 -230 OFFCURVE",
"1032 -156 OFFCURVE",
"1053 -65 CURVE"
);
},
{
closed = 1;
nodes = (
"506 46 OFFCURVE",
"466 38 OFFCURVE",
"422 38 CURVE SMOOTH",
"357 38 OFFCURVE",
"313 50 OFFCURVE",
"259 92 CURVE",
"301 123 OFFCURVE",
"349 138 OFFCURVE",
"402 138 CURVE SMOOTH",
"474 138 OFFCURVE",
"508 112 OFFCURVE",
"540 64 CURVE"
);
}
);
width = 879;
}
);
note = Q;
unicode = 0051;
},
{
glyphname = R;
lastChange = "2017-12-19 08:22:12 +0000";
layers = (
{
layerId = "0B1DFD06-3317-40CA-B510-4969A0718C16";
paths = (
{
closed = 1;
nodes = (
"152 549 OFFCURVE",
"175 585 OFFCURVE",
"209 608 CURVE",
"261 638 OFFCURVE",
"308 651 OFFCURVE",
"371 656 CURVE",
"381 656 OFFCURVE",
"388 655 OFFCURVE",
"384 637 CURVE",
"327 450 OFFCURVE",
"258 284 OFFCURVE",
"132 -7 CURVE",
"129 -11 OFFCURVE",
"148 -13 OFFCURVE",
"151 -13 CURVE",
"165 6 OFFCURVE",
"179 7 OFFCURVE",
"212 4 CURVE",
"240 127 OFFCURVE",
"412 563 OFFCURVE",
"463 643 CURVE",
"476 660 OFFCURVE",
"494 664 OFFCURVE",
"516 664 CURVE SMOOTH",
"665 664 OFFCURVE",
"708 626 OFFCURVE",
"712 543 CURVE SMOOTH",
"715 427 OFFCURVE",
"578 362 OFFCURVE",
"407 362 CURVE SMOOTH",
"403 362 OFFCURVE",
"402 359 OFFCURVE",
"402 356 CURVE",
"621 65 OFFCURVE",
"845 -239 OFFCURVE",
"1177 -239 CURVE SMOOTH",
"1263 -239 OFFCURVE",
"1329 -214 OFFCURVE",
"1391 -177 CURVE",
"1395 -177 OFFCURVE",
"1384 -152 OFFCURVE",
"1383 -148 CURVE",
"1382 -142 OFFCURVE",
"1378 -140 OFFCURVE",
"1372 -145 CURVE",
"1316 -177 OFFCURVE",
"1258 -195 OFFCURVE",
"1192 -195 CURVE SMOOTH",
"902 -195 OFFCURVE",
"655 126 OFFCURVE",
"507 321 CURVE SMOOTH",
"501 330 OFFCURVE",
"502 333 OFFCURVE",
"512 334 CURVE",
"687 350 OFFCURVE",
"776 471 OFFCURVE",
"772 558 CURVE SMOOTH",
"769 663 OFFCURVE",
"669 713 OFFCURVE",
"496 713 CURVE SMOOTH",
"374 713 OFFCURVE",
"237 688 OFFCURVE",
"133 622 CURVE SMOOTH",
"124 616 OFFCURVE",
"119 607 OFFCURVE",
"119 595 CURVE SMOOTH",
"119 509 LINE SMOOTH",
"119 505 OFFCURVE",
"136 505 OFFCURVE",
"139 506 CURVE"
);
}
);
width = 822;
}
);
note = R;
unicode = 0052;
},
{
glyphname = S;
lastChange = "2017-12-19 08:22:12 +0000";
layers = (
{
layerId = "0B1DFD06-3317-40CA-B510-4969A0718C16";
paths = (
{
closed = 1;
nodes = (
"526 669 OFFCURVE",
"469 707 OFFCURVE",
"401 707 CURVE SMOOTH",
"269 707 OFFCURVE",
"214 627 OFFCURVE",
"218 524 CURVE SMOOTH",
"221 451 OFFCURVE",
"252 411 OFFCURVE",
"318 347 CURVE SMOOTH",
"389 275 OFFCURVE",
"411 218 OFFCURVE",
"412 180 CURVE SMOOTH",
"415 80 OFFCURVE",
"306 32 OFFCURVE",
"209 32 CURVE SMOOTH",
"144 32 OFFCURVE",
"89 58 OFFCURVE",
"76 119 CURVE",
"75 129 OFFCURVE",
"73 149 OFFCURVE",
"74 158 CURVE",
"74 164 OFFCURVE",
"56 167 OFFCURVE",
"52 167 CURVE SMOOTH",
"49 167 OFFCURVE",
"32 168 OFFCURVE",
"32 164 CURVE SMOOTH",
"32 136 OFFCURVE",
"32 69 OFFCURVE",
"29 35 CURVE",
"31 29 OFFCURVE",
"40 23 OFFCURVE",
"56 17 CURVE",
"100 -2 OFFCURVE",
"150 -12 OFFCURVE",
"201 -12 CURVE SMOOTH",
"324 -12 OFFCURVE",
"486 55 OFFCURVE",
"480 195 CURVE SMOOTH",
"476 261 OFFCURVE",
"451 295 OFFCURVE",
"371 377 CURVE SMOOTH",
"320 431 OFFCURVE",
"271 478 OFFCURVE",
"268 547 CURVE",
"268 613 OFFCURVE",
"321 656 OFFCURVE",
"376 656 CURVE SMOOTH",
"457 656 OFFCURVE",
"481 631 OFFCURVE",
"489 591 CURVE",
"493 582 OFFCURVE",
"493 563 OFFCURVE",
"491 557 CURVE",
"495 551 OFFCURVE",
"521 549 OFFCURVE",
"525 552 CURVE",
"533 576 OFFCURVE",
"536 613 OFFCURVE",
"536 641 CURVE"
);
}
);
width = 530;
}
);
note = S;
unicode = 0053;
},
{
glyphname = T;
lastChange = "2017-12-19 08:22:12 +0000";
layers = (
{
layerId = "0B1DFD06-3317-40CA-B510-4969A0718C16";
paths = (
{
closed = 1;
nodes = (
"439 656 LINE",
"452 656 OFFCURVE",
"453 653 OFFCURVE",
"450 640 CURVE",
"396 470 OFFCURVE",
"321 303 OFFCURVE",
"258 109 CURVE SMOOTH",
"226 14 OFFCURVE",
"248 -10 OFFCURVE",
"370 -10 CURVE SMOOTH",
"409 -10 OFFCURVE",
"446 -5 OFFCURVE",
"484 0 CURVE",
"487 5 OFFCURVE",
"486 54 OFFCURVE",
"483 56 CURVE",
"477 55 OFFCURVE",
"438 44 OFFCURVE",
"408 44 CURVE SMOOTH",
"369 44 OFFCURVE",
"328 49 OFFCURVE",
"327 81 CURVE SMOOTH",
"326 104 OFFCURVE",
"336 139 OFFCURVE",
"346 167 CURVE",
"400 321 OFFCURVE",
"445 430 OFFCURVE",
"515 627 CURVE",
"520 639 OFFCURVE",
"531 645 OFFCURVE",
"549 645 CURVE SMOOTH",
"585 645 OFFCURVE",
"656 634 OFFCURVE",
"701 634 CURVE SMOOTH",
"814 634 OFFCURVE",
"890 679 OFFCURVE",
"887 754 CURVE SMOOTH",
"885 791 OFFCURVE",
"853 820 OFFCURVE",
"823 835 CURVE",
"821 835 OFFCURVE",
"777 816 OFFCURVE",
"777 812 CURVE",
"795 798 OFFCURVE",
"814 782 OFFCURVE",
"814 764 CURVE",
"819 672 OFFCURVE",
"632 689 OFFCURVE",
"584 689 CURVE SMOOTH",
"413 689 OFFCURVE",
"252 756 OFFCURVE",
"140 737 CURVE SMOOTH",
"49 721 OFFCURVE",
"20 582 OFFCURVE",
"7 465 CURVE",
"15 452 OFFCURVE",
"44 449 OFFCURVE",
"48 457 CURVE",
"88 675 OFFCURVE",
"96 697 OFFCURVE",
"358 665 CURVE SMOOTH"
);
}
);
width = 607;
}
);
note = T;
unicode = 0054;
},
{
glyphname = U;
lastChange = "2017-12-19 08:22:12 +0000";
layers = (
{
layerId = "0B1DFD06-3317-40CA-B510-4969A0718C16";
paths = (
{
closed = 1;
nodes = (
"977 682 OFFCURVE",
"969 720 OFFCURVE",
"958 720 CURVE SMOOTH",
"945 720 OFFCURVE",
"896 700 OFFCURVE",
"878 696 CURVE",
"853 683 OFFCURVE",
"844 670 OFFCURVE",
"835 646 CURVE SMOOTH",
"764 438 OFFCURVE",
"596 40 OFFCURVE",
"372 40 CURVE SMOOTH",
"264 40 OFFCURVE",
"226 83 OFFCURVE",
"223 169 CURVE SMOOTH",
"218 259 OFFCURVE",
"342 526 OFFCURVE",
"393 633 CURVE SMOOTH",
"403 656 OFFCURVE",
"428 653 OFFCURVE",
"446 658 CURVE",
"452 659 OFFCURVE",
"458 658 OFFCURVE",
"459 668 CURVE",
"459 671 OFFCURVE",
"456 706 OFFCURVE",
"451 706 CURVE SMOOTH",
"445 706 OFFCURVE",
"347 697 OFFCURVE",
"194 697 CURVE SMOOTH",
"176 697 OFFCURVE",
"184 646 OFFCURVE",
"200 646 CURVE SMOOTH",
"290 646 LINE SMOOTH",
"318 646 OFFCURVE",
"321 635 OFFCURVE",
"317 613 CURVE SMOOTH",
"290 501 OFFCURVE",
"150 281 OFFCURVE",
"154 148 CURVE SMOOTH",
"159 33 OFFCURVE",
"243 -18 OFFCURVE",
"336 -18 CURVE SMOOTH",
"486 -18 OFFCURVE",
"574 31 OFFCURVE",
"689 203 CURVE",
"690 203 OFFCURVE",
"693 202 OFFCURVE",
"695 200 CURVE",
"695 196 OFFCURVE",
"671 133 OFFCURVE",
"671 80 CURVE",
"675 31 OFFCURVE",
"699 -25 OFFCURVE",
"800 -25 CURVE SMOOTH",
"868 -25 OFFCURVE",
"915 -1 OFFCURVE",
"971 27 CURVE",
"982 33 OFFCURVE",
"964 73 OFFCURVE",
"951 73 CURVE SMOOTH",
"947 73 OFFCURVE",
"883 29 OFFCURVE",
"828 29 CURVE SMOOTH",
"765 29 OFFCURVE",
"738 43 OFFCURVE",
"734 104 CURVE",
"731 261 OFFCURVE",
"832 520 OFFCURVE",
"927 663 CURVE SMOOTH",
"935 676 OFFCURVE",
"957 681 OFFCURVE",
"965 682 CURVE"
);
}
);
width = 956;
}
);
note = U;
unicode = 0055;
},
{
glyphname = V;
lastChange = "2017-12-19 08:22:12 +0000";
layers = (
{
layerId = "0B1DFD06-3317-40CA-B510-4969A0718C16";
paths = (
{
closed = 1;
nodes = (
"346 106 OFFCURVE",
"345 105 OFFCURVE",
"342 105 CURVE SMOOTH",
"338 105 OFFCURVE",
"337 107 OFFCURVE",
"337 112 CURVE",
"327 214 OFFCURVE",
"337 476 OFFCURVE",
"311 595 CURVE SMOOTH",
"295 663 OFFCURVE",
"264 713 OFFCURVE",
"184 713 CURVE SMOOTH",
"108 713 OFFCURVE",
"24 681 OFFCURVE",
"-30 638 CURVE",
"-32 630 OFFCURVE",
"-4 600 OFFCURVE",
"6 606 CURVE",
"29 635 OFFCURVE",
"86 659 OFFCURVE",
"129 659 CURVE SMOOTH",
"234 659 OFFCURVE",
"249 602 OFFCURVE",
"262 526 CURVE",
"276 465 OFFCURVE",
"303 148 OFFCURVE",
"270 -13 CURVE",
"273 -18 OFFCURVE",
"276 -20 OFFCURVE",
"280 -20 CURVE SMOOTH",
"292 -20 OFFCURVE",
"295 -10 OFFCURVE",
"334 -6 CURVE",
"347 -6 OFFCURVE",
"357 1 OFFCURVE",
"362 15 CURVE SMOOTH",
"409 171 OFFCURVE",
"871 658 OFFCURVE",
"852 788 CURVE",
"852 798 OFFCURVE",
"800 831 OFFCURVE",
"785 833 CURVE",
"768 838 OFFCURVE",
"776 820 OFFCURVE",
"779 812 CURVE",
"785 794 OFFCURVE",
"785 779 OFFCURVE",
"772 754 CURVE",
"715 616 OFFCURVE",
"528 333 OFFCURVE",
"347 108 CURVE"
);
}
);
width = 709;
}
);
note = V;
unicode = 0056;
},
{
glyphname = W;
lastChange = "2017-12-19 08:22:12 +0000";
layers = (
{
layerId = "0B1DFD06-3317-40CA-B510-4969A0718C16";
paths = (
{
closed = 1;
nodes = (
"1315 758 OFFCURVE",
"1267 770 OFFCURVE",
"1258 770 CURVE SMOOTH",
"1083 770 OFFCURVE",
"854 240 OFFCURVE",
"774 101 CURVE",
"771 96 OFFCURVE",
"768 94 OFFCURVE",
"764 94 CURVE SMOOTH",
"760 94 OFFCURVE",
"758 98 OFFCURVE",
"756 105 CURVE",
"720 277 OFFCURVE",
"697 578 OFFCURVE",
"720 610 CURVE",
"724 614 OFFCURVE",
"665 621 OFFCURVE",
"659 621 CURVE",
"522 455 OFFCURVE",
"407 284 OFFCURVE",
"268 107 CURVE",
"264 99 OFFCURVE",
"257 99 OFFCURVE",
"258 121 CURVE SMOOTH",
"267 280 OFFCURVE",
"284 439 OFFCURVE",
"302 588 CURVE SMOOTH",
"308 633 OFFCURVE",
"321 687 OFFCURVE",
"331 696 CURVE SMOOTH",
"337 702 OFFCURVE",
"334 713 OFFCURVE",
"325 713 CURVE SMOOTH",
"315 713 OFFCURVE",
"326 703 OFFCURVE",
"132 665 CURVE",
"119 665 OFFCURVE",
"123 619 OFFCURVE",
"136 619 CURVE SMOOTH",
"155 619 OFFCURVE",
"187 632 OFFCURVE",
"217 632 CURVE SMOOTH",
"233 632 OFFCURVE",
"243 625 OFFCURVE",
"245 609 CURVE",
"259 466 OFFCURVE",
"199 35 OFFCURVE",
"167 -15 CURVE",
"164 -24 OFFCURVE",
"167 -29 OFFCURVE",
"174 -29 CURVE",
"194 -19 OFFCURVE",
"220 -10 OFFCURVE",
"252 -10 CURVE SMOOTH",
"261 -10 OFFCURVE",
"267 -4 OFFCURVE",
"267 6 CURVE",
"273 75 OFFCURVE",
"585 468 OFFCURVE",
"624 513 CURVE",
"639 528 OFFCURVE",
"653 532 OFFCURVE",
"657 512 CURVE SMOOTH",
"690 347 OFFCURVE",
"721 37 OFFCURVE",
"716 -4 CURVE SMOOTH",
"715 -17 OFFCURVE",
"721 -26 OFFCURVE",
"729 -23 CURVE SMOOTH",
"752 -13 OFFCURVE",
"752 -10 OFFCURVE",
"779 -6 CURVE",
"793 -2 OFFCURVE",
"795 6 OFFCURVE",
"798 15 CURVE",
"884 271 OFFCURVE",
"1196 728 OFFCURVE",
"1305 738 CURVE SMOOTH",
"1320 739 OFFCURVE",
"1336 739 OFFCURVE",
"1321 752 CURVE"
);
}
);
width = 1164;
}
);
note = W;
unicode = 0057;
},
{
glyphname = X;
lastChange = "2017-12-19 08:22:12 +0000";
layers = (
{
layerId = "0B1DFD06-3317-40CA-B510-4969A0718C16";
paths = (
{
closed = 1;
nodes = (
"912 708 OFFCURVE",
"873 765 OFFCURVE",
"868 765 CURVE SMOOTH",
"859 765 OFFCURVE",
"856 759 OFFCURVE",
"857 756 CURVE",
"865 745 OFFCURVE",
"864 735 OFFCURVE",
"853 727 CURVE",
"739 622 OFFCURVE",
"631 526 OFFCURVE",
"507 430 CURVE",
"494 468 OFFCURVE",
"455 546 OFFCURVE",
"439 593 CURVE SMOOTH",
"414 665 OFFCURVE",
"384 704 OFFCURVE",
"312 704 CURVE SMOOTH",
"231 704 OFFCURVE",
"175 683 OFFCURVE",
"114 646 CURVE",
"105 639 OFFCURVE",
"121 606 OFFCURVE",
"133 614 CURVE",
"170 644 OFFCURVE",
"212 657 OFFCURVE",
"255 657 CURVE SMOOTH",
"307 657 OFFCURVE",
"351 649 OFFCURVE",
"378 587 CURVE SMOOTH",
"408 515 OFFCURVE",
"430 458 OFFCURVE",
"458 392 CURVE",
"352 309 OFFCURVE",
"248 227 OFFCURVE",
"149 142 CURVE SMOOTH",
"70 74 OFFCURVE",
"4 5 OFFCURVE",
"13 -43 CURVE SMOOTH",
"17 -58 OFFCURVE",
"50 -99 OFFCURVE",
"67 -109 CURVE",
"70 -108 OFFCURVE",
"70 -105 OFFCURVE",
"68 -99 CURVE",
"55 -38 OFFCURVE",
"120 39 OFFCURVE",
"152 71 CURVE SMOOTH",
"253 170 OFFCURVE",
"356 258 OFFCURVE",
"469 349 CURVE",
"501 273 OFFCURVE",
"524 208 OFFCURVE",
"549 145 CURVE SMOOTH",
"590 42 OFFCURVE",
"625 -13 OFFCURVE",
"693 -13 CURVE SMOOTH",
"764 -13 OFFCURVE",
"833 40 OFFCURVE",
"879 77 CURVE",
"888 80 OFFCURVE",
"864 113 OFFCURVE",
"854 104 CURVE SMOOTH",
"818 65 OFFCURVE",
"772 43 OFFCURVE",
"734 43 CURVE SMOOTH",
"683 43 OFFCURVE",
"650 69 OFFCURVE",
"613 154 CURVE SMOOTH",
"578 230 OFFCURVE",
"551 302 OFFCURVE",
"519 388 CURVE",
"646 487 OFFCURVE",
"803 603 OFFCURVE",
"906 679 CURVE",
"912 684 OFFCURVE",
"914 690 OFFCURVE",
"912 699 CURVE"
);
}
);
width = 862;
}
);
note = X;
unicode = 0058;
},
{
glyphname = Y;
lastChange = "2017-12-19 08:22:12 +0000";
layers = (
{
layerId = "0B1DFD06-3317-40CA-B510-4969A0718C16";
paths = (
{
closed = 1;
nodes = (
"984 720 OFFCURVE",
"934 754 OFFCURVE",
"909 754 CURVE SMOOTH",
"722 754 OFFCURVE",
"531 511 OFFCURVE",
"424 362 CURVE",
"420 356 OFFCURVE",
"409 362 OFFCURVE",
"409 371 CURVE",
"403 514 OFFCURVE",
"358 709 OFFCURVE",
"174 709 CURVE SMOOTH",
"74 709 OFFCURVE",
"7 659 OFFCURVE",
"-36 577 CURVE",
"-42 560 OFFCURVE",
"-2 550 OFFCURVE",
"0 558 CURVE",
"37 610 OFFCURVE",
"87 647 OFFCURVE",
"149 647 CURVE SMOOTH",
"287 647 OFFCURVE",
"356 505 OFFCURVE",
"359 370 CURVE SMOOTH",
"363 252 OFFCURVE",
"299 74 OFFCURVE",
"240 6 CURVE",
"237 -2 OFFCURVE",
"252 -18 OFFCURVE",
"258 -14 CURVE",
"290 1 OFFCURVE",
"295 7 OFFCURVE",
"345 0 CURVE",
"363 -4 OFFCURVE",
"364 5 OFFCURVE",
"364 13 CURVE SMOOTH",
"364 243 OFFCURVE",
"601 622 OFFCURVE",
"921 693 CURVE SMOOTH",
"946 699 OFFCURVE",
"973 681 OFFCURVE",
"978 679 CURVE",
"982 676 OFFCURVE",
"996 701 OFFCURVE",
"996 704 CURVE"
);
}
);
width = 645;
}
);
note = Y;
unicode = 0059;
},
{
glyphname = Z;
lastChange = "2017-12-19 08:22:12 +0000";
layers = (
{
layerId = "0B1DFD06-3317-40CA-B510-4969A0718C16";
paths = (
{
closed = 1;
nodes = (
"1063 109 OFFCURVE",
"1039 113 OFFCURVE",
"1035 113 CURVE SMOOTH",
"1032 113 OFFCURVE",
"1020 112 OFFCURVE",
"1020 104 CURVE SMOOTH",
"1023 -25 OFFCURVE",
"987 -51 OFFCURVE",
"821 -51 CURVE SMOOTH",
"619 -51 OFFCURVE",
"327 10 OFFCURVE",
"226 38 CURVE",
"208 42 OFFCURVE",
"206 54 OFFCURVE",
"215 68 CURVE",
"346 250 OFFCURVE",
"595 495 OFFCURVE",
"725 644 CURVE",
"733 657 OFFCURVE",
"756 665 OFFCURVE",
"765 669 CURVE",
"781 669 OFFCURVE",
"778 707 OFFCURVE",
"757 707 CURVE SMOOTH",
"650 707 OFFCURVE",
"319 700 OFFCURVE",
"184 690 CURVE",
"155 687 OFFCURVE",
"155 640 OFFCURVE",
"145 603 CURVE",
"149 590 OFFCURVE",
"163 590 OFFCURVE",
"171 601 CURVE SMOOTH",
"234 677 OFFCURVE",
"471 656 OFFCURVE",
"585 656 CURVE SMOOTH",
"618 656 OFFCURVE",
"632 644 OFFCURVE",
"614 620 CURVE",
"500 487 OFFCURVE",
"198 164 OFFCURVE",
"115 77 CURVE",
"100 60 OFFCURVE",
"73 50 OFFCURVE",
"44 50 CURVE SMOOTH",
"27 50 OFFCURVE",
"37 2 OFFCURVE",
"46 2 CURVE SMOOTH",
"355 -7 OFFCURVE",
"658 -119 OFFCURVE",
"875 -123 CURVE SMOOTH",
"940 -123 OFFCURVE",
"988 -115 OFFCURVE",
"1021 -64 CURVE SMOOTH",
"1053 -17 OFFCURVE",
"1066 39 OFFCURVE",
"1066 101 CURVE"
);
}
);
width = 702;
}
);
note = Z;
unicode = 005A;
},
{
glyphname = a;
lastChange = "2017-12-19 08:22:40 +0000";
layers = (
{
layerId = "0B1DFD06-3317-40CA-B510-4969A0718C16";
paths = (
{
closed = 1;
nodes = (
"645 246 OFFCURVE",
"627 264 OFFCURVE",
"624 264 CURVE SMOOTH",
"622 264 OFFCURVE",
"620 263 OFFCURVE",
"619 261 CURVE",
"549 132 OFFCURVE",
"412 27 OFFCURVE",
"350 27 CURVE SMOOTH",
"321 27 OFFCURVE",
"312 32 OFFCURVE",
"308 74 CURVE",
"308 133 OFFCURVE",
"320 189 OFFCURVE",
"380 357 CURVE",
"394 357 OFFCURVE",
"428 345 OFFCURVE",
"443 337 CURVE",
"446 337 OFFCURVE",
"461 370 OFFCURVE",
"461 374 CURVE",
"458 386 OFFCURVE",
"412 395 OFFCURVE",
"393 395 CURVE",
"402 414 OFFCURVE",
"403 428 OFFCURVE",
"414 441 CURVE",
"411 443 LINE",
"364 428 LINE",
"355 424 OFFCURVE",
"347 420 OFFCURVE",
"343 396 CURVE",
"152 396 OFFCURVE",
"21 253 OFFCURVE",
"27 88 CURVE",
"27 49 OFFCURVE",
"71 -6 OFFCURVE",
"102 -6 CURVE SMOOTH",
"163 -6 OFFCURVE",
"219 40 OFFCURVE",
"263 117 CURVE",
"253 92 OFFCURVE",
"253 63 OFFCURVE",
"253 52 CURVE",
"255 19 OFFCURVE",
"277 -12 OFFCURVE",
"330 -12 CURVE SMOOTH",
"441 -12 OFFCURVE",
"569 106 OFFCURVE",
"649 243 CURVE"
);
},
{
closed = 1;
nodes = (
"331 359 LINE",
"308 311 OFFCURVE",
"295 258 OFFCURVE",
"273 201 CURVE",
"225 101 OFFCURVE",
"154 39 OFFCURVE",
"119 39 CURVE SMOOTH",
"105 39 OFFCURVE",
"94 67 OFFCURVE",
"93 100 CURVE SMOOTH",
"89 205 OFFCURVE",
"175 362 OFFCURVE",
"330 362 CURVE"
);
}
);
width = 509;
}
);
note = a;
unicode = 0061;
},
{
glyphname = b;
lastChange = "2017-12-19 08:22:40 +0000";
layers = (
{
layerId = "0B1DFD06-3317-40CA-B510-4969A0718C16";
paths = (
{
closed = 1;
nodes = (
"581 287 OFFCURVE",
"532 274 OFFCURVE",
"493 274 CURVE SMOOTH",
"436 274 OFFCURVE",
"355 298 OFFCURVE",
"333 392 CURVE",
"332 394 OFFCURVE",
"330 395 OFFCURVE",
"326 395 CURVE",
"303 384 OFFCURVE",
"288 356 OFFCURVE",
"288 342 CURVE",
"306 321 OFFCURVE",
"320 251 OFFCURVE",
"320 208 CURVE",
"326 98 OFFCURVE",
"264 40 OFFCURVE",
"225 40 CURVE SMOOTH",
"196 40 OFFCURVE",
"163 52 OFFCURVE",
"159 159 CURVE SMOOTH",
"145 583 OFFCURVE",
"458 1027 OFFCURVE",
"829 932 CURVE",
"752 1270 OFFCURVE",
"79 754 OFFCURVE",
"101 156 CURVE SMOOTH",
"107 13 OFFCURVE",
"169 -12 OFFCURVE",
"205 -12 CURVE SMOOTH",
"313 -12 OFFCURVE",
"365 65 OFFCURVE",
"359 217 CURVE",
"359 239 OFFCURVE",
"355 263 OFFCURVE",
"344 286 CURVE",
"368 253 OFFCURVE",
"420 231 OFFCURVE",
"459 231 CURVE SMOOTH",
"540 231 OFFCURVE",
"574 244 OFFCURVE",
"640 294 CURVE",
"643 295 OFFCURVE",
"644 298 OFFCURVE",
"644 301 CURVE SMOOTH",
"644 305 OFFCURVE",
"633 320 OFFCURVE",
"630 320 CURVE SMOOTH",
"627 320 OFFCURVE",
"625 320 OFFCURVE",
"624 319 CURVE"
);
}
);
width = 499;
}
);
note = b;
unicode = 0062;
},
{
glyphname = c;
lastChange = "2017-12-19 08:22:40 +0000";
layers = (
{
layerId = "0B1DFD06-3317-40CA-B510-4969A0718C16";
paths = (
{
closed = 1;
nodes = (
"500 243 OFFCURVE",
"501 245 OFFCURVE",
"501 249 CURVE SMOOTH",
"501 252 OFFCURVE",
"480 267 OFFCURVE",
"476 267 CURVE SMOOTH",
"472 267 OFFCURVE",
"470 265 OFFCURVE",
"468 262 CURVE",
"372 104 OFFCURVE",
"271 29 OFFCURVE",
"205 29 CURVE SMOOTH",
"156 29 OFFCURVE",
"130 42 OFFCURVE",
"126 131 CURVE SMOOTH",
"123 225 OFFCURVE",
"198 352 OFFCURVE",
"261 352 CURVE SMOOTH",
"308 352 OFFCURVE",
"319 302 OFFCURVE",
"319 278 CURVE SMOOTH",
"319 271 LINE",
"324 270 LINE",
"344 284 OFFCURVE",
"357 303 OFFCURVE",
"356 322 CURVE",
"355 369 OFFCURVE",
"327 393 OFFCURVE",
"276 393 CURVE SMOOTH",
"169 393 OFFCURVE",
"67 243 OFFCURVE",
"70 109 CURVE SMOOTH",
"74 37 OFFCURVE",
"112 -11 OFFCURVE",
"188 -11 CURVE SMOOTH",
"317 -11 OFFCURVE",
"424 112 OFFCURVE",
"496 239 CURVE"
);
}
);
width = 382;
}
);
note = c;
unicode = 0063;
},
{
glyphname = d;
lastChange = "2017-12-19 08:22:40 +0000";
layers = (
{
layerId = "0B1DFD06-3317-40CA-B510-4969A0718C16";
paths = (
{
closed = 1;
nodes = (
"333 772 OFFCURVE",
"-1 1075 OFFCURVE",
"-209 952 CURVE",
"163 890 OFFCURVE",
"287 483 OFFCURVE",
"292 407 CURVE",
"292 401 OFFCURVE",
"289 396 OFFCURVE",
"283 393 CURVE",
"148 342 OFFCURVE",
"48 212 OFFCURVE",
"51 107 CURVE SMOOTH",
"55 31 OFFCURVE",
"100 -10 OFFCURVE",
"154 -10 CURVE SMOOTH",
"292 -10 OFFCURVE",
"353 151 OFFCURVE",
"347 301 CURVE SMOOTH"
);
},
{
closed = 1;
nodes = (
"298 358 OFFCURVE",
"303 327 OFFCURVE",
"305 294 CURVE SMOOTH",
"311 162 OFFCURVE",
"252 32 OFFCURVE",
"164 32 CURVE SMOOTH",
"140 32 OFFCURVE",
"112 45 OFFCURVE",
"108 106 CURVE SMOOTH",
"105 200 OFFCURVE",
"200 326 OFFCURVE",
"293 358 CURVE"
);
}
);
width = 395;
}
);
note = d;
unicode = 0064;
},
{
glyphname = e;
lastChange = "2017-12-19 08:22:40 +0000";
layers = (
{
layerId = "0B1DFD06-3317-40CA-B510-4969A0718C16";
paths = (
{
closed = 1;
nodes = (
"258 209 OFFCURVE",
"321 263 OFFCURVE",
"318 331 CURVE SMOOTH",
"314 375 OFFCURVE",
"292 393 OFFCURVE",
"255 393 CURVE SMOOTH",
"130 393 OFFCURVE",
"51 231 OFFCURVE",
"55 102 CURVE SMOOTH",
"58 31 OFFCURVE",
"108 -13 OFFCURVE",
"164 -13 CURVE SMOOTH",
"301 -13 OFFCURVE",
"421 112 OFFCURVE",
"478 213 CURVE",
"477 219 OFFCURVE",
"455 234 OFFCURVE",
"450 230 CURVE",
"408 150 OFFCURVE",
"299 37 OFFCURVE",
"192 37 CURVE SMOOTH",
"136 37 OFFCURVE",
"117 56 OFFCURVE",
"113 114 CURVE SMOOTH",
"112 154 OFFCURVE",
"121 192 OFFCURVE",
"125 209 CURVE"
);
},
{
closed = 1;
nodes = (
"149 306 OFFCURVE",
"193 351 OFFCURVE",
"240 351 CURVE SMOOTH",
"264 351 OFFCURVE",
"270 338 OFFCURVE",
"270 322 CURVE SMOOTH",
"270 274 OFFCURVE",
"209 239 OFFCURVE",
"159 239 CURVE SMOOTH",
"151 239 OFFCURVE",
"137 242 OFFCURVE",
"131 243 CURVE"
);
}
);
width = 358;
}
);
note = e;
unicode = 0065;
},
{
glyphname = f;
lastChange = "2017-12-19 08:22:40 +0000";
layers = (
{
layerId = "0B1DFD06-3317-40CA-B510-4969A0718C16";
paths = (
{
closed = 1;
nodes = (
"383 665 OFFCURVE",
"445 900 OFFCURVE",
"566 900 CURVE SMOOTH",
"609 900 OFFCURVE",
"626 866 OFFCURVE",
"660 866 CURVE SMOOTH",
"689 866 OFFCURVE",
"697 896 OFFCURVE",
"697 910 CURVE",
"696 942 OFFCURVE",
"675 952 OFFCURVE",
"619 952 CURVE SMOOTH",
"580 952 OFFCURVE",
"536 937 OFFCURVE",
"503 914 CURVE",
"351 815 OFFCURVE",
"296 550 OFFCURVE",
"245 372 CURVE",
"195 372 OFFCURVE",
"90 365 OFFCURVE",
"58 356 CURVE",
"31 346 OFFCURVE",
"-2 309 OFFCURVE",
"-17 232 CURVE",
"-4 228 LINE",
"19 314 OFFCURVE",
"56 327 OFFCURVE",
"238 333 CURVE",
"203 215 OFFCURVE",
"151 44 OFFCURVE",
"119 -55 CURVE SMOOTH",
"43 -298 OFFCURVE",
"-175 -371 OFFCURVE",
"-275 -371 CURVE SMOOTH",
"-365 -371 OFFCURVE",
"-444 -312 OFFCURVE",
"-481 -226 CURVE",
"-520 -351 OFFCURVE",
"-455 -421 OFFCURVE",
"-293 -421 CURVE SMOOTH",
"-118 -421 OFFCURVE",
"111 -289 OFFCURVE",
"200 21 CURVE SMOOTH",
"227 117 OFFCURVE",
"255 206 OFFCURVE",
"292 334 CURVE",
"359 334 OFFCURVE",
"462 338 OFFCURVE",
"553 338 CURVE",
"560 345 OFFCURVE",
"556 372 OFFCURVE",
"550 375 CURVE",
"382 375 OFFCURVE",
"320 374 OFFCURVE",
"301 374 CURVE"
);
}
);
width = 388;
}
);
note = f;
unicode = 0066;
},
{
glyphname = g;
lastChange = "2017-12-19 08:22:40 +0000";
layers = (
{
layerId = "0B1DFD06-3317-40CA-B510-4969A0718C16";
paths = (
{
closed = 1;
nodes = (
"389 462 OFFCURVE",
"372 489 OFFCURVE",
"363 489 CURVE SMOOTH",
"353 489 OFFCURVE",
"347 481 OFFCURVE",
"345 465 CURVE",
"336 427 OFFCURVE",
"334 430 OFFCURVE",
"322 396 CURVE",
"317 397 OFFCURVE",
"309 399 OFFCURVE",
"302 399 CURVE SMOOTH",
"274 399 OFFCURVE",
"211 380 OFFCURVE",
"187 364 CURVE",
"82 303 OFFCURVE",
"32 157 OFFCURVE",
"36 74 CURVE SMOOTH",
"39 17 OFFCURVE",
"70 -20 OFFCURVE",
"104 -20 CURVE SMOOTH",
"149 -20 OFFCURVE",
"176 1 OFFCURVE",
"246 131 CURVE",
"214 44 OFFCURVE",
"218 49 OFFCURVE",
"145 -174 CURVE SMOOTH",
"79 -377 OFFCURVE",
"-55 -551 OFFCURVE",
"-308 -551 CURVE SMOOTH",
"-463 -551 OFFCURVE",
"-570 -456 OFFCURVE",
"-610 -352 CURVE",
"-610 -481 OFFCURVE",
"-531 -616 OFFCURVE",
"-340 -616 CURVE SMOOTH",
"-7 -616 OFFCURVE",
"123 -371 OFFCURVE",
"173 -236 CURVE SMOOTH",
"287 69 OFFCURVE",
"253 -35 OFFCURVE",
"393 411 CURVE SMOOTH",
"396 421 OFFCURVE",
"396 432 OFFCURVE",
"393 443 CURVE"
);
},
{
closed = 1;
nodes = (
"265 176 OFFCURVE",
"150 37 OFFCURVE",
"126 37 CURVE SMOOTH",
"108 37 OFFCURVE",
"102 65 OFFCURVE",
"101 83 CURVE SMOOTH",
"98 137 OFFCURVE",
"117 223 OFFCURVE",
"194 313 CURVE",
"212 331 OFFCURVE",
"249 350 OFFCURVE",
"295 350 CURVE SMOOTH",
"300 350 OFFCURVE",
"305 349 OFFCURVE",
"309 347 CURVE"
);
}
);
width = 424;
}
);
note = g;
unicode = 0067;
},
{
glyphname = h;
lastChange = "2017-12-19 08:22:40 +0000";
layers = (
{
layerId = "0B1DFD06-3317-40CA-B510-4969A0718C16";
paths = (
{
closed = 1;
nodes = (
"602 244 OFFCURVE",
"583 257 OFFCURVE",
"580 257 CURVE SMOOTH",
"577 257 OFFCURVE",
"575 256 OFFCURVE",
"574 253 CURVE",
"475 82 OFFCURVE",
"394 48 OFFCURVE",
"340 48 CURVE SMOOTH",
"301 48 OFFCURVE",
"295 67 OFFCURVE",
"294 99 CURVE SMOOTH",
"290 162 OFFCURVE",
"374 327 OFFCURVE",
"374 359 CURVE SMOOTH",
"374 368 OFFCURVE",
"352 393 OFFCURVE",
"343 393 CURVE SMOOTH",
"288 393 OFFCURVE",
"194 299 OFFCURVE",
"173 270 CURVE",
"258 587 OFFCURVE",
"452 998 OFFCURVE",
"662 998 CURVE SMOOTH",
"746 998 OFFCURVE",
"810 967 OFFCURVE",
"844 873 CURVE",
"853 1012 OFFCURVE",
"774 1065 OFFCURVE",
"682 1065 CURVE SMOOTH",
"499 1065 OFFCURVE",
"345 856 OFFCURVE",
"212 525 CURVE SMOOTH",
"146 371 OFFCURVE",
"93 217 OFFCURVE",
"32 35 CURVE",
"32 26 OFFCURVE",
"32 19 OFFCURVE",
"33 15 CURVE SMOOTH",
"39 -2 OFFCURVE",
"64 -7 OFFCURVE",
"75 -7 CURVE SMOOTH",
"83 -7 OFFCURVE",
"90 2 OFFCURVE",
"96 23 CURVE SMOOTH",
"109 70 OFFCURVE",
"117 89 OFFCURVE",
"136 149 CURVE",
"180 231 OFFCURVE",
"265 306 OFFCURVE",
"284 306 CURVE SMOOTH",
"288 306 OFFCURVE",
"290 303 OFFCURVE",
"293 298 CURVE",
"293 253 OFFCURVE",
"231 162 OFFCURVE",
"234 70 CURVE",
"238 24 OFFCURVE",
"269 -12 OFFCURVE",
"318 -12 CURVE SMOOTH",
"426 -12 OFFCURVE",
"537 112 OFFCURVE",
"603 239 CURVE"
);
}
);
width = 475;
}
);
note = h;
unicode = 0068;
},
{
glyphname = i;
lastChange = "2017-12-19 08:22:40 +0000";
layers = (
{
layerId = "0B1DFD06-3317-40CA-B510-4969A0718C16";
paths = (
{
closed = 1;
nodes = (
"270 647 OFFCURVE",
"261 656 OFFCURVE",
"245 656 CURVE SMOOTH",
"212 656 OFFCURVE",
"193 621 OFFCURVE",
"201 589 CURVE",
"206 575 OFFCURVE",
"215 568 OFFCURVE",
"228 568 CURVE SMOOTH",
"261 568 OFFCURVE",
"282 603 OFFCURVE",
"274 632 CURVE"
);
},
{
closed = 1;
nodes = (
"447 245 OFFCURVE",
"422 265 OFFCURVE",
"415 252 CURVE SMOOTH",
"377 182 OFFCURVE",
"265 40 OFFCURVE",
"175 40 CURVE SMOOTH",
"148 40 OFFCURVE",
"121 48 OFFCURVE",
"120 84 CURVE SMOOTH",
"117 140 OFFCURVE",
"169 287 OFFCURVE",
"209 368 CURVE",
"214 372 OFFCURVE",
"214 384 OFFCURVE",
"214 389 CURVE",
"213 393 OFFCURVE",
"209 394 OFFCURVE",
"203 394 CURVE SMOOTH",
"194 394 OFFCURVE",
"159 380 OFFCURVE",
"150 361 CURVE SMOOTH",
"125 311 OFFCURVE",
"54 134 OFFCURVE",
"57 64 CURVE",
"57 4 OFFCURVE",
"114 -12 OFFCURVE",
"152 -12 CURVE SMOOTH",
"277 -12 OFFCURVE",
"384 124 OFFCURVE",
"444 234 CURVE"
);
}
);
width = 321;
}
);
note = i;
unicode = 0069;
},
{
glyphname = j;
lastChange = "2017-12-19 08:22:40 +0000";
layers = (
{
layerId = "0B1DFD06-3317-40CA-B510-4969A0718C16";
paths = (
{
closed = 1;
nodes = (
"239 560 OFFCURVE",
"257 590 OFFCURVE",
"256 618 CURVE",
"256 635 OFFCURVE",
"243 649 OFFCURVE",
"225 649 CURVE SMOOTH",
"196 649 OFFCURVE",
"180 622 OFFCURVE",
"181 594 CURVE SMOOTH",
"182 576 OFFCURVE",
"192 560 OFFCURVE",
"212 560 CURVE SMOOTH"
);
},
{
closed = 1;
nodes = (
"39 359 OFFCURVE",
"39 317 OFFCURVE",
"48 317 CURVE SMOOTH",
"71 317 OFFCURVE",
"114 328 OFFCURVE",
"118 328 CURVE SMOOTH",
"127 328 OFFCURVE",
"133 324 OFFCURVE",
"136 313 CURVE",
"136 308 OFFCURVE",
"136 301 OFFCURVE",
"134 288 CURVE",
"74 58 OFFCURVE",
"32 -92 OFFCURVE",
"-25 -275 CURVE SMOOTH",
"-73 -413 OFFCURVE",
"-120 -378 OFFCURVE",
"-177 -491 CURVE",
"-181 -497 OFFCURVE",
"-181 -506 OFFCURVE",
"-179 -518 CURVE",
"-174 -531 OFFCURVE",
"-164 -560 OFFCURVE",
"-151 -560 CURVE SMOOTH",
"-146 -560 OFFCURVE",
"-143 -559 OFFCURVE",
"-140 -557 CURVE",
"-92 -499 OFFCURVE",
"-63 -446 OFFCURVE",
"-45 -414 CURVE SMOOTH",
"117 -129 OFFCURVE",
"405 -46 OFFCURVE",
"395 196 CURVE",
"392 242 OFFCURVE",
"358 290 OFFCURVE",
"307 300 CURVE",
"315 282 OFFCURVE",
"334 261 OFFCURVE",
"336 205 CURVE SMOOTH",
"345 4 OFFCURVE",
"89 -152 OFFCURVE",
"4 -290 CURVE",
"89 -35 OFFCURVE",
"138 106 OFFCURVE",
"214 352 CURVE",
"217 363 OFFCURVE",
"217 371 OFFCURVE",
"215 377 CURVE",
"212 390 OFFCURVE",
"205 396 OFFCURVE",
"193 396 CURVE SMOOTH",
"171 396 OFFCURVE",
"151 378 OFFCURVE",
"50 359 CURVE"
);
}
);
width = 350;
}
);
note = j;
unicode = 006A;
},
{
glyphname = k;
lastChange = "2017-12-19 08:22:40 +0000";
layers = (
{
layerId = "0B1DFD06-3317-40CA-B510-4969A0718C16";
paths = (
{
closed = 1;
nodes = (
"853 1012 OFFCURVE",
"774 1065 OFFCURVE",
"682 1065 CURVE SMOOTH",
"499 1065 OFFCURVE",
"345 856 OFFCURVE",
"212 525 CURVE SMOOTH",
"104 258 OFFCURVE",
"65 113 OFFCURVE",
"37 45 CURVE",
"36 42 OFFCURVE",
"35 39 OFFCURVE",
"36 38 CURVE",
"37 31 LINE",
"42 13 OFFCURVE",
"56 -13 OFFCURVE",
"74 -13 CURVE SMOOTH",
"80 -13 OFFCURVE",
"84 -10 OFFCURVE",
"88 -4 CURVE",
"117 55 OFFCURVE",
"179 121 OFFCURVE",
"239 194 CURVE",
"293 1 OFFCURVE",
"358 -12 OFFCURVE",
"420 -12 CURVE SMOOTH",
"528 -12 OFFCURVE",
"621 111 OFFCURVE",
"672 249 CURVE",
"676 256 OFFCURVE",
"637 278 OFFCURVE",
"631 270 CURVE",
"602 156 OFFCURVE",
"522 35 OFFCURVE",
"403 35 CURVE SMOOTH",
"343 35 OFFCURVE",
"306 138 OFFCURVE",
"280 238 CURVE",
"317 281 OFFCURVE",
"359 327 OFFCURVE",
"415 364 CURVE",
"426 372 OFFCURVE",
"432 372 OFFCURVE",
"428 381 CURVE SMOOTH",
"420 400 OFFCURVE",
"403 424 OFFCURVE",
"397 424 CURVE SMOOTH",
"382 424 OFFCURVE",
"280 308 OFFCURVE",
"264 290 CURVE",
"262 293 OFFCURVE",
"261 295 OFFCURVE",
"261 299 CURVE",
"259 303 OFFCURVE",
"258 306 OFFCURVE",
"255 306 CURVE",
"246 302 OFFCURVE",
"240 302 OFFCURVE",
"227 294 CURVE SMOOTH",
"214 286 OFFCURVE",
"208 276 OFFCURVE",
"211 267 CURVE SMOOTH",
"213 256 OFFCURVE",
"215 248 OFFCURVE",
"218 243 CURVE",
"180 198 OFFCURVE",
"158 177 OFFCURVE",
"132 136 CURVE",
"125 129 OFFCURVE",
"120 125 OFFCURVE",
"118 125 CURVE SMOOTH",
"117 125 OFFCURVE",
"117 130 OFFCURVE",
"118 139 CURVE",
"223 444 OFFCURVE",
"411 998 OFFCURVE",
"662 998 CURVE SMOOTH",
"746 998 OFFCURVE",
"810 967 OFFCURVE",
"844 873 CURVE"
);
}
);
width = 536;
}
);
note = k;
unicode = 006B;
},
{
glyphname = l;
lastChange = "2017-12-19 08:22:40 +0000";
layers = (
{
layerId = "0B1DFD06-3317-40CA-B510-4969A0718C16";
paths = (
{
closed = 1;
nodes = (
"277 344 OFFCURVE",
"578 628 OFFCURVE",
"569 885 CURVE SMOOTH",
"565 938 OFFCURVE",
"560 987 OFFCURVE",
"525 987 CURVE SMOOTH",
"518 987 OFFCURVE",
"461 981 OFFCURVE",
"413 896 CURVE SMOOTH",
"331 753 OFFCURVE",
"203 497 OFFCURVE",
"173 417 CURVE SMOOTH",
"144 342 OFFCURVE",
"63 186 OFFCURVE",
"67 87 CURVE SMOOTH",
"68 36 OFFCURVE",
"108 -7 OFFCURVE",
"175 -7 CURVE SMOOTH",
"319 -7 OFFCURVE",
"428 139 OFFCURVE",
"495 246 CURVE SMOOTH",
"501 256 OFFCURVE",
"468 287 OFFCURVE",
"456 269 CURVE SMOOTH",
"405 187 OFFCURVE",
"318 39 OFFCURVE",
"201 39 CURVE SMOOTH",
"159 39 OFFCURVE",
"127 55 OFFCURVE",
"126 101 CURVE",
"123 146 OFFCURVE",
"132 170 OFFCURVE",
"170 269 CURVE"
);
},
{
closed = 1;
nodes = (
"217 401 OFFCURVE",
"240 457 OFFCURVE",
"265 511 CURVE SMOOTH",
"307 602 OFFCURVE",
"357 710 OFFCURVE",
"395 777 CURVE SMOOTH",
"465 906 OFFCURVE",
"475 927 OFFCURVE",
"495 927 CURVE SMOOTH",
"515 927 OFFCURVE",
"520 900 OFFCURVE",
"521 870 CURVE SMOOTH",
"526 731 OFFCURVE",
"344 444 OFFCURVE",
"192 344 CURVE"
);
}
);
width = 358;
}
);
note = l;
unicode = 006C;
},
{
glyphname = m;
lastChange = "2017-12-19 08:22:40 +0000";
layers = (
{
layerId = "0B1DFD06-3317-40CA-B510-4969A0718C16";
paths = (
{
closed = 1;
nodes = (
"735 176 OFFCURVE",
"696 192 OFFCURVE",
"688 177 CURVE",
"644 112 OFFCURVE",
"584 36 OFFCURVE",
"499 36 CURVE SMOOTH",
"469 36 OFFCURVE",
"462 55 OFFCURVE",
"461 84 CURVE SMOOTH",
"457 161 OFFCURVE",
"520 298 OFFCURVE",
"533 345 CURVE SMOOTH",
"539 369 OFFCURVE",
"508 395 OFFCURVE",
"482 386 CURVE SMOOTH",
"431 365 OFFCURVE",
"371 314 OFFCURVE",
"330 248 CURVE SMOOTH",
"326 242 OFFCURVE",
"321 240 OFFCURVE",
"325 250 CURVE SMOOTH",
"331 265 OFFCURVE",
"342 314 OFFCURVE",
"342 331 CURVE",
"340 350 OFFCURVE",
"330 370 OFFCURVE",
"312 370 CURVE SMOOTH",
"280 370 OFFCURVE",
"221 339 OFFCURVE",
"152 230 CURVE",
"181 324 OFFCURVE",
"195 346 OFFCURVE",
"201 374 CURVE",
"196 384 OFFCURVE",
"181 403 OFFCURVE",
"170 403 CURVE SMOOTH",
"162 403 OFFCURVE",
"155 397 OFFCURVE",
"151 387 CURVE SMOOTH",
"114 282 OFFCURVE",
"79 173 OFFCURVE",
"37 71 CURVE",
"35 64 OFFCURVE",
"33 56 OFFCURVE",
"35 48 CURVE",
"40 32 OFFCURVE",
"44 10 OFFCURVE",
"63 10 CURVE SMOOTH",
"76 10 OFFCURVE",
"89 56 OFFCURVE",
"112 105 CURVE",
"139 179 OFFCURVE",
"251 306 OFFCURVE",
"280 306 CURVE SMOOTH",
"284 306 OFFCURVE",
"287 301 OFFCURVE",
"288 292 CURVE",
"288 281 OFFCURVE",
"264 186 OFFCURVE",
"226 89 CURVE SMOOTH",
"215 62 OFFCURVE",
"211 44 OFFCURVE",
"214 37 CURVE",
"218 26 OFFCURVE",
"232 10 OFFCURVE",
"243 10 CURVE SMOOTH",
"265 10 OFFCURVE",
"282 111 OFFCURVE",
"301 157 CURVE",
"326 203 OFFCURVE",
"431 324 OFFCURVE",
"456 324 CURVE SMOOTH",
"462 324 OFFCURVE",
"469 321 OFFCURVE",
"469 313 CURVE",
"472 261 OFFCURVE",
"406 167 OFFCURVE",
"409 62 CURVE SMOOTH",
"411 15 OFFCURVE",
"440 -12 OFFCURVE",
"487 -12 CURVE SMOOTH",
"591 -12 OFFCURVE",
"675 77 OFFCURVE",
"726 154 CURVE"
);
}
);
width = 628;
}
);
note = m;
unicode = 006D;
},
{
glyphname = n;
lastChange = "2017-12-19 08:22:40 +0000";
layers = (
{
layerId = "0B1DFD06-3317-40CA-B510-4969A0718C16";
paths = (
{
closed = 1;
nodes = (
"624 253 OFFCURVE",
"571 269 OFFCURVE",
"569 263 CURVE SMOOTH",
"527 158 OFFCURVE",
"412 32 OFFCURVE",
"339 32 CURVE SMOOTH",
"314 32 OFFCURVE",
"306 46 OFFCURVE",
"305 70 CURVE SMOOTH",
"301 146 OFFCURVE",
"359 286 OFFCURVE",
"392 355 CURVE",
"395 365 OFFCURVE",
"396 372 OFFCURVE",
"395 376 CURVE",
"392 386 OFFCURVE",
"381 400 OFFCURVE",
"371 400 CURVE SMOOTH",
"340 400 OFFCURVE",
"253 326 OFFCURVE",
"176 246 CURVE",
"186 283 OFFCURVE",
"187 289 OFFCURVE",
"198 317 CURVE SMOOTH",
"208 346 OFFCURVE",
"214 363 OFFCURVE",
"213 367 CURVE",
"207 381 OFFCURVE",
"190 395 OFFCURVE",
"176 395 CURVE SMOOTH",
"169 395 OFFCURVE",
"164 392 OFFCURVE",
"163 386 CURVE SMOOTH",
"148 319 OFFCURVE",
"127 228 OFFCURVE",
"105 152 CURVE",
"81 106 OFFCURVE",
"52 69 OFFCURVE",
"58 46 CURVE",
"58 39 OFFCURVE",
"79 1 OFFCURVE",
"89 1 CURVE SMOOTH",
"90 1 OFFCURVE",
"93 5 OFFCURVE",
"96 13 CURVE",
"119 76 OFFCURVE",
"121 88 OFFCURVE",
"146 145 CURVE",
"179 200 OFFCURVE",
"265 287 OFFCURVE",
"306 321 CURVE",
"315 326 OFFCURVE",
"321 321 OFFCURVE",
"321 313 CURVE SMOOTH",
"321 286 OFFCURVE",
"245 129 OFFCURVE",
"249 52 CURVE SMOOTH",
"250 8 OFFCURVE",
"278 -12 OFFCURVE",
"318 -12 CURVE SMOOTH",
"438 -12 OFFCURVE",
"557 120 OFFCURVE",
"614 238 CURVE"
);
}
);
width = 484;
}
);
note = n;
unicode = 006E;
},
{
glyphname = o;
lastChange = "2017-12-19 08:22:40 +0000";
layers = (
{
layerId = "0B1DFD06-3317-40CA-B510-4969A0718C16";
paths = (
{
closed = 1;
nodes = (
"630 314 OFFCURVE",
"593 333 OFFCURVE",
"589 324 CURVE",
"564 276 OFFCURVE",
"509 236 OFFCURVE",
"463 236 CURVE SMOOTH",
"387 236 OFFCURVE",
"353 311 OFFCURVE",
"350 389 CURVE SMOOTH",
"349 409 OFFCURVE",
"353 431 OFFCURVE",
"358 444 CURVE SMOOTH",
"362 453 OFFCURVE",
"349 458 OFFCURVE",
"344 453 CURVE",
"336 449 OFFCURVE",
"322 447 OFFCURVE",
"312 444 CURVE",
"289 439 OFFCURVE",
"292 408 OFFCURVE",
"288 389 CURVE",
"156 386 OFFCURVE",
"50 240 OFFCURVE",
"56 90 CURVE SMOOTH",
"57 37 OFFCURVE",
"90 -12 OFFCURVE",
"152 -12 CURVE SMOOTH",
"286 -12 OFFCURVE",
"331 157 OFFCURVE",
"344 251 CURVE",
"376 212 OFFCURVE",
"420 198 OFFCURVE",
"459 198 CURVE SMOOTH",
"534 198 OFFCURVE",
"591 251 OFFCURVE",
"620 305 CURVE"
);
},
{
closed = 1;
nodes = (
"312 245 OFFCURVE",
"248 38 OFFCURVE",
"165 38 CURVE SMOOTH",
"134 38 OFFCURVE",
"125 84 OFFCURVE",
"125 108 CURVE",
"121 209 OFFCURVE",
"202 355 OFFCURVE",
"288 355 CURVE SMOOTH",
"293 355 OFFCURVE",
"295 352 OFFCURVE",
"295 346 CURVE",
"301 319 OFFCURVE",
"302 322 OFFCURVE",
"306 312 CURVE"
);
}
);
width = 451;
}
);
note = o;
unicode = 006F;
},
{
glyphname = p;
lastChange = "2017-12-19 08:22:40 +0000";
layers = (
{
layerId = "0B1DFD06-3317-40CA-B510-4969A0718C16";
paths = (
{
closed = 1;
nodes = (
"572 275 OFFCURVE",
"545 300 OFFCURVE",
"541 293 CURVE SMOOTH",
"452 129 OFFCURVE",
"262 58 OFFCURVE",
"164 39 CURVE",
"331 124 OFFCURVE",
"382 245 OFFCURVE",
"378 317 CURVE",
"378 355 OFFCURVE",
"342 392 OFFCURVE",
"314 392 CURVE SMOOTH",
"292 392 OFFCURVE",
"224 365 OFFCURVE",
"199 327 CURVE",
"237 412 OFFCURVE",
"269 459 OFFCURVE",
"333 539 CURVE",
"334 543 OFFCURVE",
"334 545 OFFCURVE",
"333 547 CURVE",
"333 553 OFFCURVE",
"331 556 OFFCURVE",
"325 556 CURVE SMOOTH",
"322 556 OFFCURVE",
"268 549 OFFCURVE",
"258 545 CURVE",
"252 541 OFFCURVE",
"243 533 OFFCURVE",
"238 528 CURVE",
"180 424 OFFCURVE",
"130 287 OFFCURVE",
"82 163 CURVE SMOOTH",
"32 38 LINE",
"23 37 OFFCURVE",
"1 30 OFFCURVE",
"6 15 CURVE",
"8 5 OFFCURVE",
"13 -2 OFFCURVE",
"21 -5 CURVE",
"-73 -278 OFFCURVE",
"-79 -283 OFFCURVE",
"-126 -417 CURVE",
"-177 -544 OFFCURVE",
"-207 -580 OFFCURVE",
"-318 -627 CURVE",
"-332 -632 OFFCURVE",
"-325 -647 OFFCURVE",
"-311 -641 CURVE SMOOTH",
"-202 -597 OFFCURVE",
"-121 -601 OFFCURVE",
"-102 -545 CURVE SMOOTH",
"-12 -294 OFFCURVE",
"-30 -273 OFFCURVE",
"71 -5 CURVE",
"271 11 OFFCURVE",
"462 68 OFFCURVE",
"575 267 CURVE"
);
},
{
closed = 1;
nodes = (
"107 109 OFFCURVE",
"129 164 OFFCURVE",
"154 221 CURVE SMOOTH",
"192 303 OFFCURVE",
"262 334 OFFCURVE",
"282 334 CURVE SMOOTH",
"300 334 OFFCURVE",
"314 322 OFFCURVE",
"314 307 CURVE",
"318 223 OFFCURVE",
"223 80 OFFCURVE",
"82 38 CURVE"
);
}
);
width = 424;
}
);
note = p;
unicode = 0070;
},
{
glyphname = q;
lastChange = "2017-12-19 08:22:40 +0000";
layers = (
{
layerId = "0B1DFD06-3317-40CA-B510-4969A0718C16";
paths = (
{
closed = 1;
nodes = (
"595 227 OFFCURVE",
"568 268 OFFCURVE",
"560 255 CURVE",
"428 164 OFFCURVE",
"334 101 OFFCURVE",
"253 49 CURVE",
"307 179 OFFCURVE",
"364 303 OFFCURVE",
"377 336 CURVE",
"396 334 OFFCURVE",
"420 319 OFFCURVE",
"438 290 CURVE",
"451 294 OFFCURVE",
"472 315 OFFCURVE",
"474 333 CURVE",
"455 356 OFFCURVE",
"426 372 OFFCURVE",
"393 376 CURVE",
"402 405 OFFCURVE",
"406 406 OFFCURVE",
"419 436 CURVE",
"421 439 OFFCURVE",
"421 443 OFFCURVE",
"420 444 CURVE",
"417 455 OFFCURVE",
"389 458 OFFCURVE",
"378 458 CURVE SMOOTH",
"357 458 OFFCURVE",
"359 431 OFFCURVE",
"340 388 CURVE",
"315 388 OFFCURVE",
"290 388 OFFCURVE",
"265 380 CURVE",
"145 346 OFFCURVE",
"18 139 OFFCURVE",
"42 43 CURVE SMOOTH",
"49 11 OFFCURVE",
"68 -6 OFFCURVE",
"99 -6 CURVE SMOOTH",
"140 -6 OFFCURVE",
"174 20 OFFCURVE",
"208 57 CURVE",
"203 43 OFFCURVE",
"200 26 OFFCURVE",
"192 8 CURVE",
"186 5 OFFCURVE",
"180 2 OFFCURVE",
"176 -1 CURVE",
"180 -5 OFFCURVE",
"180 -10 OFFCURVE",
"183 -13 CURVE",
"130 -163 OFFCURVE",
"2 -414 OFFCURVE",
"2 -487 CURVE SMOOTH",
"4 -528 OFFCURVE",
"36 -541 OFFCURVE",
"55 -541 CURVE SMOOTH",
"218 -541 OFFCURVE",
"336 -190 OFFCURVE",
"226 -15 CURVE",
"227 -14 OFFCURVE",
"228 -12 OFFCURVE",
"228 -10 CURVE",
"337 61 OFFCURVE",
"389 88 OFFCURVE",
"587 221 CURVE SMOOTH"
);
},
{
closed = 1;
nodes = (
"61 -486 OFFCURVE",
"56 -471 OFFCURVE",
"56 -458 CURVE SMOOTH",
"56 -419 OFFCURVE",
"142 -228 OFFCURVE",
"208 -60 CURVE",
"289 -244 OFFCURVE",
"143 -486 OFFCURVE",
"80 -486 CURVE SMOOTH"
);
},
{
closed = 1;
nodes = (
"277 221 OFFCURVE",
"258 201 OFFCURVE",
"224 144 CURVE SMOOTH",
"195 96 OFFCURVE",
"146 52 OFFCURVE",
"127 52 CURVE SMOOTH",
"119 52 OFFCURVE",
"111 57 OFFCURVE",
"107 68 CURVE",
"92 125 OFFCURVE",
"176 292 OFFCURVE",
"251 330 CURVE SMOOTH",
"270 339 OFFCURVE",
"298 350 OFFCURVE",
"325 342 CURVE"
);
}
);
width = 459;
}
);
note = q;
unicode = 0071;
},
{
glyphname = r;
lastChange = "2017-12-19 08:22:40 +0000";
layers = (
{
layerId = "0B1DFD06-3317-40CA-B510-4969A0718C16";
paths = (
{
closed = 1;
nodes = (
"395 377 OFFCURVE",
"374 389 OFFCURVE",
"353 389 CURVE SMOOTH",
"293 389 OFFCURVE",
"205 301 OFFCURVE",
"167 253 CURVE",
"165 252 OFFCURVE",
"162 251 OFFCURVE",
"158 251 CURVE SMOOTH",
"155 251 OFFCURVE",
"198 351 OFFCURVE",
"198 357 CURVE",
"192 380 OFFCURVE",
"162 392 OFFCURVE",
"157 392 CURVE SMOOTH",
"154 392 OFFCURVE",
"150 386 OFFCURVE",
"148 375 CURVE SMOOTH",
"138 334 OFFCURVE",
"83 186 OFFCURVE",
"36 52 CURVE",
"30 39 OFFCURVE",
"29 29 OFFCURVE",
"32 20 CURVE",
"32 12 OFFCURVE",
"60 -7 OFFCURVE",
"64 -7 CURVE SMOOTH",
"69 -7 OFFCURVE",
"73 -6 OFFCURVE",
"75 -2 CURVE",
"113 104 OFFCURVE",
"117 154 OFFCURVE",
"189 236 CURVE SMOOTH",
"211 259 OFFCURVE",
"280 314 OFFCURVE",
"311 314 CURVE SMOOTH",
"358 314 OFFCURVE",
"353 289 OFFCURVE",
"358 289 CURVE SMOOTH",
"361 289 OFFCURVE",
"363 290 OFFCURVE",
"365 294 CURVE",
"369 307 OFFCURVE",
"389 349 OFFCURVE",
"399 364 CURVE"
);
}
);
width = 367;
}
);
note = r;
unicode = 0072;
},
{
glyphname = s;
lastChange = "2017-12-19 08:22:40 +0000";
layers = (
{
layerId = "0B1DFD06-3317-40CA-B510-4969A0718C16";
paths = (
{
closed = 1;
nodes = (
"284 319 OFFCURVE",
"294 356 OFFCURVE",
"295 367 CURVE",
"293 378 OFFCURVE",
"248 399 OFFCURVE",
"228 399 CURVE SMOOTH",
"162 399 OFFCURVE",
"95 344 OFFCURVE",
"99 282 CURVE SMOOTH",
"102 225 OFFCURVE",
"207 144 OFFCURVE",
"211 92 CURVE",
"211 64 OFFCURVE",
"182 25 OFFCURVE",
"130 25 CURVE SMOOTH",
"86 25 OFFCURVE",
"35 49 OFFCURVE",
"1 109 CURVE",
"-13 101 OFFCURVE",
"-35 74 OFFCURVE",
"-33 58 CURVE",
"-4 17 OFFCURVE",
"54 -17 OFFCURVE",
"117 -17 CURVE SMOOTH",
"206 -17 OFFCURVE",
"265 40 OFFCURVE",
"262 107 CURVE SMOOTH",
"258 174 OFFCURVE",
"154 236 OFFCURVE",
"150 299 CURVE SMOOTH",
"149 331 OFFCURVE",
"179 357 OFFCURVE",
"208 357 CURVE SMOOTH",
"232 357 OFFCURVE",
"259 321 OFFCURVE",
"273 306 CURVE SMOOTH",
"277 300 OFFCURVE",
"280 300 OFFCURVE",
"280 308 CURVE"
);
}
);
width = 331;
}
);
note = s;
unicode = 0073;
},
{
glyphname = t;
lastChange = "2017-12-19 08:22:40 +0000";
layers = (
{
layerId = "0B1DFD06-3317-40CA-B510-4969A0718C16";
paths = (
{
closed = 1;
nodes = (
"365 644 OFFCURVE",
"355 664 OFFCURVE",
"350 664 CURVE",
"318 653 OFFCURVE",
"268 631 OFFCURVE",
"244 618 CURVE",
"215 547 OFFCURVE",
"184 453 OFFCURVE",
"152 381 CURVE",
"62 378 LINE",
"54 370 OFFCURVE",
"42 346 OFFCURVE",
"38 338 CURVE",
"40 333 OFFCURVE",
"45 331 OFFCURVE",
"51 331 CURVE SMOOTH",
"55 331 OFFCURVE",
"65 332 OFFCURVE",
"86 333 CURVE",
"106 337 OFFCURVE",
"123 337 OFFCURVE",
"137 338 CURVE",
"93 224 OFFCURVE",
"73 144 OFFCURVE",
"76 92 CURVE SMOOTH",
"80 29 OFFCURVE",
"123 -10 OFFCURVE",
"170 -10 CURVE SMOOTH",
"243 -10 OFFCURVE",
"337 46 OFFCURVE",
"411 98 CURVE",
"417 104 OFFCURVE",
"394 137 OFFCURVE",
"388 131 CURVE",
"339 99 OFFCURVE",
"234 39 OFFCURVE",
"196 39 CURVE SMOOTH",
"154 39 OFFCURVE",
"136 58 OFFCURVE",
"132 105 CURVE",
"131 162 OFFCURVE",
"161 243 OFFCURVE",
"193 342 CURVE",
"265 347 OFFCURVE",
"389 352 OFFCURVE",
"428 352 CURVE",
"432 353 OFFCURVE",
"438 368 OFFCURVE",
"438 371 CURVE",
"437 375 OFFCURVE",
"433 378 OFFCURVE",
"430 381 CURVE",
"208 381 LINE",
"237 464 OFFCURVE",
"258 521 OFFCURVE",
"294 599 CURVE SMOOTH",
"302 618 OFFCURVE",
"338 634 OFFCURVE",
"357 639 CURVE"
);
}
);
width = 353;
}
);
note = t;
unicode = 0074;
},
{
glyphname = u;
lastChange = "2017-12-19 08:22:40 +0000";
layers = (
{
layerId = "0B1DFD06-3317-40CA-B510-4969A0718C16";
paths = (
{
closed = 1;
nodes = (
"590 237 OFFCURVE",
"563 250 OFFCURVE",
"557 248 CURVE",
"477 95 OFFCURVE",
"377 35 OFFCURVE",
"327 35 CURVE SMOOTH",
"303 35 OFFCURVE",
"286 51 OFFCURVE",
"284 88 CURVE SMOOTH",
"281 182 OFFCURVE",
"325 228 OFFCURVE",
"361 300 CURVE",
"370 327 OFFCURVE",
"340 378 OFFCURVE",
"322 378 CURVE SMOOTH",
"319 378 OFFCURVE",
"315 375 OFFCURVE",
"313 367 CURVE",
"300 328 OFFCURVE",
"287 294 OFFCURVE",
"261 217 CURVE",
"226 131 OFFCURVE",
"170 52 OFFCURVE",
"146 52 CURVE SMOOTH",
"133 52 OFFCURVE",
"121 57 OFFCURVE",
"115 75 CURVE",
"115 119 OFFCURVE",
"148 227 OFFCURVE",
"195 342 CURVE SMOOTH",
"200 352 OFFCURVE",
"202 359 OFFCURVE",
"202 363 CURVE SMOOTH",
"202 375 OFFCURVE",
"165 399 OFFCURVE",
"156 399 CURVE SMOOTH",
"151 399 OFFCURVE",
"146 393 OFFCURVE",
"143 381 CURVE SMOOTH",
"73 164 OFFCURVE",
"55 88 OFFCURVE",
"58 49 CURVE",
"69 17 OFFCURVE",
"88 0 OFFCURVE",
"118 0 CURVE SMOOTH",
"173 0 OFFCURVE",
"221 68 OFFCURVE",
"238 100 CURVE",
"237 90 OFFCURVE",
"237 81 OFFCURVE",
"237 71 CURVE",
"240 25 OFFCURVE",
"265 -12 OFFCURVE",
"322 -12 CURVE SMOOTH",
"433 -12 OFFCURVE",
"536 114 OFFCURVE",
"593 228 CURVE"
);
}
);
width = 459;
}
);
note = u;
unicode = 0075;
},
{
glyphname = v;
lastChange = "2017-12-19 08:22:40 +0000";
layers = (
{
layerId = "0B1DFD06-3317-40CA-B510-4969A0718C16";
paths = (
{
closed = 1;
nodes = (
"340 440 OFFCURVE",
"361 387 OFFCURVE",
"361 343 CURVE",
"367 220 OFFCURVE",
"268 93 OFFCURVE",
"180 58 CURVE",
"175 55 OFFCURVE",
"171 61 OFFCURVE",
"176 65 CURVE",
"203 90 OFFCURVE",
"207 118 OFFCURVE",
"213 159 CURVE SMOOTH",
"217 182 OFFCURVE",
"195 288 OFFCURVE",
"208 339 CURVE",
"212 357 OFFCURVE",
"225 369 OFFCURVE",
"233 375 CURVE",
"237 378 OFFCURVE",
"234 402 OFFCURVE",
"230 406 CURVE",
"192 396 OFFCURVE",
"127 382 OFFCURVE",
"82 372 CURVE",
"74 363 OFFCURVE",
"79 338 OFFCURVE",
"82 334 CURVE",
"131 350 LINE",
"145 353 OFFCURVE",
"152 349 OFFCURVE",
"154 336 CURVE",
"155 302 OFFCURVE",
"151 231 OFFCURVE",
"156 164 CURVE SMOOTH",
"162 64 OFFCURVE",
"123 32 OFFCURVE",
"79 36 CURVE",
"74 36 OFFCURVE",
"74 29 OFFCURVE",
"75 24 CURVE",
"109 -5 LINE",
"209 -1 OFFCURVE",
"420 145 OFFCURVE",
"414 331 CURVE SMOOTH",
"411 394 OFFCURVE",
"383 450 OFFCURVE",
"325 456 CURVE SMOOTH",
"311 457 OFFCURVE",
"312 453 OFFCURVE",
"317 452 CURVE"
);
}
);
width = 421;
}
);
note = v;
unicode = 0076;
},
{
glyphname = w;
lastChange = "2017-12-19 08:22:40 +0000";
layers = (
{
layerId = "0B1DFD06-3317-40CA-B510-4969A0718C16";
paths = (
{
closed = 1;
nodes = (
"841 356 OFFCURVE",
"831 393 OFFCURVE",
"823 389 CURVE SMOOTH",
"783 370 OFFCURVE",
"699 363 OFFCURVE",
"649 363 CURVE SMOOTH",
"532 363 OFFCURVE",
"539 389 OFFCURVE",
"527 389 CURVE SMOOTH",
"518 389 OFFCURVE",
"487 374 OFFCURVE",
"472 374 CURVE",
"466 371 OFFCURVE",
"466 368 OFFCURVE",
"474 363 CURVE",
"516 363 OFFCURVE",
"534 276 OFFCURVE",
"538 224 CURVE SMOOTH",
"541 120 OFFCURVE",
"489 36 OFFCURVE",
"426 36 CURVE SMOOTH",
"387 36 OFFCURVE",
"357 50 OFFCURVE",
"330 115 CURVE",
"431 195 OFFCURVE",
"438 269 OFFCURVE",
"434 311 CURVE",
"434 334 OFFCURVE",
"422 382 OFFCURVE",
"389 382 CURVE SMOOTH",
"351 382 OFFCURVE",
"306 356 OFFCURVE",
"296 343 CURVE",
"270 301 OFFCURVE",
"255 219 OFFCURVE",
"274 136 CURVE",
"224 89 OFFCURVE",
"169 48 OFFCURVE",
"143 48 CURVE SMOOTH",
"120 48 OFFCURVE",
"107 65 OFFCURVE",
"106 86 CURVE SMOOTH",
"102 152 OFFCURVE",
"155 259 OFFCURVE",
"200 337 CURVE",
"218 357 OFFCURVE",
"243 362 OFFCURVE",
"243 367 CURVE SMOOTH",
"243 370 OFFCURVE",
"238 382 OFFCURVE",
"233 382 CURVE",
"175 367 LINE",
"164 362 OFFCURVE",
"154 347 OFFCURVE",
"148 339 CURVE",
"115 298 OFFCURVE",
"52 163 OFFCURVE",
"56 76 CURVE SMOOTH",
"57 35 OFFCURVE",
"86 0 OFFCURVE",
"127 0 CURVE SMOOTH",
"194 0 OFFCURVE",
"249 42 OFFCURVE",
"288 83 CURVE",
"315 20 OFFCURVE",
"374 -12 OFFCURVE",
"427 -12 CURVE SMOOTH",
"537 -12 OFFCURVE",
"588 84 OFFCURVE",
"583 238 CURVE SMOOTH",
"582 262 OFFCURVE",
"578 286 OFFCURVE",
"574 309 CURVE",
"572 320 OFFCURVE",
"565 330 OFFCURVE",
"576 328 CURVE SMOOTH",
"633 322 OFFCURVE",
"716 325 OFFCURVE",
"826 352 CURVE SMOOTH"
);
},
{
closed = 1;
nodes = (
"300 270 OFFCURVE",
"338 336 OFFCURVE",
"364 336 CURVE SMOOTH",
"380 336 OFFCURVE",
"388 321 OFFCURVE",
"389 292 CURVE",
"389 253 OFFCURVE",
"383 226 OFFCURVE",
"315 162 CURVE"
);
}
);
width = 684;
}
);
note = w;
unicode = 0077;
},
{
glyphname = x;
lastChange = "2017-12-19 08:22:40 +0000";
layers = (
{
layerId = "0B1DFD06-3317-40CA-B510-4969A0718C16";
paths = (
{
closed = 1;
nodes = (
"389 82 OFFCURVE",
"331 35 OFFCURVE",
"280 35 CURVE SMOOTH",
"223 35 OFFCURVE",
"196 94 OFFCURVE",
"181 180 CURVE",
"242 242 OFFCURVE",
"313 293 OFFCURVE",
"384 334 CURVE",
"389 344 OFFCURVE",
"390 378 OFFCURVE",
"387 388 CURVE",
"386 392 OFFCURVE",
"383 393 OFFCURVE",
"380 393 CURVE SMOOTH",
"372 393 OFFCURVE",
"263 322 OFFCURVE",
"168 227 CURVE",
"159 289 OFFCURVE",
"158 325 OFFCURVE",
"176 382 CURVE",
"180 387 OFFCURVE",
"170 396 OFFCURVE",
"169 392 CURVE",
"157 382 OFFCURVE",
"148 375 OFFCURVE",
"139 371 CURVE",
"130 368 OFFCURVE",
"125 357 OFFCURVE",
"124 339 CURVE",
"115 296 OFFCURVE",
"118 251 OFFCURVE",
"129 188 CURVE",
"-75 -13 OFFCURVE",
"-142 -275 OFFCURVE",
"-100 -377 CURVE SMOOTH",
"-89 -406 OFFCURVE",
"-60 -438 OFFCURVE",
"-18 -465 CURVE",
"-82 -363 OFFCURVE",
"-48 -56 OFFCURVE",
"140 129 CURVE",
"162 40 OFFCURVE",
"181 -11 OFFCURVE",
"267 -11 CURVE SMOOTH",
"361 -11 OFFCURVE",
"431 73 OFFCURVE",
"463 114 CURVE",
"463 123 OFFCURVE",
"432 144 OFFCURVE",
"426 138 CURVE"
);
}
);
width = 470;
}
);
note = x;
unicode = 0078;
},
{
glyphname = y;
lastChange = "2017-12-19 08:22:40 +0000";
layers = (
{
layerId = "0B1DFD06-3317-40CA-B510-4969A0718C16";
paths = (
{
closed = 1;
nodes = (
"152 0 OFFCURVE",
"192 31 OFFCURVE",
"214 54 CURVE SMOOTH",
"215 55 OFFCURVE",
"224 61 OFFCURVE",
"219 51 CURVE",
"99 -300 OFFCURVE",
"-49 -433 OFFCURVE",
"-278 -433 CURVE SMOOTH",
"-392 -433 OFFCURVE",
"-446 -376 OFFCURVE",
"-470 -289 CURVE",
"-491 -380 OFFCURVE",
"-426 -503 OFFCURVE",
"-263 -503 CURVE SMOOTH",
"74 -503 OFFCURVE",
"213 -124 OFFCURVE",
"284 82 CURVE SMOOTH",
"317 173 OFFCURVE",
"363 274 OFFCURVE",
"396 364 CURVE",
"393 383 OFFCURVE",
"368 406 OFFCURVE",
"352 411 CURVE",
"337 411 OFFCURVE",
"324 371 OFFCURVE",
"306 319 CURVE SMOOTH",
"271 213 OFFCURVE",
"257 157 OFFCURVE",
"242 137 CURVE",
"221 113 OFFCURVE",
"157 48 OFFCURVE",
"126 48 CURVE SMOOTH",
"99 48 OFFCURVE",
"94 63 OFFCURVE",
"93 81 CURVE",
"93 117 OFFCURVE",
"146 265 OFFCURVE",
"198 387 CURVE",
"198 392 OFFCURVE",
"195 394 OFFCURVE",
"190 394 CURVE SMOOTH",
"186 394 OFFCURVE",
"155 394 OFFCURVE",
"142 390 CURVE",
"137 386 OFFCURVE",
"130 382 OFFCURVE",
"126 369 CURVE",
"79 251 OFFCURVE",
"36 115 OFFCURVE",
"39 63 CURVE SMOOTH",
"40 30 OFFCURVE",
"63 0 OFFCURVE",
"105 0 CURVE SMOOTH"
);
}
);
width = 414;
}
);
note = y;
unicode = 0079;
},
{
glyphname = z;
lastChange = "2017-12-19 08:22:40 +0000";
layers = (
{
layerId = "0B1DFD06-3317-40CA-B510-4969A0718C16";
paths = (
{
closed = 1;
nodes = (
"1017 -67 OFFCURVE",
"982 -52 OFFCURVE",
"981 -54 CURVE",
"942 -163 OFFCURVE",
"862 -214 OFFCURVE",
"756 -214 CURVE SMOOTH",
"627 -214 OFFCURVE",
"431 -112 OFFCURVE",
"158 46 CURVE",
"143 57 OFFCURVE",
"138 64 OFFCURVE",
"146 69 CURVE",
"238 142 OFFCURVE",
"350 258 OFFCURVE",
"413 340 CURVE",
"422 356 OFFCURVE",
"376 378 OFFCURVE",
"370 369 CURVE",
"321 318 OFFCURVE",
"309 299 OFFCURVE",
"255 299 CURVE SMOOTH",
"203 299 OFFCURVE",
"175 311 OFFCURVE",
"174 362 CURVE",
"173 375 OFFCURVE",
"182 393 OFFCURVE",
"190 401 CURVE",
"187 406 OFFCURVE",
"173 422 OFFCURVE",
"168 422 CURVE",
"136 399 OFFCURVE",
"121 367 OFFCURVE",
"118 347 CURVE",
"131 273 OFFCURVE",
"174 255 OFFCURVE",
"206 255 CURVE SMOOTH",
"231 255 OFFCURVE",
"264 257 OFFCURVE",
"283 267 CURVE",
"288 267 OFFCURVE",
"290 264 OFFCURVE",
"292 259 CURVE",
"292 250 OFFCURVE",
"148 109 OFFCURVE",
"-1 24 CURVE",
"-21 14 OFFCURVE",
"26 -24 OFFCURVE",
"44 -14 CURVE",
"57 1 OFFCURVE",
"71 10 OFFCURVE",
"87 20 CURVE",
"96 29 OFFCURVE",
"99 25 OFFCURVE",
"109 20 CURVE",
"387 -142 OFFCURVE",
"550 -261 OFFCURVE",
"763 -261 CURVE SMOOTH",
"919 -261 OFFCURVE",
"1021 -169 OFFCURVE",
"1021 -75 CURVE"
);
}
);
width = 434;
}
);
note = z;
unicode = 007A;
},
{
glyphname = AE;
lastChange = "2017-12-19 08:27:54 +0000";
layers = (
{
layerId = "0B1DFD06-3317-40CA-B510-4969A0718C16";
paths = (
{
closed = 1;
nodes = (
"565 658 OFFCURVE",
"367 446 OFFCURVE",
"43 60 CURVE SMOOTH",
"5 17 OFFCURVE",
"-15 -10 OFFCURVE",
"-6 -49 CURVE",
"55 -129 LINE",
"58 -132 OFFCURVE",
"65 -127 OFFCURVE",
"69 -119 CURVE",
"61 -82 OFFCURVE",
"63 -70 OFFCURVE",
"73 -42 CURVE",
"109 39 OFFCURVE",
"188 154 OFFCURVE",
"317 302 CURVE",
"364 277 OFFCURVE",
"538 289 OFFCURVE",
"566 280 CURVE SMOOTH",
"609 267 OFFCURVE",
"619 246 OFFCURVE",
"625 224 CURVE",
"628 205 OFFCURVE",
"627 140 OFFCURVE",
"631 63 CURVE",
"631 20 OFFCURVE",
"658 -13 OFFCURVE",
"828 -13 CURVE SMOOTH",
"937 -13 OFFCURVE",
"1010 6 OFFCURVE",
"1110 31 CURVE",
"1131 37 OFFCURVE",
"1145 46 OFFCURVE",
"1151 60 CURVE",
"1154 71 OFFCURVE",
"1161 117 OFFCURVE",
"1173 129 CURVE",
"1171 136 OFFCURVE",
"1169 138 OFFCURVE",
"1165 134 CURVE",
"1079 58 OFFCURVE",
"921 32 OFFCURVE",
"802 32 CURVE SMOOTH",
"735 32 OFFCURVE",
"706 37 OFFCURVE",
"697 86 CURVE SMOOTH",
"683 167 OFFCURVE",
"689 248 OFFCURVE",
"685 339 CURVE",
"688 345 OFFCURVE",
"693 349 OFFCURVE",
"701 349 CURVE",
"749 352 OFFCURVE",
"941 349 OFFCURVE",
"1006 349 CURVE SMOOTH",
"1014 349 OFFCURVE",
"1017 351 OFFCURVE",
"1019 355 CURVE",
"1019 365 OFFCURVE",
"1031 399 OFFCURVE",
"1034 408 CURVE",
"1028 413 LINE",
"952 390 OFFCURVE",
"785 388 OFFCURVE",
"694 394 CURVE",
"681 394 OFFCURVE",
"681 399 OFFCURVE",
"681 408 CURVE",
"675 497 OFFCURVE",
"679 551 OFFCURVE",
"683 637 CURVE",
"683 652 OFFCURVE",
"697 653 OFFCURVE",
"715 653 CURVE SMOOTH",
"791 653 OFFCURVE",
"985 672 OFFCURVE",
"1053 653 CURVE",
"1061 650 OFFCURVE",
"1069 639 OFFCURVE",
"1073 626 CURVE",
"1085 625 LINE",
"1091 646 OFFCURVE",
"1106 695 OFFCURVE",
"1106 703 CURVE SMOOTH",
"1106 709 OFFCURVE",
"1102 713 OFFCURVE",
"1095 713 CURVE SMOOTH",
"1010 713 OFFCURVE",
"766 706 OFFCURVE",
"690 706 CURVE SMOOTH",
"682 706 OFFCURVE",
"676 708 OFFCURVE",
"665 712 CURVE",
"645 715 OFFCURVE",
"640 715 OFFCURVE",
"626 706 CURVE"
);
},
{
closed = 1;
nodes = (
"415 438 OFFCURVE",
"596 618 OFFCURVE",
"612 633 CURVE",
"626 646 OFFCURVE",
"627 632 OFFCURVE",
"627 628 CURVE SMOOTH",
"627 613 OFFCURVE",
"626 408 OFFCURVE",
"626 325 CURVE SMOOTH",
"626 311 OFFCURVE",
"626 303 OFFCURVE",
"602 309 CURVE SMOOTH",
"583 314 OFFCURVE",
"558 321 OFFCURVE",
"490 321 CURVE SMOOTH",
"389 321 OFFCURVE",
"358 325 OFFCURVE",
"350 344 CURVE"
);
}
);
width = 1165;
}
);
note = AE;
unicode = 00C6;
},
{
glyphname = Eth;
lastChange = "2017-12-19 08:28:03 +0000";
layers = (
{
layerId = "0B1DFD06-3317-40CA-B510-4969A0718C16";
paths = (
{
closed = 1;
nodes = (
"137 -5 LINE",
"161 20 OFFCURVE",
"170 36 OFFCURVE",
"188 36 CURVE SMOOTH",
"223 36 OFFCURVE",
"287 -13 OFFCURVE",
"417 -13 CURVE SMOOTH",
"669 -13 OFFCURVE",
"870 144 OFFCURVE",
"860 422 CURVE SMOOTH",
"851 659 OFFCURVE",
"663 707 OFFCURVE",
"470 707 CURVE SMOOTH",
"365 707 OFFCURVE",
"290 694 OFFCURVE",
"169 694 CURVE SMOOTH",
"139 694 OFFCURVE",
"101 713 OFFCURVE",
"98 713 CURVE SMOOTH",
"87 713 OFFCURVE",
"101 644 OFFCURVE",
"120 644 CURVE SMOOTH",
"188 645 OFFCURVE",
"249 665 OFFCURVE",
"317 665 CURVE SMOOTH",
"321 665 OFFCURVE",
"330 663 OFFCURVE",
"331 657 CURVE",
"321 608 OFFCURVE",
"284 495 OFFCURVE",
"246 380 CURVE",
"232 380 OFFCURVE",
"207 381 OFFCURVE",
"132 381 CURVE SMOOTH",
"123 381 OFFCURVE",
"115 351 OFFCURVE",
"115 343 CURVE",
"118 340 OFFCURVE",
"121 339 OFFCURVE",
"127 339 CURVE SMOOTH",
"134 339 OFFCURVE",
"189 346 OFFCURVE",
"236 346 CURVE",
"201 233 OFFCURVE",
"163 126 OFFCURVE",
"154 96 CURVE",
"144 74 OFFCURVE",
"111 33 OFFCURVE",
"92 5 CURVE"
);
},
{
closed = 1;
nodes = (
"409 670 OFFCURVE",
"425 670 OFFCURVE",
"450 670 CURVE SMOOTH",
"725 670 OFFCURVE",
"789 574 OFFCURVE",
"793 413 CURVE SMOOTH",
"802 188 OFFCURVE",
"621 30 OFFCURVE",
"414 30 CURVE SMOOTH",
"347 30 OFFCURVE",
"286 45 OFFCURVE",
"242 82 CURVE",
"227 93 OFFCURVE",
"224 107 OFFCURVE",
"230 124 CURVE",
"250 194 OFFCURVE",
"274 268 OFFCURVE",
"299 347 CURVE",
"375 347 OFFCURVE",
"394 350 OFFCURVE",
"507 350 CURVE SMOOTH",
"519 350 OFFCURVE",
"525 384 OFFCURVE",
"525 389 CURVE",
"524 393 OFFCURVE",
"519 395 OFFCURVE",
"512 395 CURVE SMOOTH",
"471 395 OFFCURVE",
"428 383 OFFCURVE",
"308 380 CURVE",
"340 471 OFFCURVE",
"369 564 OFFCURVE",
"401 651 CURVE"
);
}
);
width = 921;
}
);
note = Eth;
unicode = 00D0;
},
{
glyphname = Dcroat;
lastChange = "2017-12-19 08:28:08 +0000";
layers = (
{
layerId = "0B1DFD06-3317-40CA-B510-4969A0718C16";
paths = (
{
closed = 1;
nodes = (
"137 -5 LINE",
"161 20 OFFCURVE",
"170 36 OFFCURVE",
"188 36 CURVE SMOOTH",
"223 36 OFFCURVE",
"287 -13 OFFCURVE",
"417 -13 CURVE SMOOTH",
"669 -13 OFFCURVE",
"870 144 OFFCURVE",
"860 422 CURVE SMOOTH",
"851 659 OFFCURVE",
"663 707 OFFCURVE",
"470 707 CURVE SMOOTH",
"365 707 OFFCURVE",
"290 694 OFFCURVE",
"169 694 CURVE SMOOTH",
"139 694 OFFCURVE",
"101 713 OFFCURVE",
"98 713 CURVE SMOOTH",
"87 713 OFFCURVE",
"101 644 OFFCURVE",
"120 644 CURVE SMOOTH",
"188 645 OFFCURVE",
"249 665 OFFCURVE",
"317 665 CURVE SMOOTH",
"321 665 OFFCURVE",
"330 663 OFFCURVE",
"331 657 CURVE",
"321 608 OFFCURVE",
"284 495 OFFCURVE",
"246 380 CURVE",
"232 380 OFFCURVE",
"207 381 OFFCURVE",
"132 381 CURVE SMOOTH",
"123 381 OFFCURVE",
"115 351 OFFCURVE",
"115 343 CURVE",
"118 340 OFFCURVE",
"121 339 OFFCURVE",
"127 339 CURVE SMOOTH",
"134 339 OFFCURVE",
"189 346 OFFCURVE",
"236 346 CURVE",
"201 233 OFFCURVE",
"163 126 OFFCURVE",
"154 96 CURVE",
"144 74 OFFCURVE",
"111 33 OFFCURVE",
"92 5 CURVE"
);
},
{
closed = 1;
nodes = (
"409 670 OFFCURVE",
"425 670 OFFCURVE",
"450 670 CURVE SMOOTH",
"725 670 OFFCURVE",
"789 574 OFFCURVE",
"793 413 CURVE SMOOTH",
"802 188 OFFCURVE",
"621 30 OFFCURVE",
"414 30 CURVE SMOOTH",
"347 30 OFFCURVE",
"286 45 OFFCURVE",
"242 82 CURVE",
"227 93 OFFCURVE",
"224 107 OFFCURVE",
"230 124 CURVE",
"250 194 OFFCURVE",
"274 268 OFFCURVE",
"299 347 CURVE",
"375 347 OFFCURVE",
"394 350 OFFCURVE",
"507 350 CURVE SMOOTH",
"519 350 OFFCURVE",
"525 384 OFFCURVE",
"525 389 CURVE",
"524 393 OFFCURVE",
"519 395 OFFCURVE",
"512 395 CURVE SMOOTH",
"471 395 OFFCURVE",
"428 383 OFFCURVE",
"308 380 CURVE",
"340 471 OFFCURVE",
"369 564 OFFCURVE",
"401 651 CURVE"
);
}
);
width = 921;
}
);
note = Dcroat;
unicode = 0110;
},
{
glyphname = Eacute;
lastChange = "2017-12-19 05:21:12 +0000";
layers = (
{
background = {
paths = (
{
closed = 1;
nodes = (
"554 0 LINE",
"571 179 LINE",
"544 179 LINE",
"538 124 OFFCURVE",
"520 40 OFFCURVE",
"456 40 CURVE SMOOTH",
"201 40 LINE",
"201 659 LINE",
"441 659 LINE SMOOTH",
"516 659 OFFCURVE",
"525 567 OFFCURVE",
"528 527 CURVE",
"555 527 LINE",
"555 700 LINE",
"16 700 LINE",
"16 673 LINE",
"44 673 LINE SMOOTH",
"83 673 OFFCURVE",
"103 662 OFFCURVE",
"103 637 CURVE SMOOTH",
"103 62 LINE SMOOTH",
"103 37 OFFCURVE",
"83 26 OFFCURVE",
"44 26 CURVE SMOOTH",
"16 26 LINE",
"16 0 LINE"
);
},
{
closed = 1;
nodes = (
"455 251 LINE",
"455 485 LINE",
"431 485 LINE",
"427 436 OFFCURVE",
"424 388 OFFCURVE",
"379 388 CURVE SMOOTH",
"162 388 LINE",
"162 348 LINE",
"379 348 LINE SMOOTH",
"424 348 OFFCURVE",
"427 300 OFFCURVE",
"431 251 CURVE"
);
},
{
closed = 1;
nodes = (
"398 865 LINE SMOOTH",
"420 877 OFFCURVE",
"432 890 OFFCURVE",
"432 907 CURVE SMOOTH",
"432 922 OFFCURVE",
"420 937 OFFCURVE",
"398 937 CURVE SMOOTH",
"377 937 OFFCURVE",
"362 921 OFFCURVE",
"354 914 CURVE SMOOTH",
"239 807 LINE",
"256 782 LINE"
);
}
);
};
components = (
{
name = E;
},
{
name = acute;
transform = "{1, 0, 0, 1, 56, 230}";
}
);
layerId = "0B1DFD06-3317-40CA-B510-4969A0718C16";
width = 607;
}
);
note = Eacute;
unicode = 00C9;
},
{
glyphname = Ebreve;
lastChange = "2017-12-19 05:21:12 +0000";
layers = (
{
background = {
paths = (
{
closed = 1;
nodes = (
"554 0 LINE",
"571 179 LINE",
"544 179 LINE",
"538 124 OFFCURVE",
"520 40 OFFCURVE",
"456 40 CURVE SMOOTH",
"201 40 LINE",
"201 659 LINE",
"441 659 LINE SMOOTH",
"516 659 OFFCURVE",
"525 567 OFFCURVE",
"528 527 CURVE",
"555 527 LINE",
"555 700 LINE",
"16 700 LINE",
"16 673 LINE",
"44 673 LINE SMOOTH",
"83 673 OFFCURVE",
"103 662 OFFCURVE",
"103 637 CURVE SMOOTH",
"103 62 LINE SMOOTH",
"103 37 OFFCURVE",
"83 26 OFFCURVE",
"44 26 CURVE SMOOTH",
"16 26 LINE",
"16 0 LINE"
);
},
{
closed = 1;
nodes = (
"455 251 LINE",
"455 485 LINE",
"431 485 LINE",
"427 436 OFFCURVE",
"424 388 OFFCURVE",
"379 388 CURVE SMOOTH",
"162 388 LINE",
"162 348 LINE",
"379 348 LINE SMOOTH",
"424 348 OFFCURVE",
"427 300 OFFCURVE",
"431 251 CURVE"
);
},
{
closed = 1;
nodes = (
"432 776 OFFCURVE",
"474 832 OFFCURVE",
"478 907 CURVE",
"445 907 LINE",
"439 848 OFFCURVE",
"397 822 OFFCURVE",
"333 822 CURVE SMOOTH",
"269 822 OFFCURVE",
"226 848 OFFCURVE",
"219 907 CURVE",
"186 907 LINE",
"190 829 OFFCURVE",
"232 776 OFFCURVE",
"333 776 CURVE SMOOTH"
);
}
);
};
components = (
{
name = E;
},
{
name = breve;
transform = "{1, 0, 0, 1, 68, 230}";
}
);
layerId = "0B1DFD06-3317-40CA-B510-4969A0718C16";
width = 607;
}
);
note = Ebreve;
unicode = 0114;
},
{
glyphname = Ecaron;
lastChange = "2017-12-19 05:21:12 +0000";
layers = (
{
background = {
paths = (
{
closed = 1;
nodes = (
"554 0 LINE",
"571 179 LINE",
"544 179 LINE",
"538 124 OFFCURVE",
"520 40 OFFCURVE",
"456 40 CURVE SMOOTH",
"201 40 LINE",
"201 659 LINE",
"441 659 LINE SMOOTH",
"516 659 OFFCURVE",
"525 567 OFFCURVE",
"528 527 CURVE",
"555 527 LINE",
"555 700 LINE",
"16 700 LINE",
"16 673 LINE",
"44 673 LINE SMOOTH",
"83 673 OFFCURVE",
"103 662 OFFCURVE",
"103 637 CURVE SMOOTH",
"103 62 LINE SMOOTH",
"103 37 OFFCURVE",
"83 26 OFFCURVE",
"44 26 CURVE SMOOTH",
"16 26 LINE",
"16 0 LINE"
);
},
{
closed = 1;
nodes = (
"455 251 LINE",
"455 485 LINE",
"431 485 LINE",
"427 436 OFFCURVE",
"424 388 OFFCURVE",
"379 388 CURVE SMOOTH",
"162 388 LINE",
"162 348 LINE",
"379 348 LINE SMOOTH",
"424 348 OFFCURVE",
"427 300 OFFCURVE",
"431 251 CURVE"
);
},
{
closed = 1;
nodes = (
"357 782 LINE",
"481 911 LINE",
"462 932 LINE",
"354 847 LINE",
"346 840 OFFCURVE",
"337 836 OFFCURVE",
"331 836 CURVE SMOOTH",
"325 836 OFFCURVE",
"317 840 OFFCURVE",
"307 847 CURVE",
"199 932 LINE",
"180 911 LINE",
"304 782 LINE"
);
}
);
};
components = (
{
name = E;
},
{
name = caron;
transform = "{1, 0, 0, 1, 68, 230}";
}
);
layerId = "0B1DFD06-3317-40CA-B510-4969A0718C16";
width = 607;
}
);
note = Ecaron;
unicode = 011A;
},
{
glyphname = Ecircumflex;
lastChange = "2017-12-19 05:21:12 +0000";
layers = (
{
background = {
paths = (
{
closed = 1;
nodes = (
"554 0 LINE",
"571 179 LINE",
"544 179 LINE",
"538 124 OFFCURVE",
"520 40 OFFCURVE",
"456 40 CURVE SMOOTH",
"201 40 LINE",
"201 659 LINE",
"441 659 LINE SMOOTH",
"516 659 OFFCURVE",
"525 567 OFFCURVE",
"528 527 CURVE",
"555 527 LINE",
"555 700 LINE",
"16 700 LINE",
"16 673 LINE",
"44 673 LINE SMOOTH",
"83 673 OFFCURVE",
"103 662 OFFCURVE",
"103 637 CURVE SMOOTH",
"103 62 LINE SMOOTH",
"103 37 OFFCURVE",
"83 26 OFFCURVE",
"44 26 CURVE SMOOTH",
"16 26 LINE",
"16 0 LINE"
);
},
{
closed = 1;
nodes = (
"455 251 LINE",
"455 485 LINE",
"431 485 LINE",
"427 436 OFFCURVE",
"424 388 OFFCURVE",
"379 388 CURVE SMOOTH",
"162 388 LINE",
"162 348 LINE",
"379 348 LINE SMOOTH",
"424 348 OFFCURVE",
"427 300 OFFCURVE",
"431 251 CURVE"
);
},
{
closed = 1;
nodes = (
"304 868 LINE SMOOTH",
"312 874 OFFCURVE",
"322 879 OFFCURVE",
"328 879 CURVE SMOOTH",
"334 879 OFFCURVE",
"342 874 OFFCURVE",
"351 868 CURVE",
"459 782 LINE",
"478 803 LINE",
"354 932 LINE",
"301 932 LINE",
"177 803 LINE",
"196 782 LINE"
);
}
);
};
components = (
{
name = E;
},
{
name = circumflex;
transform = "{1, 0, 0, 1, 68, 230}";
}
);
layerId = "0B1DFD06-3317-40CA-B510-4969A0718C16";
width = 607;
}
);
note = Ecircumflex;
unicode = 00CA;
},
{
glyphname = Ecircumflexacute;
lastChange = "2017-12-19 05:21:12 +0000";
layers = (
{
background = {
paths = (
{
closed = 1;
nodes = (
"554 0 LINE",
"571 179 LINE",
"544 179 LINE",
"538 124 OFFCURVE",
"520 40 OFFCURVE",
"456 40 CURVE SMOOTH",
"201 40 LINE",
"201 659 LINE",
"441 659 LINE SMOOTH",
"516 659 OFFCURVE",
"525 567 OFFCURVE",
"528 527 CURVE",
"555 527 LINE",
"555 700 LINE",
"16 700 LINE",
"16 673 LINE",
"44 673 LINE SMOOTH",
"83 673 OFFCURVE",
"103 662 OFFCURVE",
"103 637 CURVE SMOOTH",
"103 62 LINE SMOOTH",
"103 37 OFFCURVE",
"83 26 OFFCURVE",
"44 26 CURVE SMOOTH",
"16 26 LINE",
"16 0 LINE"
);
},
{
closed = 1;
nodes = (
"455 251 LINE",
"455 485 LINE",
"431 485 LINE",
"427 436 OFFCURVE",
"424 388 OFFCURVE",
"379 388 CURVE SMOOTH",
"162 388 LINE",
"162 348 LINE",
"379 348 LINE SMOOTH",
"424 348 OFFCURVE",
"427 300 OFFCURVE",
"431 251 CURVE"
);
},
{
closed = 1;
nodes = (
"290 862 LINE SMOOTH",
"300 870 OFFCURVE",
"310 878 OFFCURVE",
"318 878 CURVE SMOOTH",
"324 878 OFFCURVE",
"332 873 OFFCURVE",
"341 867 CURVE",
"447 781 LINE",
"466 803 LINE",
"344 932 LINE",
"293 932 LINE",
"171 803 LINE",
"189 781 LINE"
);
},
{
closed = 1;
nodes = (
"555 960 LINE SMOOTH",
"578 972 OFFCURVE",
"591 988 OFFCURVE",
"591 1003 CURVE SMOOTH",
"591 1017 OFFCURVE",
"580 1034 OFFCURVE",
"557 1034 CURVE SMOOTH",
"538 1034 OFFCURVE",
"521 1018 OFFCURVE",
"511 1008 CURVE SMOOTH",
"415 915 LINE",
"433 893 LINE"
);
}
);
};
components = (
{
name = E;
},
{
name = circumflexacute;
transform = "{1, 0, 0, 1, 564, 230}";
}
);
layerId = "0B1DFD06-3317-40CA-B510-4969A0718C16";
width = 607;
}
);
note = Ecircumflexacute;
unicode = 1EBE;
},
{
glyphname = Ecircumflexdotbelow;
lastChange = "2017-12-19 05:21:12 +0000";
layers = (
{
background = {
paths = (
{
closed = 1;
nodes = (
"554 0 LINE",
"571 179 LINE",
"544 179 LINE",
"538 124 OFFCURVE",
"520 40 OFFCURVE",
"456 40 CURVE SMOOTH",
"201 40 LINE",
"201 659 LINE",
"441 659 LINE SMOOTH",
"516 659 OFFCURVE",
"525 567 OFFCURVE",
"528 527 CURVE",
"555 527 LINE",
"555 700 LINE",
"16 700 LINE",
"16 673 LINE",
"44 673 LINE SMOOTH",
"83 673 OFFCURVE",
"103 662 OFFCURVE",
"103 637 CURVE SMOOTH",
"103 62 LINE SMOOTH",
"103 37 OFFCURVE",
"83 26 OFFCURVE",
"44 26 CURVE SMOOTH",
"16 26 LINE",
"16 0 LINE"
);
},
{
closed = 1;
nodes = (
"350 -159 OFFCURVE",
"368 -140 OFFCURVE",
"368 -112 CURVE SMOOTH",
"368 -84 OFFCURVE",
"350 -64 OFFCURVE",
"322 -64 CURVE SMOOTH",
"294 -64 OFFCURVE",
"275 -84 OFFCURVE",
"275 -112 CURVE SMOOTH",
"275 -140 OFFCURVE",
"294 -159 OFFCURVE",
"322 -159 CURVE SMOOTH"
);
},
{
closed = 1;
nodes = (
"455 251 LINE",
"455 485 LINE",
"431 485 LINE",
"427 436 OFFCURVE",
"424 388 OFFCURVE",
"379 388 CURVE SMOOTH",
"162 388 LINE",
"162 348 LINE",
"379 348 LINE SMOOTH",
"424 348 OFFCURVE",
"427 300 OFFCURVE",
"431 251 CURVE"
);
},
{
closed = 1;
nodes = (
"294 868 LINE SMOOTH",
"302 874 OFFCURVE",
"312 879 OFFCURVE",
"318 879 CURVE SMOOTH",
"324 879 OFFCURVE",
"332 874 OFFCURVE",
"341 868 CURVE",
"449 782 LINE",
"468 803 LINE",
"344 932 LINE",
"291 932 LINE",
"167 803 LINE",
"186 782 LINE"
);
}
);
};
components = (
{
name = E;
},
{
name = dotbelowcomb;
transform = "{1, 0, 0, 1, 565, 0}";
},
{
name = circumflex;
transform = "{1, 0, 0, 1, 68, 230}";
}
);
layerId = "0B1DFD06-3317-40CA-B510-4969A0718C16";
width = 607;
}
);
note = Ecircumflexdotbelow;
unicode = 1EC6;
},
{
glyphname = Ecircumflexgrave;
lastChange = "2017-12-19 05:21:12 +0000";
layers = (
{
background = {
paths = (
{
closed = 1;
nodes = (
"554 0 LINE",
"571 179 LINE",
"544 179 LINE",
"538 124 OFFCURVE",
"520 40 OFFCURVE",
"456 40 CURVE SMOOTH",
"201 40 LINE",
"201 659 LINE",
"441 659 LINE SMOOTH",
"516 659 OFFCURVE",
"525 567 OFFCURVE",
"528 527 CURVE",
"555 527 LINE",
"555 700 LINE",
"16 700 LINE",
"16 673 LINE",
"44 673 LINE SMOOTH",
"83 673 OFFCURVE",
"103 662 OFFCURVE",
"103 637 CURVE SMOOTH",
"103 62 LINE SMOOTH",
"103 37 OFFCURVE",
"83 26 OFFCURVE",
"44 26 CURVE SMOOTH",
"16 26 LINE",
"16 0 LINE"
);
},
{
closed = 1;
nodes = (
"455 251 LINE",
"455 485 LINE",
"431 485 LINE",
"427 436 OFFCURVE",
"424 388 OFFCURVE",
"379 388 CURVE SMOOTH",
"162 388 LINE",
"162 348 LINE",
"379 348 LINE SMOOTH",
"424 348 OFFCURVE",
"427 300 OFFCURVE",
"431 251 CURVE"
);
},
{
closed = 1;
nodes = (
"227 915 LINE",
"132 1008 LINE SMOOTH",
"122 1018 OFFCURVE",
"105 1034 OFFCURVE",
"85 1034 CURVE SMOOTH",
"63 1034 OFFCURVE",
"52 1017 OFFCURVE",
"52 1003 CURVE SMOOTH",
"52 988 OFFCURVE",
"65 972 OFFCURVE",
"88 960 CURVE SMOOTH",
"210 893 LINE"
);
},
{
closed = 1;
nodes = (
"290 862 LINE SMOOTH",
"300 870 OFFCURVE",
"310 878 OFFCURVE",
"318 878 CURVE SMOOTH",
"324 878 OFFCURVE",
"332 873 OFFCURVE",
"341 867 CURVE",
"447 781 LINE",
"466 803 LINE",
"344 932 LINE",
"293 932 LINE",
"171 803 LINE",
"189 781 LINE"
);
}
);
};
components = (
{
name = E;
},
{
name = circumflexgrave;
transform = "{1, 0, 0, 1, 564, 230}";
}
);
layerId = "0B1DFD06-3317-40CA-B510-4969A0718C16";
width = 607;
}
);
note = Ecircumflexgrave;
unicode = 1EC0;
},
{
glyphname = Ecircumflexhookabove;
lastChange = "2017-12-19 05:21:12 +0000";
layers = (
{
background = {
paths = (
{
closed = 1;
nodes = (
"554 0 LINE",
"571 179 LINE",
"544 179 LINE",
"538 124 OFFCURVE",
"520 40 OFFCURVE",
"456 40 CURVE SMOOTH",
"201 40 LINE",
"201 659 LINE",
"441 659 LINE SMOOTH",
"516 659 OFFCURVE",
"525 567 OFFCURVE",
"528 527 CURVE",
"555 527 LINE",
"555 700 LINE",
"16 700 LINE",
"16 673 LINE",
"44 673 LINE SMOOTH",
"83 673 OFFCURVE",
"103 662 OFFCURVE",
"103 637 CURVE SMOOTH",
"103 62 LINE SMOOTH",
"103 37 OFFCURVE",
"83 26 OFFCURVE",
"44 26 CURVE SMOOTH",
"16 26 LINE",
"16 0 LINE"
);
},
{
closed = 1;
nodes = (
"455 251 LINE",
"455 485 LINE",
"431 485 LINE",
"427 436 OFFCURVE",
"424 388 OFFCURVE",
"379 388 CURVE SMOOTH",
"162 388 LINE",
"162 348 LINE",
"379 348 LINE SMOOTH",
"424 348 OFFCURVE",
"427 300 OFFCURVE",
"431 251 CURVE"
);
},
{
closed = 1;
nodes = (
"286 858 LINE",
"297 868 OFFCURVE",
"309 878 OFFCURVE",
"318 878 CURVE SMOOTH",
"324 878 OFFCURVE",
"332 873 OFFCURVE",
"341 867 CURVE",
"447 781 LINE",
"466 803 LINE",
"344 932 LINE",
"293 932 LINE",
"171 803 LINE",
"189 781 LINE"
);
},
{
closed = 1;
nodes = (
"493 898 LINE",
"474 905 OFFCURVE",
"464 912 OFFCURVE",
"464 926 CURVE SMOOTH",
"464 954 OFFCURVE",
"544 965 OFFCURVE",
"544 1010 CURVE SMOOTH",
"544 1047 OFFCURVE",
"502 1063 OFFCURVE",
"460 1063 CURVE SMOOTH",
"429 1063 OFFCURVE",
"384 1053 OFFCURVE",
"384 1022 CURVE SMOOTH",
"384 1010 OFFCURVE",
"395 1001 OFFCURVE",
"405 1001 CURVE SMOOTH",
"434 1001 OFFCURVE",
"421 1040 OFFCURVE",
"464 1040 CURVE SMOOTH",
"483 1040 OFFCURVE",
"494 1028 OFFCURVE",
"494 1013 CURVE SMOOTH",
"494 973 OFFCURVE",
"421 965 OFFCURVE",
"421 925 CURVE SMOOTH",
"421 901 OFFCURVE",
"437 880 OFFCURVE",
"484 880 CURVE"
);
}
);
};
components = (
{
name = E;
},
{
name = circumflexhookabove;
transform = "{1, 0, 0, 1, 564, 230}";
}
);
layerId = "0B1DFD06-3317-40CA-B510-4969A0718C16";
width = 607;
}
);
note = Ecircumflexhookabove;
unicode = 1EC2;
},
{
glyphname = Ecircumflextilde;
lastChange = "2017-12-19 05:21:12 +0000";
layers = (
{
background = {
paths = (
{
closed = 1;
nodes = (
"554 0 LINE",
"571 179 LINE",
"544 179 LINE",
"538 124 OFFCURVE",
"520 40 OFFCURVE",
"456 40 CURVE SMOOTH",
"201 40 LINE",
"201 659 LINE",
"441 659 LINE SMOOTH",
"516 659 OFFCURVE",
"525 567 OFFCURVE",
"528 527 CURVE",
"555 527 LINE",
"555 700 LINE",
"16 700 LINE",
"16 673 LINE",
"44 673 LINE SMOOTH",
"83 673 OFFCURVE",
"103 662 OFFCURVE",
"103 637 CURVE SMOOTH",
"103 62 LINE SMOOTH",
"103 37 OFFCURVE",
"83 26 OFFCURVE",
"44 26 CURVE SMOOTH",
"16 26 LINE",
"16 0 LINE"
);
},
{
closed = 1;
nodes = (
"455 251 LINE",
"455 485 LINE",
"431 485 LINE",
"427 436 OFFCURVE",
"424 388 OFFCURVE",
"379 388 CURVE SMOOTH",
"162 388 LINE",
"162 348 LINE",
"379 348 LINE SMOOTH",
"424 348 OFFCURVE",
"427 300 OFFCURVE",
"431 251 CURVE"
);
},
{
closed = 1;
nodes = (
"290 862 LINE SMOOTH",
"300 870 OFFCURVE",
"310 878 OFFCURVE",
"318 878 CURVE SMOOTH",
"324 878 OFFCURVE",
"332 873 OFFCURVE",
"341 867 CURVE",
"447 781 LINE",
"466 803 LINE",
"344 932 LINE",
"293 932 LINE",
"171 803 LINE",
"189 781 LINE"
);
},
{
closed = 1;
nodes = (
"193 997 OFFCURVE",
"211 1018 OFFCURVE",
"242 1018 CURVE SMOOTH",
"291 1018 OFFCURVE",
"338 964 OFFCURVE",
"387 964 CURVE SMOOTH",
"440 964 OFFCURVE",
"469 1012 OFFCURVE",
"481 1063 CURVE",
"460 1075 LINE",
"447 1035 OFFCURVE",
"431 1012 OFFCURVE",
"398 1012 CURVE SMOOTH",
"351 1012 OFFCURVE",
"302 1065 OFFCURVE",
"253 1065 CURVE SMOOTH",
"202 1065 OFFCURVE",
"170 1021 OFFCURVE",
"160 970 CURVE",
"180 958 LINE"
);
}
);
};
components = (
{
name = E;
},
{
name = circumflextilde;
transform = "{1, 0, 0, 1, 564, 230}";
}
);
layerId = "0B1DFD06-3317-40CA-B510-4969A0718C16";
width = 607;
}
);
note = Ecircumflextilde;
unicode = 1EC4;
},
{
glyphname = Edieresis;
lastChange = "2017-12-19 05:21:12 +0000";
layers = (
{
background = {
paths = (
{
closed = 1;
nodes = (
"554 0 LINE",
"571 179 LINE",
"544 179 LINE",
"538 124 OFFCURVE",
"520 40 OFFCURVE",
"456 40 CURVE SMOOTH",
"201 40 LINE",
"201 659 LINE",
"441 659 LINE SMOOTH",
"516 659 OFFCURVE",
"525 567 OFFCURVE",
"528 527 CURVE",
"555 527 LINE",
"555 700 LINE",
"16 700 LINE",
"16 673 LINE",
"44 673 LINE SMOOTH",
"83 673 OFFCURVE",
"103 662 OFFCURVE",
"103 637 CURVE SMOOTH",
"103 62 LINE SMOOTH",
"103 37 OFFCURVE",
"83 26 OFFCURVE",
"44 26 CURVE SMOOTH",
"16 26 LINE",
"16 0 LINE"
);
},
{
closed = 1;
nodes = (
"455 251 LINE",
"455 485 LINE",
"431 485 LINE",
"427 436 OFFCURVE",
"424 388 OFFCURVE",
"379 388 CURVE SMOOTH",
"162 388 LINE",
"162 348 LINE",
"379 348 LINE SMOOTH",
"424 348 OFFCURVE",
"427 300 OFFCURVE",
"431 251 CURVE"
);
},
{
closed = 1;
nodes = (
"254 781 OFFCURVE",
"272 800 OFFCURVE",
"272 827 CURVE SMOOTH",
"272 855 OFFCURVE",
"254 875 OFFCURVE",
"225 875 CURVE SMOOTH",
"197 875 OFFCURVE",
"179 855 OFFCURVE",
"179 827 CURVE SMOOTH",
"179 800 OFFCURVE",
"197 781 OFFCURVE",
"225 781 CURVE SMOOTH"
);
},
{
closed = 1;
nodes = (
"470 781 OFFCURVE",
"488 800 OFFCURVE",
"488 827 CURVE SMOOTH",
"488 855 OFFCURVE",
"470 875 OFFCURVE",
"441 875 CURVE SMOOTH",
"412 875 OFFCURVE",
"394 855 OFFCURVE",
"394 827 CURVE SMOOTH",
"394 800 OFFCURVE",
"412 781 OFFCURVE",
"441 781 CURVE SMOOTH"
);
}
);
};
components = (
{
name = E;
},
{
name = dieresis;
transform = "{1, 0, 0, 1, 68, 230}";
}
);
layerId = "0B1DFD06-3317-40CA-B510-4969A0718C16";
width = 607;
}
);
note = Edieresis;
unicode = 00CB;
},
{
glyphname = Edotaccent;
lastChange = "2017-12-19 05:21:12 +0000";
layers = (
{
background = {
paths = (
{
closed = 1;
nodes = (
"554 0 LINE",
"571 179 LINE",
"544 179 LINE",
"538 124 OFFCURVE",
"520 40 OFFCURVE",
"456 40 CURVE SMOOTH",
"201 40 LINE",
"201 659 LINE",
"441 659 LINE SMOOTH",
"516 659 OFFCURVE",
"525 567 OFFCURVE",
"528 527 CURVE",
"555 527 LINE",
"555 700 LINE",
"16 700 LINE",
"16 673 LINE",
"44 673 LINE SMOOTH",
"83 673 OFFCURVE",
"103 662 OFFCURVE",
"103 637 CURVE SMOOTH",
"103 62 LINE SMOOTH",
"103 37 OFFCURVE",
"83 26 OFFCURVE",
"44 26 CURVE SMOOTH",
"16 26 LINE",
"16 0 LINE"
);
},
{
closed = 1;
nodes = (
"455 251 LINE",
"455 485 LINE",
"431 485 LINE",
"427 436 OFFCURVE",
"424 388 OFFCURVE",
"379 388 CURVE SMOOTH",
"162 388 LINE",
"162 348 LINE",
"379 348 LINE SMOOTH",
"424 348 OFFCURVE",
"427 300 OFFCURVE",
"431 251 CURVE"
);
},
{
closed = 1;
nodes = (
"362 765 OFFCURVE",
"380 784 OFFCURVE",
"380 811 CURVE SMOOTH",
"380 839 OFFCURVE",
"362 858 OFFCURVE",
"334 858 CURVE SMOOTH",
"305 858 OFFCURVE",
"287 839 OFFCURVE",
"287 811 CURVE SMOOTH",
"287 784 OFFCURVE",
"305 765 OFFCURVE",
"334 765 CURVE SMOOTH"
);
}
);
};
components = (
{
name = E;
},
{
name = dotaccent;
transform = "{1, 0, 0, 1, 68, 230}";
}
);
layerId = "0B1DFD06-3317-40CA-B510-4969A0718C16";
width = 607;
}
);
note = Edotaccent;
unicode = 0116;
},
{
glyphname = Edotbelow;
lastChange = "2017-12-19 05:21:12 +0000";
layers = (
{
background = {
paths = (
{
closed = 1;
nodes = (
"554 0 LINE",
"571 179 LINE",
"544 179 LINE",
"538 124 OFFCURVE",
"520 40 OFFCURVE",
"456 40 CURVE SMOOTH",
"201 40 LINE",
"201 659 LINE",
"441 659 LINE SMOOTH",
"516 659 OFFCURVE",
"525 567 OFFCURVE",
"528 527 CURVE",
"555 527 LINE",
"555 700 LINE",
"16 700 LINE",
"16 673 LINE",
"44 673 LINE SMOOTH",
"83 673 OFFCURVE",
"103 662 OFFCURVE",
"103 637 CURVE SMOOTH",
"103 62 LINE SMOOTH",
"103 37 OFFCURVE",
"83 26 OFFCURVE",
"44 26 CURVE SMOOTH",
"16 26 LINE",
"16 0 LINE"
);
},
{
closed = 1;
nodes = (
"343 -159 OFFCURVE",
"361 -140 OFFCURVE",
"361 -112 CURVE SMOOTH",
"361 -84 OFFCURVE",
"343 -64 OFFCURVE",
"315 -64 CURVE SMOOTH",
"287 -64 OFFCURVE",
"268 -84 OFFCURVE",
"268 -112 CURVE SMOOTH",
"268 -140 OFFCURVE",
"287 -159 OFFCURVE",
"315 -159 CURVE SMOOTH"
);
},
{
closed = 1;
nodes = (
"455 251 LINE",
"455 485 LINE",
"431 485 LINE",
"427 436 OFFCURVE",
"424 388 OFFCURVE",
"379 388 CURVE SMOOTH",
"162 388 LINE",
"162 348 LINE",
"379 348 LINE SMOOTH",
"424 348 OFFCURVE",
"427 300 OFFCURVE",
"431 251 CURVE"
);
}
);
};
components = (
{
name = E;
},
{
name = dotbelowcomb;
transform = "{1, 0, 0, 1, 565, 0}";
}
);
layerId = "0B1DFD06-3317-40CA-B510-4969A0718C16";
width = 607;
}
);
note = Edotbelow;
unicode = 1EB8;
},
{
glyphname = Egrave;
lastChange = "2017-12-19 05:21:12 +0000";
layers = (
{
background = {
paths = (
{
closed = 1;
nodes = (
"554 0 LINE",
"571 179 LINE",
"544 179 LINE",
"538 124 OFFCURVE",
"520 40 OFFCURVE",
"456 40 CURVE SMOOTH",
"201 40 LINE",
"201 659 LINE",
"441 659 LINE SMOOTH",
"516 659 OFFCURVE",
"525 567 OFFCURVE",
"528 527 CURVE",
"555 527 LINE",
"555 700 LINE",
"16 700 LINE",
"16 673 LINE",
"44 673 LINE SMOOTH",
"83 673 OFFCURVE",
"103 662 OFFCURVE",
"103 637 CURVE SMOOTH",
"103 62 LINE SMOOTH",
"103 37 OFFCURVE",
"83 26 OFFCURVE",
"44 26 CURVE SMOOTH",
"16 26 LINE",
"16 0 LINE"
);
},
{
closed = 1;
nodes = (
"455 251 LINE",
"455 485 LINE",
"431 485 LINE",
"427 436 OFFCURVE",
"424 388 OFFCURVE",
"379 388 CURVE SMOOTH",
"162 388 LINE",
"162 348 LINE",
"379 348 LINE SMOOTH",
"424 348 OFFCURVE",
"427 300 OFFCURVE",
"431 251 CURVE"
);
},
{
closed = 1;
nodes = (
"425 807 LINE",
"310 913 LINE",
"301 922 OFFCURVE",
"285 937 OFFCURVE",
"265 937 CURVE SMOOTH",
"245 937 OFFCURVE",
"233 924 OFFCURVE",
"233 908 CURVE SMOOTH",
"233 890 OFFCURVE",
"245 876 OFFCURVE",
"264 865 CURVE SMOOTH",
"407 782 LINE"
);
}
);
};
components = (
{
name = E;
},
{
name = grave;
transform = "{1, 0, 0, 1, 68, 230}";
}
);
layerId = "0B1DFD06-3317-40CA-B510-4969A0718C16";
width = 607;
}
);
note = Egrave;
unicode = 00C8;
},
{
glyphname = Ehookabove;
lastChange = "2017-12-19 05:21:12 +0000";
layers = (
{
background = {
paths = (
{
closed = 1;
nodes = (
"554 0 LINE",
"571 179 LINE",
"544 179 LINE",
"538 124 OFFCURVE",
"520 40 OFFCURVE",
"456 40 CURVE SMOOTH",
"201 40 LINE",
"201 659 LINE",
"441 659 LINE SMOOTH",
"516 659 OFFCURVE",
"525 567 OFFCURVE",
"528 527 CURVE",
"555 527 LINE",
"555 700 LINE",
"16 700 LINE",
"16 673 LINE",
"44 673 LINE SMOOTH",
"83 673 OFFCURVE",
"103 662 OFFCURVE",
"103 637 CURVE SMOOTH",
"103 62 LINE SMOOTH",
"103 37 OFFCURVE",
"83 26 OFFCURVE",
"44 26 CURVE SMOOTH",
"16 26 LINE",
"16 0 LINE"
);
},
{
closed = 1;
nodes = (
"455 251 LINE",
"455 485 LINE",
"431 485 LINE",
"427 436 OFFCURVE",
"424 388 OFFCURVE",
"379 388 CURVE SMOOTH",
"162 388 LINE",
"162 348 LINE",
"379 348 LINE SMOOTH",
"424 348 OFFCURVE",
"427 300 OFFCURVE",
"431 251 CURVE"
);
},
{
closed = 1;
nodes = (
"367 798 LINE",
"348 805 OFFCURVE",
"336 811 OFFCURVE",
"336 828 CURVE SMOOTH",
"336 861 OFFCURVE",
"425 876 OFFCURVE",
"425 927 CURVE SMOOTH",
"425 969 OFFCURVE",
"389 991 OFFCURVE",
"336 991 CURVE SMOOTH",
"289 991 OFFCURVE",
"248 974 OFFCURVE",
"248 940 CURVE SMOOTH",
"248 923 OFFCURVE",
"256 915 OFFCURVE",
"271 915 CURVE SMOOTH",
"294 915 OFFCURVE",
"296 934 OFFCURVE",
"299 942 CURVE SMOOTH",
"304 956 OFFCURVE",
"321 962 OFFCURVE",
"337 962 CURVE SMOOTH",
"358 962 OFFCURVE",
"371 947 OFFCURVE",
"371 930 CURVE SMOOTH",
"371 885 OFFCURVE",
"289 874 OFFCURVE",
"289 828 CURVE SMOOTH",
"289 801 OFFCURVE",
"307 778 OFFCURVE",
"358 778 CURVE"
);
}
);
};
components = (
{
name = E;
},
{
name = hookabovecomb;
transform = "{1, 0, 0, 1, 565, 230}";
}
);
layerId = "0B1DFD06-3317-40CA-B510-4969A0718C16";
width = 607;
}
);
note = Ehookabove;
unicode = 1EBA;
},
{
glyphname = Emacron;
lastChange = "2017-12-19 05:21:12 +0000";
layers = (
{
background = {
paths = (
{
closed = 1;
nodes = (
"554 0 LINE",
"571 179 LINE",
"544 179 LINE",
"538 124 OFFCURVE",
"520 40 OFFCURVE",
"456 40 CURVE SMOOTH",
"201 40 LINE",
"201 659 LINE",
"441 659 LINE SMOOTH",
"516 659 OFFCURVE",
"525 567 OFFCURVE",
"528 527 CURVE",
"555 527 LINE",
"555 700 LINE",
"16 700 LINE",
"16 673 LINE",
"44 673 LINE SMOOTH",
"83 673 OFFCURVE",
"103 662 OFFCURVE",
"103 637 CURVE SMOOTH",
"103 62 LINE SMOOTH",
"103 37 OFFCURVE",
"83 26 OFFCURVE",
"44 26 CURVE SMOOTH",
"16 26 LINE",
"16 0 LINE"
);
},
{
closed = 1;
nodes = (
"455 251 LINE",
"455 485 LINE",
"431 485 LINE",
"427 436 OFFCURVE",
"424 388 OFFCURVE",
"379 388 CURVE SMOOTH",
"162 388 LINE",
"162 348 LINE",
"379 348 LINE SMOOTH",
"424 348 OFFCURVE",
"427 300 OFFCURVE",
"431 251 CURVE"
);
},
{
closed = 1;
nodes = (
"495 782 LINE",
"495 824 LINE",
"162 824 LINE",
"162 782 LINE"
);
}
);
};
components = (
{
name = E;
},
{
name = macron;
transform = "{1, 0, 0, 1, 68, 230}";
}
);
layerId = "0B1DFD06-3317-40CA-B510-4969A0718C16";
width = 607;
}
);
note = Emacron;
unicode = 0112;
},
{
glyphname = Eogonek;
lastChange = "2017-12-19 05:21:12 +0000";
layers = (
{
background = {
paths = (
{
closed = 1;
nodes = (
"554 0 LINE",
"571 179 LINE",
"544 179 LINE",
"538 124 OFFCURVE",
"520 40 OFFCURVE",
"456 40 CURVE SMOOTH",
"201 40 LINE",
"201 659 LINE",
"441 659 LINE SMOOTH",
"516 659 OFFCURVE",
"525 567 OFFCURVE",
"528 527 CURVE",
"555 527 LINE",
"555 700 LINE",
"16 700 LINE",
"16 673 LINE",
"44 673 LINE SMOOTH",
"83 673 OFFCURVE",
"103 662 OFFCURVE",
"103 637 CURVE SMOOTH",
"103 62 LINE SMOOTH",
"103 37 OFFCURVE",
"83 26 OFFCURVE",
"44 26 CURVE SMOOTH",
"16 26 LINE",
"16 0 LINE"
);
},
{
closed = 1;
nodes = (
"496 -196 OFFCURVE",
"524 -189 OFFCURVE",
"549 -172 CURVE",
"543 -152 LINE",
"527 -158 OFFCURVE",
"510 -162 OFFCURVE",
"497 -162 CURVE SMOOTH",
"464 -162 OFFCURVE",
"437 -146 OFFCURVE",
"437 -106 CURVE SMOOTH",
"437 -66 OFFCURVE",
"464 -26 OFFCURVE",
"510 4 CURVE",
"469 4 LINE",
"416 -22 OFFCURVE",
"376 -64 OFFCURVE",
"376 -114 CURVE SMOOTH",
"376 -147 OFFCURVE",
"395 -196 OFFCURVE",
"470 -196 CURVE SMOOTH"
);
},
{
closed = 1;
nodes = (
"455 251 LINE",
"455 485 LINE",
"431 485 LINE",
"427 436 OFFCURVE",
"424 388 OFFCURVE",
"379 388 CURVE SMOOTH",
"162 388 LINE",
"162 348 LINE",
"379 348 LINE SMOOTH",
"424 348 OFFCURVE",
"427 300 OFFCURVE",
"431 251 CURVE"
);
}
);
};
components = (
{
name = E;
},
{
name = ogonek;
transform = "{1, 0, 0, 1, 256, 0}";
}
);
layerId = "0B1DFD06-3317-40CA-B510-4969A0718C16";
width = 607;
}
);
note = Eogonek;
unicode = 0118;
},
{
glyphname = Etilde;
lastChange = "2017-12-19 05:21:12 +0000";
layers = (
{
background = {
paths = (
{
closed = 1;
nodes = (
"554 0 LINE",
"571 179 LINE",
"544 179 LINE",
"538 124 OFFCURVE",
"520 40 OFFCURVE",
"456 40 CURVE SMOOTH",
"201 40 LINE",
"201 659 LINE",
"441 659 LINE SMOOTH",
"516 659 OFFCURVE",
"525 567 OFFCURVE",
"528 527 CURVE",
"555 527 LINE",
"555 700 LINE",
"16 700 LINE",
"16 673 LINE",
"44 673 LINE SMOOTH",
"83 673 OFFCURVE",
"103 662 OFFCURVE",
"103 637 CURVE SMOOTH",
"103 62 LINE SMOOTH",
"103 37 OFFCURVE",
"83 26 OFFCURVE",
"44 26 CURVE SMOOTH",
"16 26 LINE",
"16 0 LINE"
);
},
{
closed = 1;
nodes = (
"455 251 LINE",
"455 485 LINE",
"431 485 LINE",
"427 436 OFFCURVE",
"424 388 OFFCURVE",
"379 388 CURVE SMOOTH",
"162 388 LINE",
"162 348 LINE",
"379 348 LINE SMOOTH",
"424 348 OFFCURVE",
"427 300 OFFCURVE",
"431 251 CURVE"
);
},
{
closed = 1;
nodes = (
"190 817 OFFCURVE",
"208 838 OFFCURVE",
"241 838 CURVE SMOOTH",
"292 838 OFFCURVE",
"341 784 OFFCURVE",
"392 784 CURVE SMOOTH",
"450 784 OFFCURVE",
"480 832 OFFCURVE",
"492 884 CURVE",
"471 895 LINE",
"455 855 OFFCURVE",
"439 833 OFFCURVE",
"405 833 CURVE SMOOTH",
"356 833 OFFCURVE",
"304 886 OFFCURVE",
"253 886 CURVE SMOOTH",
"199 886 OFFCURVE",
"166 842 OFFCURVE",
"154 790 CURVE",
"176 779 LINE"
);
}
);
};
components = (
{
name = E;
},
{
name = tilde;
transform = "{1, 0, 0, 1, 68, 230}";
}
);
layerId = "0B1DFD06-3317-40CA-B510-4969A0718C16";
width = 607;
}
);
note = Etilde;
unicode = 1EBC;
},
{
glyphname = Hbar;
lastChange = "2017-12-19 05:21:12 +0000";
layers = (
{
components = (
{
name = H;
}
);
layerId = "0B1DFD06-3317-40CA-B510-4969A0718C16";
paths = (
{
closed = 1;
nodes = (
"719 504 LINE",
"719 544 LINE",
"43 544 LINE",
"43 504 LINE"
);
}
);
width = 773;
}
);
note = Hbar;
unicode = 0126;
},
{
color = 0;
glyphname = IJ;
lastChange = "2017-12-19 05:22:42 +0000";
layers = (
{
layerId = "0B1DFD06-3317-40CA-B510-4969A0718C16";
paths = (
{
closed = 1;
nodes = (
"472 -114 OFFCURVE",
"561 -45 OFFCURVE",
"561 89 CURVE SMOOTH",
"561 637 LINE SMOOTH",
"561 662 OFFCURVE",
"581 673 OFFCURVE",
"619 673 CURVE SMOOTH",
"649 673 LINE",
"649 700 LINE",
"376 700 LINE",
"376 673 LINE",
"405 673 LINE SMOOTH",
"444 673 OFFCURVE",
"463 662 OFFCURVE",
"463 637 CURVE SMOOTH",
"463 90 LINE SMOOTH",
"463 -8 OFFCURVE",
"424 -75 OFFCURVE",
"339 -93 CURVE",
"343 -114 LINE"
);
},
{
closed = 1;
nodes = (
"298 0 LINE",
"298 26 LINE",
"270 26 LINE SMOOTH",
"231 26 OFFCURVE",
"211 37 OFFCURVE",
"211 62 CURVE SMOOTH",
"211 637 LINE SMOOTH",
"211 662 OFFCURVE",
"231 673 OFFCURVE",
"270 673 CURVE SMOOTH",
"298 673 LINE",
"298 700 LINE",
"26 700 LINE",
"26 673 LINE",
"55 673 LINE SMOOTH",
"93 673 OFFCURVE",
"113 662 OFFCURVE",
"113 637 CURVE SMOOTH",
"113 62 LINE SMOOTH",
"113 37 OFFCURVE",
"93 26 OFFCURVE",
"55 26 CURVE SMOOTH",
"26 26 LINE",
"26 0 LINE"
);
}
);
width = 675;
}
);
note = IJ;
rightKerningGroup = J;
unicode = 0132;
},
{
glyphname = Lslash;
lastChange = "2017-12-19 08:28:20 +0000";
layers = (
{
layerId = "0B1DFD06-3317-40CA-B510-4969A0718C16";
paths = (
{
closed = 1;
nodes = (
"179 303 OFFCURVE",
"211 321 OFFCURVE",
"271 342 CURVE",
"224 184 OFFCURVE",
"156 37 OFFCURVE",
"25 37 CURVE SMOOTH",
"17 37 OFFCURVE",
"14 33 OFFCURVE",
"15 27 CURVE",
"18 19 OFFCURVE",
"27 -13 OFFCURVE",
"37 -13 CURVE",
"161 20 OFFCURVE",
"506 44 OFFCURVE",
"640 -4 CURVE",
"653 -7 OFFCURVE",
"656 -24 OFFCURVE",
"656 -33 CURVE",
"660 -37 OFFCURVE",
"665 -38 OFFCURVE",
"669 -38 CURVE",
"676 -20 OFFCURVE",
"672 42 OFFCURVE",
"672 51 CURVE",
"669 64 OFFCURVE",
"659 71 OFFCURVE",
"641 74 CURVE",
"526 96 OFFCURVE",
"293 55 OFFCURVE",
"186 55 CURVE SMOOTH",
"177 55 OFFCURVE",
"179 62 OFFCURVE",
"182 65 CURVE",
"225 90 OFFCURVE",
"282 226 OFFCURVE",
"326 358 CURVE",
"437 393 OFFCURVE",
"497 408 OFFCURVE",
"501 405 CURVE SMOOTH",
"502 403 OFFCURVE",
"505 403 OFFCURVE",
"508 403 CURVE SMOOTH",
"515 403 OFFCURVE",
"507 438 OFFCURVE",
"491 438 CURVE",
"337 393 LINE",
"369 491 OFFCURVE",
"393 583 OFFCURVE",
"406 625 CURVE",
"414 657 OFFCURVE",
"455 685 OFFCURVE",
"494 685 CURVE SMOOTH",
"519 685 OFFCURVE",
"533 683 OFFCURVE",
"547 679 CURVE",
"552 682 OFFCURVE",
"552 720 OFFCURVE",
"539 724 CURVE",
"483 724 OFFCURVE",
"427 715 OFFCURVE",
"386 697 CURVE",
"376 694 OFFCURVE",
"364 688 OFFCURVE",
"361 675 CURVE",
"336 607 OFFCURVE",
"313 491 OFFCURVE",
"281 376 CURVE",
"192 350 OFFCURVE",
"171 338 OFFCURVE",
"152 338 CURVE SMOOTH",
"151 338 OFFCURVE",
"150 337 OFFCURVE",
"148 334 CURVE",
"148 330 OFFCURVE",
"164 303 OFFCURVE",
"180 303 CURVE"
);
}
);
width = 785;
}
);
note = Lslash;
unicode = 0141;
},
{
glyphname = Nacute;
lastChange = "2017-12-19 05:21:12 +0000";
layers = (
{
background = {
paths = (
{
closed = 1;
nodes = (
"247 0 LINE",
"247 26 LINE",
"217 26 LINE SMOOTH",
"179 26 OFFCURVE",
"159 37 OFFCURVE",
"159 62 CURVE SMOOTH",
"159 642 LINE",
"587 0 LINE",
"645 0 LINE",
"645 637 LINE SMOOTH",
"645 662 OFFCURVE",
"665 673 OFFCURVE",
"703 673 CURVE SMOOTH",
"733 673 LINE",
"733 700 LINE",
"508 700 LINE",
"508 673 LINE",
"537 673 LINE SMOOTH",
"576 673 OFFCURVE",
"595 662 OFFCURVE",
"595 637 CURVE SMOOTH",
"595 126 LINE",
"217 700 LINE",
"22 700 LINE",
"22 673 LINE",
"51 673 LINE SMOOTH",
"90 673 OFFCURVE",
"109 662 OFFCURVE",
"109 637 CURVE SMOOTH",
"109 62 LINE SMOOTH",
"109 37 OFFCURVE",
"90 26 OFFCURVE",
"51 26 CURVE SMOOTH",
"22 26 LINE",
"22 0 LINE"
);
},
{
closed = 1;
nodes = (
"458 865 LINE SMOOTH",
"480 877 OFFCURVE",
"492 890 OFFCURVE",
"492 907 CURVE SMOOTH",
"492 922 OFFCURVE",
"480 937 OFFCURVE",
"458 937 CURVE SMOOTH",
"437 937 OFFCURVE",
"422 921 OFFCURVE",
"414 914 CURVE SMOOTH",
"299 807 LINE",
"316 782 LINE"
);
}
);
};
components = (
{
name = N;
},
{
name = acute;
transform = "{1, 0, 0, 1, 120, 230}";
}
);
layerId = "0B1DFD06-3317-40CA-B510-4969A0718C16";
width = 755;
}
);
note = Nacute;
unicode = 0143;
},
{
glyphname = Ncaron;
lastChange = "2017-12-19 05:21:12 +0000";
layers = (
{
background = {
paths = (
{
closed = 1;
nodes = (
"247 0 LINE",
"247 26 LINE",
"217 26 LINE SMOOTH",
"179 26 OFFCURVE",
"159 37 OFFCURVE",
"159 62 CURVE SMOOTH",
"159 642 LINE",
"587 0 LINE",
"645 0 LINE",
"645 637 LINE SMOOTH",
"645 662 OFFCURVE",
"665 673 OFFCURVE",
"703 673 CURVE SMOOTH",
"733 673 LINE",
"733 700 LINE",
"508 700 LINE",
"508 673 LINE",
"537 673 LINE SMOOTH",
"576 673 OFFCURVE",
"595 662 OFFCURVE",
"595 637 CURVE SMOOTH",
"595 126 LINE",
"217 700 LINE",
"22 700 LINE",
"22 673 LINE",
"51 673 LINE SMOOTH",
"90 673 OFFCURVE",
"109 662 OFFCURVE",
"109 637 CURVE SMOOTH",
"109 62 LINE SMOOTH",
"109 37 OFFCURVE",
"90 26 OFFCURVE",
"51 26 CURVE SMOOTH",
"22 26 LINE",
"22 0 LINE"
);
},
{
closed = 1;
nodes = (
"403 782 LINE",
"527 911 LINE",
"508 932 LINE",
"400 847 LINE",
"392 840 OFFCURVE",
"383 836 OFFCURVE",
"377 836 CURVE SMOOTH",
"371 836 OFFCURVE",
"363 840 OFFCURVE",
"353 847 CURVE",
"245 932 LINE",
"226 911 LINE",
"350 782 LINE"
);
}
);
};
components = (
{
name = N;
},
{
name = caron;
transform = "{1, 0, 0, 1, 132, 230}";
}
);
layerId = "0B1DFD06-3317-40CA-B510-4969A0718C16";
width = 755;
}
);
note = Ncaron;
unicode = 0147;
},
{
glyphname = Ncommaaccent;
lastChange = "2017-12-19 05:21:12 +0000";
layers = (
{
background = {
paths = (
{
closed = 1;
nodes = (
"247 0 LINE",
"247 26 LINE",
"217 26 LINE SMOOTH",
"179 26 OFFCURVE",
"159 37 OFFCURVE",
"159 62 CURVE SMOOTH",
"159 642 LINE",
"587 0 LINE",
"645 0 LINE",
"645 637 LINE SMOOTH",
"645 662 OFFCURVE",
"665 673 OFFCURVE",
"703 673 CURVE SMOOTH",
"733 673 LINE",
"733 700 LINE",
"508 700 LINE",
"508 673 LINE",
"537 673 LINE SMOOTH",
"576 673 OFFCURVE",
"595 662 OFFCURVE",
"595 637 CURVE SMOOTH",
"595 126 LINE",
"217 700 LINE",
"22 700 LINE",
"22 673 LINE",
"51 673 LINE SMOOTH",
"90 673 OFFCURVE",
"109 662 OFFCURVE",
"109 637 CURVE SMOOTH",
"109 62 LINE SMOOTH",
"109 37 OFFCURVE",
"90 26 OFFCURVE",
"51 26 CURVE SMOOTH",
"22 26 LINE",
"22 0 LINE"
);
},
{
closed = 1;
nodes = (
"369 -258 OFFCURVE",
"413 -198 OFFCURVE",
"413 -135 CURVE SMOOTH",
"413 -87 OFFCURVE",
"389 -67 OFFCURVE",
"360 -67 CURVE SMOOTH",
"331 -67 OFFCURVE",
"314 -87 OFFCURVE",
"314 -111 CURVE SMOOTH",
"314 -145 OFFCURVE",
"349 -152 OFFCURVE",
"349 -187 CURVE SMOOTH",
"349 -223 OFFCURVE",
"323 -256 OFFCURVE",
"296 -282 CURVE",
"313 -299 LINE"
);
}
);
};
components = (
{
name = N;
},
{
name = commaaccentcomb;
}
);
layerId = "0B1DFD06-3317-40CA-B510-4969A0718C16";
width = 707;
}
);
note = Ncommaaccent;
unicode = 0145;
},
{
glyphname = Ndotaccent;
lastChange = "2017-12-19 05:21:12 +0000";
layers = (
{
background = {
paths = (
{
closed = 1;
nodes = (
"247 0 LINE",
"247 26 LINE",
"217 26 LINE SMOOTH",
"179 26 OFFCURVE",
"159 37 OFFCURVE",
"159 62 CURVE SMOOTH",
"159 642 LINE",
"587 0 LINE",
"645 0 LINE",
"645 637 LINE SMOOTH",
"645 662 OFFCURVE",
"665 673 OFFCURVE",
"703 673 CURVE SMOOTH",
"733 673 LINE",
"733 700 LINE",
"508 700 LINE",
"508 673 LINE",
"537 673 LINE SMOOTH",
"576 673 OFFCURVE",
"595 662 OFFCURVE",
"595 637 CURVE SMOOTH",
"595 126 LINE",
"217 700 LINE",
"22 700 LINE",
"22 673 LINE",
"51 673 LINE SMOOTH",
"90 673 OFFCURVE",
"109 662 OFFCURVE",
"109 637 CURVE SMOOTH",
"109 62 LINE SMOOTH",
"109 37 OFFCURVE",
"90 26 OFFCURVE",
"51 26 CURVE SMOOTH",
"22 26 LINE",
"22 0 LINE"
);
},
{
closed = 1;
nodes = (
"405 765 OFFCURVE",
"423 784 OFFCURVE",
"423 811 CURVE SMOOTH",
"423 839 OFFCURVE",
"405 858 OFFCURVE",
"377 858 CURVE SMOOTH",
"348 858 OFFCURVE",
"330 839 OFFCURVE",
"330 811 CURVE SMOOTH",
"330 784 OFFCURVE",
"348 765 OFFCURVE",
"377 765 CURVE SMOOTH"
);
}
);
};
components = (
{
name = N;
},
{
name = dotaccent;
transform = "{1, 0, 0, 1, 132, 230}";
}
);
layerId = "0B1DFD06-3317-40CA-B510-4969A0718C16";
width = 755;
}
);
note = Ndotaccent;
unicode = 1E44;
},
{
glyphname = Ndotbelow;
lastChange = "2017-12-19 05:21:12 +0000";
layers = (
{
background = {
paths = (
{
closed = 1;
nodes = (
"247 0 LINE",
"247 26 LINE",
"217 26 LINE SMOOTH",
"179 26 OFFCURVE",
"159 37 OFFCURVE",
"159 62 CURVE SMOOTH",
"159 642 LINE",
"587 0 LINE",
"645 0 LINE",
"645 637 LINE SMOOTH",
"645 662 OFFCURVE",
"665 673 OFFCURVE",
"703 673 CURVE SMOOTH",
"733 673 LINE",
"733 700 LINE",
"508 700 LINE",
"508 673 LINE",
"537 673 LINE SMOOTH",
"576 673 OFFCURVE",
"595 662 OFFCURVE",
"595 637 CURVE SMOOTH",
"595 126 LINE",
"217 700 LINE",
"22 700 LINE",
"22 673 LINE",
"51 673 LINE SMOOTH",
"90 673 OFFCURVE",
"109 662 OFFCURVE",
"109 637 CURVE SMOOTH",
"109 62 LINE SMOOTH",
"109 37 OFFCURVE",
"90 26 OFFCURVE",
"51 26 CURVE SMOOTH",
"22 26 LINE",
"22 0 LINE"
);
},
{
closed = 1;
nodes = (
"415 -159 OFFCURVE",
"433 -140 OFFCURVE",
"433 -112 CURVE SMOOTH",
"433 -84 OFFCURVE",
"415 -64 OFFCURVE",
"387 -64 CURVE SMOOTH",
"359 -64 OFFCURVE",
"340 -84 OFFCURVE",
"340 -112 CURVE SMOOTH",
"340 -140 OFFCURVE",
"359 -159 OFFCURVE",
"387 -159 CURVE SMOOTH"
);
}
);
};
components = (
{
name = N;
},
{
name = dotbelowcomb;
transform = "{1, 0, 0, 1, 629, 0}";
}
);
layerId = "0B1DFD06-3317-40CA-B510-4969A0718C16";
width = 755;
}
);
note = uni1E46;
unicode = 1E46;
},
{
color = 0;
glyphname = Eng;
lastChange = "2017-12-19 05:23:35 +0000";
layers = (
{
background = {
paths = (
{
closed = 1;
nodes = (
"592 -259 OFFCURVE",
"645 -182 OFFCURVE",
"645 -36 CURVE SMOOTH",
"645 637 LINE SMOOTH",
"645 662 OFFCURVE",
"665 673 OFFCURVE",
"703 673 CURVE SMOOTH",
"733 673 LINE",
"733 700 LINE",
"508 700 LINE",
"508 673 LINE",
"537 673 LINE SMOOTH",
"576 673 OFFCURVE",
"595 662 OFFCURVE",
"595 637 CURVE SMOOTH",
"595 125 LINE",
"219 700 LINE",
"22 700 LINE",
"22 673 LINE",
"51 673 LINE SMOOTH",
"90 673 OFFCURVE",
"109 662 OFFCURVE",
"109 637 CURVE SMOOTH",
"109 62 LINE SMOOTH",
"109 37 OFFCURVE",
"93 26 OFFCURVE",
"51 26 CURVE SMOOTH",
"22 26 LINE",
"22 0 LINE",
"247 0 LINE",
"247 26 LINE",
"217 26 LINE SMOOTH",
"179 26 OFFCURVE",
"159 37 OFFCURVE",
"159 62 CURVE SMOOTH",
"159 647 LINE",
"586 0 LINE",
"586 -76 LINE SMOOTH",
"586 -173 OFFCURVE",
"510 -238 OFFCURVE",
"423 -243 CURVE",
"427 -268 LINE"
);
}
);
};
layerId = "0B1DFD06-3317-40CA-B510-4969A0718C16";
paths = (
{
closed = 1;
nodes = (
"592 -259 OFFCURVE",
"645 -182 OFFCURVE",
"645 -36 CURVE SMOOTH",
"645 637 LINE SMOOTH",
"645 662 OFFCURVE",
"665 673 OFFCURVE",
"703 673 CURVE SMOOTH",
"733 673 LINE",
"733 700 LINE",
"508 700 LINE",
"508 673 LINE",
"537 673 LINE SMOOTH",
"576 673 OFFCURVE",
"595 662 OFFCURVE",
"595 637 CURVE SMOOTH",
"595 125 LINE",
"219 700 LINE",
"22 700 LINE",
"22 673 LINE",
"51 673 LINE SMOOTH",
"90 673 OFFCURVE",
"109 662 OFFCURVE",
"109 637 CURVE SMOOTH",
"109 62 LINE SMOOTH",
"109 37 OFFCURVE",
"93 26 OFFCURVE",
"51 26 CURVE SMOOTH",
"22 26 LINE",
"22 0 LINE",
"247 0 LINE",
"247 26 LINE",
"217 26 LINE SMOOTH",
"179 26 OFFCURVE",
"159 37 OFFCURVE",
"159 62 CURVE SMOOTH",
"159 647 LINE",
"586 0 LINE",
"586 -76 LINE SMOOTH",
"586 -173 OFFCURVE",
"510 -238 OFFCURVE",
"423 -243 CURVE",
"427 -268 LINE"
);
}
);
width = 755;
}
);
note = Eng;
unicode = 014A;
},
{
glyphname = Nlinebelow;
lastChange = "2017-12-19 05:21:12 +0000";
layers = (
{
background = {
paths = (
{
closed = 1;
nodes = (
"247 0 LINE",
"247 26 LINE",
"217 26 LINE SMOOTH",
"179 26 OFFCURVE",
"159 37 OFFCURVE",
"159 62 CURVE SMOOTH",
"159 642 LINE",
"587 0 LINE",
"645 0 LINE",
"645 637 LINE SMOOTH",
"645 662 OFFCURVE",
"665 673 OFFCURVE",
"703 673 CURVE SMOOTH",
"733 673 LINE",
"733 700 LINE",
"508 700 LINE",
"508 673 LINE",
"537 673 LINE SMOOTH",
"576 673 OFFCURVE",
"595 662 OFFCURVE",
"595 637 CURVE SMOOTH",
"595 126 LINE",
"217 700 LINE",
"22 700 LINE",
"22 673 LINE",
"51 673 LINE SMOOTH",
"90 673 OFFCURVE",
"109 662 OFFCURVE",
"109 637 CURVE SMOOTH",
"109 62 LINE SMOOTH",
"109 37 OFFCURVE",
"90 26 OFFCURVE",
"51 26 CURVE SMOOTH",
"22 26 LINE",
"22 0 LINE"
);
},
{
closed = 1;
nodes = (
"542 -110 LINE",
"542 -72 LINE",
"210 -72 LINE",
"210 -110 LINE"
);
}
);
};
components = (
{
name = N;
},
{
name = macronbelowcomb;
transform = "{1, 0, 0, 1, 378, 0}";
}
);
layerId = "0B1DFD06-3317-40CA-B510-4969A0718C16";
width = 755;
}
);
note = Nlinebelow;
unicode = 1E48;
},
{
glyphname = Ntilde;
lastChange = "2017-12-19 05:21:12 +0000";
layers = (
{
background = {
paths = (
{
closed = 1;
nodes = (
"247 0 LINE",
"247 26 LINE",
"217 26 LINE SMOOTH",
"179 26 OFFCURVE",
"159 37 OFFCURVE",
"159 62 CURVE SMOOTH",
"159 642 LINE",
"587 0 LINE",
"645 0 LINE",
"645 637 LINE SMOOTH",
"645 662 OFFCURVE",
"665 673 OFFCURVE",
"703 673 CURVE SMOOTH",
"733 673 LINE",
"733 700 LINE",
"508 700 LINE",
"508 673 LINE",
"537 673 LINE SMOOTH",
"576 673 OFFCURVE",
"595 662 OFFCURVE",
"595 637 CURVE SMOOTH",
"595 126 LINE",
"217 700 LINE",
"22 700 LINE",
"22 673 LINE",
"51 673 LINE SMOOTH",
"90 673 OFFCURVE",
"109 662 OFFCURVE",
"109 637 CURVE SMOOTH",
"109 62 LINE SMOOTH",
"109 37 OFFCURVE",
"90 26 OFFCURVE",
"51 26 CURVE SMOOTH",
"22 26 LINE",
"22 0 LINE"
);
},
{
closed = 1;
nodes = (
"254 818 OFFCURVE",
"272 839 OFFCURVE",
"305 839 CURVE SMOOTH",
"356 839 OFFCURVE",
"405 785 OFFCURVE",
"456 785 CURVE SMOOTH",
"514 785 OFFCURVE",
"544 833 OFFCURVE",
"556 885 CURVE",
"535 896 LINE",
"519 856 OFFCURVE",
"503 834 OFFCURVE",
"469 834 CURVE SMOOTH",
"420 834 OFFCURVE",
"368 887 OFFCURVE",
"317 887 CURVE SMOOTH",
"263 887 OFFCURVE",
"230 843 OFFCURVE",
"218 791 CURVE",
"240 780 LINE"
);
}
);
};
components = (
{
name = N;
},
{
name = tilde;
transform = "{1, 0, 0, 1, 132, 230}";
}
);
layerId = "0B1DFD06-3317-40CA-B510-4969A0718C16";
width = 755;
}
);
note = Ntilde;
unicode = 00D1;
},
{
glyphname = Oacute;
lastChange = "2017-12-19 05:21:12 +0000";
layers = (
{
background = {
paths = (
{
closed = 1;
nodes = (
"601 -10 OFFCURVE",
"719 124 OFFCURVE",
"719 350 CURVE SMOOTH",
"719 574 OFFCURVE",
"601 710 OFFCURVE",
"378 710 CURVE SMOOTH",
"154 710 OFFCURVE",
"36 574 OFFCURVE",
"36 350 CURVE SMOOTH",
"36 124 OFFCURVE",
"154 -10 OFFCURVE",
"378 -10 CURVE SMOOTH"
);
},
{
closed = 1;
nodes = (
"215 32 OFFCURVE",
"135 158 OFFCURVE",
"135 350 CURVE SMOOTH",
"135 541 OFFCURVE",
"215 668 OFFCURVE",
"377 668 CURVE SMOOTH",
"541 668 OFFCURVE",
"620 541 OFFCURVE",
"620 350 CURVE SMOOTH",
"620 158 OFFCURVE",
"541 32 OFFCURVE",
"377 32 CURVE SMOOTH"
);
},
{
closed = 1;
nodes = (
"440 865 LINE SMOOTH",
"462 877 OFFCURVE",
"474 890 OFFCURVE",
"474 907 CURVE SMOOTH",
"474 922 OFFCURVE",
"462 937 OFFCURVE",
"440 937 CURVE SMOOTH",
"419 937 OFFCURVE",
"404 921 OFFCURVE",
"396 914 CURVE SMOOTH",
"281 807 LINE",
"298 782 LINE"
);
}
);
};
components = (
{
name = O;
},
{
name = acute;
transform = "{1, 0, 0, 1, 120, 230}";
}
);
layerId = "0B1DFD06-3317-40CA-B510-4969A0718C16";
width = 755;
}
);
leftKerningGroup = O;
note = Oacute;
rightKerningGroup = O;
unicode = 00D3;
},
{
glyphname = Obreve;
lastChange = "2017-12-19 05:21:12 +0000";
layers = (
{
background = {
paths = (
{
closed = 1;
nodes = (
"601 -10 OFFCURVE",
"719 124 OFFCURVE",
"719 350 CURVE SMOOTH",
"719 574 OFFCURVE",
"601 710 OFFCURVE",
"378 710 CURVE SMOOTH",
"154 710 OFFCURVE",
"36 574 OFFCURVE",
"36 350 CURVE SMOOTH",
"36 124 OFFCURVE",
"154 -10 OFFCURVE",
"378 -10 CURVE SMOOTH"
);
},
{
closed = 1;
nodes = (
"215 32 OFFCURVE",
"135 158 OFFCURVE",
"135 350 CURVE SMOOTH",
"135 541 OFFCURVE",
"215 668 OFFCURVE",
"377 668 CURVE SMOOTH",
"541 668 OFFCURVE",
"620 541 OFFCURVE",
"620 350 CURVE SMOOTH",
"620 158 OFFCURVE",
"541 32 OFFCURVE",
"377 32 CURVE SMOOTH"
);
},
{
closed = 1;
nodes = (
"477 774 OFFCURVE",
"519 830 OFFCURVE",
"523 905 CURVE",
"490 905 LINE",
"484 846 OFFCURVE",
"442 820 OFFCURVE",
"378 820 CURVE SMOOTH",
"314 820 OFFCURVE",
"271 846 OFFCURVE",
"264 905 CURVE",
"231 905 LINE",
"235 827 OFFCURVE",
"277 774 OFFCURVE",
"378 774 CURVE SMOOTH"
);
}
);
};
components = (
{
name = O;
},
{
name = breve;
transform = "{1, 0, 0, 1, 132, 230}";
}
);
layerId = "0B1DFD06-3317-40CA-B510-4969A0718C16";
width = 755;
}
);
leftKerningGroup = O;
note = Obreve;
rightKerningGroup = O;
unicode = 014E;
},
{
glyphname = Ocaron;
lastChange = "2017-12-19 05:21:12 +0000";
layers = (
{
background = {
paths = (
{
closed = 1;
nodes = (
"601 -10 OFFCURVE",
"719 124 OFFCURVE",
"719 350 CURVE SMOOTH",
"719 574 OFFCURVE",
"601 710 OFFCURVE",
"378 710 CURVE SMOOTH",
"154 710 OFFCURVE",
"36 574 OFFCURVE",
"36 350 CURVE SMOOTH",
"36 124 OFFCURVE",
"154 -10 OFFCURVE",
"378 -10 CURVE SMOOTH"
);
},
{
closed = 1;
nodes = (
"215 32 OFFCURVE",
"135 158 OFFCURVE",
"135 350 CURVE SMOOTH",
"135 541 OFFCURVE",
"215 668 OFFCURVE",
"377 668 CURVE SMOOTH",
"541 668 OFFCURVE",
"620 541 OFFCURVE",
"620 350 CURVE SMOOTH",
"620 158 OFFCURVE",
"541 32 OFFCURVE",
"377 32 CURVE SMOOTH"
);
},
{
closed = 1;
nodes = (
"404 782 LINE",
"528 911 LINE",
"509 932 LINE",
"401 847 LINE",
"393 840 OFFCURVE",
"384 836 OFFCURVE",
"378 836 CURVE SMOOTH",
"372 836 OFFCURVE",
"364 840 OFFCURVE",
"354 847 CURVE",
"246 932 LINE",
"227 911 LINE",
"351 782 LINE"
);
}
);
};
components = (
{
name = O;
},
{
name = caron;
transform = "{1, 0, 0, 1, 132, 230}";
}
);
layerId = "0B1DFD06-3317-40CA-B510-4969A0718C16";
width = 755;
}
);
leftKerningGroup = O;
note = Ocaron;
rightKerningGroup = O;
unicode = 01D1;
},
{
glyphname = Ocircumflex;
lastChange = "2017-12-19 05:21:12 +0000";
layers = (
{
background = {
paths = (
{
closed = 1;
nodes = (
"601 -10 OFFCURVE",
"719 124 OFFCURVE",
"719 350 CURVE SMOOTH",
"719 574 OFFCURVE",
"601 710 OFFCURVE",
"378 710 CURVE SMOOTH",
"154 710 OFFCURVE",
"36 574 OFFCURVE",
"36 350 CURVE SMOOTH",
"36 124 OFFCURVE",
"154 -10 OFFCURVE",
"378 -10 CURVE SMOOTH"
);
},
{
closed = 1;
nodes = (
"215 32 OFFCURVE",
"135 158 OFFCURVE",
"135 350 CURVE SMOOTH",
"135 541 OFFCURVE",
"215 668 OFFCURVE",
"377 668 CURVE SMOOTH",
"541 668 OFFCURVE",
"620 541 OFFCURVE",
"620 350 CURVE SMOOTH",
"620 158 OFFCURVE",
"541 32 OFFCURVE",
"377 32 CURVE SMOOTH"
);
},
{
closed = 1;
nodes = (
"354 868 LINE SMOOTH",
"362 874 OFFCURVE",
"372 879 OFFCURVE",
"378 879 CURVE SMOOTH",
"384 879 OFFCURVE",
"392 874 OFFCURVE",
"401 868 CURVE",
"509 782 LINE",
"528 803 LINE",
"404 932 LINE",
"351 932 LINE",
"227 803 LINE",
"246 782 LINE"
);
}
);
};
components = (
{
name = O;
},
{
name = circumflex;
transform = "{1, 0, 0, 1, 132, 230}";
}
);
layerId = "0B1DFD06-3317-40CA-B510-4969A0718C16";
width = 755;
}
);
leftKerningGroup = O;
note = Ocircumflex;
rightKerningGroup = O;
unicode = 00D4;
},
{
glyphname = Ocircumflexacute;
lastChange = "2017-12-19 05:21:12 +0000";
layers = (
{
background = {
paths = (
{
closed = 1;
nodes = (
"601 -10 OFFCURVE",
"719 124 OFFCURVE",
"719 350 CURVE SMOOTH",
"719 574 OFFCURVE",
"601 710 OFFCURVE",
"378 710 CURVE SMOOTH",
"154 710 OFFCURVE",
"36 574 OFFCURVE",
"36 350 CURVE SMOOTH",
"36 124 OFFCURVE",
"154 -10 OFFCURVE",
"378 -10 CURVE SMOOTH"
);
},
{
closed = 1;
nodes = (
"215 32 OFFCURVE",
"135 158 OFFCURVE",
"135 350 CURVE SMOOTH",
"135 541 OFFCURVE",
"215 668 OFFCURVE",
"377 668 CURVE SMOOTH",
"541 668 OFFCURVE",
"620 541 OFFCURVE",
"620 350 CURVE SMOOTH",
"620 158 OFFCURVE",
"541 32 OFFCURVE",
"377 32 CURVE SMOOTH"
);
},
{
closed = 1;
nodes = (
"348 861 LINE SMOOTH",
"358 869 OFFCURVE",
"368 877 OFFCURVE",
"376 877 CURVE SMOOTH",
"382 877 OFFCURVE",
"390 872 OFFCURVE",
"399 866 CURVE",
"505 780 LINE",
"524 802 LINE",
"402 931 LINE",
"351 931 LINE",
"229 802 LINE",
"247 780 LINE"
);
},
{
closed = 1;
nodes = (
"613 959 LINE SMOOTH",
"636 971 OFFCURVE",
"649 987 OFFCURVE",
"649 1002 CURVE SMOOTH",
"649 1016 OFFCURVE",
"638 1033 OFFCURVE",
"615 1033 CURVE SMOOTH",
"596 1033 OFFCURVE",
"579 1017 OFFCURVE",
"569 1007 CURVE SMOOTH",
"473 914 LINE",
"491 892 LINE"
);
}
);
};
components = (
{
name = O;
},
{
name = circumflexacute;
transform = "{1, 0, 0, 1, 628, 230}";
}
);
layerId = "0B1DFD06-3317-40CA-B510-4969A0718C16";
width = 755;
}
);
leftKerningGroup = O;
note = Ocircumflexacute;
rightKerningGroup = O;
unicode = 1ED0;
},
{
glyphname = Ocircumflexdotbelow;
lastChange = "2017-12-19 05:21:12 +0000";
layers = (
{
background = {
paths = (
{
closed = 1;
nodes = (
"36 124 OFFCURVE",
"154 -10 OFFCURVE",
"378 -10 CURVE SMOOTH",
"601 -10 OFFCURVE",
"719 124 OFFCURVE",
"719 350 CURVE SMOOTH",
"719 574 OFFCURVE",
"601 710 OFFCURVE",
"378 710 CURVE SMOOTH",
"154 710 OFFCURVE",
"36 574 OFFCURVE",
"36 350 CURVE SMOOTH"
);
},
{
closed = 1;
nodes = (
"135 541 OFFCURVE",
"215 668 OFFCURVE",
"377 668 CURVE SMOOTH",
"541 668 OFFCURVE",
"620 541 OFFCURVE",
"620 350 CURVE SMOOTH",
"620 158 OFFCURVE",
"541 32 OFFCURVE",
"377 32 CURVE SMOOTH",
"215 32 OFFCURVE",
"135 158 OFFCURVE",
"135 350 CURVE SMOOTH"
);
},
{
closed = 1;
nodes = (
"245 782 LINE",
"353 868 LINE SMOOTH",
"361 874 OFFCURVE",
"371 879 OFFCURVE",
"377 879 CURVE SMOOTH",
"383 879 OFFCURVE",
"391 874 OFFCURVE",
"400 868 CURVE",
"508 782 LINE",
"527 803 LINE",
"403 932 LINE",
"350 932 LINE",
"226 803 LINE"
);
},
{
closed = 1;
nodes = (
"330 -140 OFFCURVE",
"349 -159 OFFCURVE",
"377 -159 CURVE SMOOTH",
"405 -159 OFFCURVE",
"423 -140 OFFCURVE",
"423 -112 CURVE SMOOTH",
"423 -84 OFFCURVE",
"405 -64 OFFCURVE",
"377 -64 CURVE SMOOTH",
"349 -64 OFFCURVE",
"330 -84 OFFCURVE",
"330 -112 CURVE SMOOTH"
);
}
);
};
components = (
{
name = O;
},
{
name = dotbelowcomb;
transform = "{1, 0, 0, 1, 629, 0}";
},
{
name = circumflex;
transform = "{1, 0, 0, 1, 132, 230}";
}
);
layerId = "0B1DFD06-3317-40CA-B510-4969A0718C16";
width = 755;
}
);
leftKerningGroup = O;
note = Ocircumflexdotbelow;
rightKerningGroup = O;
unicode = 1ED8;
},
{
glyphname = Ocircumflexgrave;
lastChange = "2017-12-19 05:21:12 +0000";
layers = (
{
background = {
paths = (
{
closed = 1;
nodes = (
"601 -10 OFFCURVE",
"719 124 OFFCURVE",
"719 350 CURVE SMOOTH",
"719 574 OFFCURVE",
"601 710 OFFCURVE",
"378 710 CURVE SMOOTH",
"154 710 OFFCURVE",
"36 574 OFFCURVE",
"36 350 CURVE SMOOTH",
"36 124 OFFCURVE",
"154 -10 OFFCURVE",
"378 -10 CURVE SMOOTH"
);
},
{
closed = 1;
nodes = (
"215 32 OFFCURVE",
"135 158 OFFCURVE",
"135 350 CURVE SMOOTH",
"135 541 OFFCURVE",
"215 668 OFFCURVE",
"377 668 CURVE SMOOTH",
"541 668 OFFCURVE",
"620 541 OFFCURVE",
"620 350 CURVE SMOOTH",
"620 158 OFFCURVE",
"541 32 OFFCURVE",
"377 32 CURVE SMOOTH"
);
},
{
closed = 1;
nodes = (
"285 914 LINE",
"190 1007 LINE SMOOTH",
"180 1017 OFFCURVE",
"163 1033 OFFCURVE",
"143 1033 CURVE SMOOTH",
"121 1033 OFFCURVE",
"110 1016 OFFCURVE",
"110 1002 CURVE SMOOTH",
"110 987 OFFCURVE",
"123 971 OFFCURVE",
"146 959 CURVE SMOOTH",
"268 892 LINE"
);
},
{
closed = 1;
nodes = (
"348 861 LINE SMOOTH",
"358 869 OFFCURVE",
"368 877 OFFCURVE",
"376 877 CURVE SMOOTH",
"382 877 OFFCURVE",
"390 872 OFFCURVE",
"399 866 CURVE",
"505 780 LINE",
"524 802 LINE",
"402 931 LINE",
"351 931 LINE",
"229 802 LINE",
"247 780 LINE"
);
}
);
};
components = (
{
name = O;
},
{
name = circumflexgrave;
transform = "{1, 0, 0, 1, 628, 230}";
}
);
layerId = "0B1DFD06-3317-40CA-B510-4969A0718C16";
width = 755;
}
);
leftKerningGroup = O;
note = Ocircumflexgrave;
rightKerningGroup = O;
unicode = 1ED2;
},
{
glyphname = Ocircumflexhookabove;
lastChange = "2017-12-19 05:21:12 +0000";
layers = (
{
background = {
paths = (
{
closed = 1;
nodes = (
"601 -10 OFFCURVE",
"719 124 OFFCURVE",
"719 350 CURVE SMOOTH",
"719 574 OFFCURVE",
"601 710 OFFCURVE",
"378 710 CURVE SMOOTH",
"154 710 OFFCURVE",
"36 574 OFFCURVE",
"36 350 CURVE SMOOTH",
"36 124 OFFCURVE",
"154 -10 OFFCURVE",
"378 -10 CURVE SMOOTH"
);
},
{
closed = 1;
nodes = (
"215 32 OFFCURVE",
"135 158 OFFCURVE",
"135 350 CURVE SMOOTH",
"135 541 OFFCURVE",
"215 668 OFFCURVE",
"377 668 CURVE SMOOTH",
"541 668 OFFCURVE",
"620 541 OFFCURVE",
"620 350 CURVE SMOOTH",
"620 158 OFFCURVE",
"541 32 OFFCURVE",
"377 32 CURVE SMOOTH"
);
},
{
closed = 1;
nodes = (
"344 858 LINE",
"355 868 OFFCURVE",
"367 878 OFFCURVE",
"376 878 CURVE SMOOTH",
"382 878 OFFCURVE",
"390 873 OFFCURVE",
"399 867 CURVE",
"505 781 LINE",
"524 803 LINE",
"402 932 LINE",
"351 932 LINE",
"229 803 LINE",
"247 781 LINE"
);
},
{
closed = 1;
nodes = (
"551 898 LINE",
"532 905 OFFCURVE",
"522 912 OFFCURVE",
"522 926 CURVE SMOOTH",
"522 954 OFFCURVE",
"602 965 OFFCURVE",
"602 1010 CURVE SMOOTH",
"602 1047 OFFCURVE",
"560 1063 OFFCURVE",
"518 1063 CURVE SMOOTH",
"487 1063 OFFCURVE",
"442 1053 OFFCURVE",
"442 1022 CURVE SMOOTH",
"442 1010 OFFCURVE",
"453 1001 OFFCURVE",
"463 1001 CURVE SMOOTH",
"492 1001 OFFCURVE",
"479 1040 OFFCURVE",
"522 1040 CURVE SMOOTH",
"541 1040 OFFCURVE",
"552 1028 OFFCURVE",
"552 1013 CURVE SMOOTH",
"552 973 OFFCURVE",
"479 965 OFFCURVE",
"479 925 CURVE SMOOTH",
"479 901 OFFCURVE",
"495 880 OFFCURVE",
"542 880 CURVE"
);
}
);
};
components = (
{
name = O;
},
{
name = circumflexhookabove;
transform = "{1, 0, 0, 1, 628, 230}";
}
);
layerId = "0B1DFD06-3317-40CA-B510-4969A0718C16";
width = 755;
}
);
leftKerningGroup = O;
note = Ocircumflexhookabove;
rightKerningGroup = O;
unicode = 1ED4;
},
{
glyphname = Ocircumflextilde;
lastChange = "2017-12-19 05:21:12 +0000";
layers = (
{
background = {
paths = (
{
closed = 1;
nodes = (
"601 -10 OFFCURVE",
"719 124 OFFCURVE",
"719 350 CURVE SMOOTH",
"719 574 OFFCURVE",
"601 710 OFFCURVE",
"378 710 CURVE SMOOTH",
"154 710 OFFCURVE",
"36 574 OFFCURVE",
"36 350 CURVE SMOOTH",
"36 124 OFFCURVE",
"154 -10 OFFCURVE",
"378 -10 CURVE SMOOTH"
);
},
{
closed = 1;
nodes = (
"215 32 OFFCURVE",
"135 158 OFFCURVE",
"135 350 CURVE SMOOTH",
"135 541 OFFCURVE",
"215 668 OFFCURVE",
"377 668 CURVE SMOOTH",
"541 668 OFFCURVE",
"620 541 OFFCURVE",
"620 350 CURVE SMOOTH",
"620 158 OFFCURVE",
"541 32 OFFCURVE",
"377 32 CURVE SMOOTH"
);
},
{
closed = 1;
nodes = (
"348 862 LINE SMOOTH",
"358 870 OFFCURVE",
"368 878 OFFCURVE",
"376 878 CURVE SMOOTH",
"382 878 OFFCURVE",
"390 873 OFFCURVE",
"399 867 CURVE",
"505 781 LINE",
"524 803 LINE",
"402 932 LINE",
"351 932 LINE",
"229 803 LINE",
"247 781 LINE"
);
},
{
closed = 1;
nodes = (
"251 997 OFFCURVE",
"269 1018 OFFCURVE",
"300 1018 CURVE SMOOTH",
"349 1018 OFFCURVE",
"396 964 OFFCURVE",
"445 964 CURVE SMOOTH",
"498 964 OFFCURVE",
"527 1012 OFFCURVE",
"539 1063 CURVE",
"518 1075 LINE",
"505 1035 OFFCURVE",
"489 1012 OFFCURVE",
"456 1012 CURVE SMOOTH",
"409 1012 OFFCURVE",
"360 1065 OFFCURVE",
"311 1065 CURVE SMOOTH",
"260 1065 OFFCURVE",
"228 1021 OFFCURVE",
"218 970 CURVE",
"238 958 LINE"
);
}
);
};
components = (
{
name = O;
},
{
name = circumflextilde;
transform = "{1, 0, 0, 1, 628, 230}";
}
);
layerId = "0B1DFD06-3317-40CA-B510-4969A0718C16";
width = 755;
}
);
leftKerningGroup = O;
note = Ocircumflextilde;
rightKerningGroup = O;
unicode = 1ED6;
},
{
glyphname = Odieresis;
lastChange = "2017-12-19 05:21:12 +0000";
layers = (
{
background = {
paths = (
{
closed = 1;
nodes = (
"601 -10 OFFCURVE",
"719 124 OFFCURVE",
"719 350 CURVE SMOOTH",
"719 574 OFFCURVE",
"601 710 OFFCURVE",
"378 710 CURVE SMOOTH",
"154 710 OFFCURVE",
"36 574 OFFCURVE",
"36 350 CURVE SMOOTH",
"36 124 OFFCURVE",
"154 -10 OFFCURVE",
"378 -10 CURVE SMOOTH"
);
},
{
closed = 1;
nodes = (
"215 32 OFFCURVE",
"135 158 OFFCURVE",
"135 350 CURVE SMOOTH",
"135 541 OFFCURVE",
"215 668 OFFCURVE",
"377 668 CURVE SMOOTH",
"541 668 OFFCURVE",
"620 541 OFFCURVE",
"620 350 CURVE SMOOTH",
"620 158 OFFCURVE",
"541 32 OFFCURVE",
"377 32 CURVE SMOOTH"
);
},
{
closed = 1;
nodes = (
"298 781 OFFCURVE",
"316 800 OFFCURVE",
"316 827 CURVE SMOOTH",
"316 855 OFFCURVE",
"298 875 OFFCURVE",
"269 875 CURVE SMOOTH",
"241 875 OFFCURVE",
"223 855 OFFCURVE",
"223 827 CURVE SMOOTH",
"223 800 OFFCURVE",
"241 781 OFFCURVE",
"269 781 CURVE SMOOTH"
);
},
{
closed = 1;
nodes = (
"514 781 OFFCURVE",
"532 800 OFFCURVE",
"532 827 CURVE SMOOTH",
"532 855 OFFCURVE",
"514 875 OFFCURVE",
"485 875 CURVE SMOOTH",
"456 875 OFFCURVE",
"438 855 OFFCURVE",
"438 827 CURVE SMOOTH",
"438 800 OFFCURVE",
"456 781 OFFCURVE",
"485 781 CURVE SMOOTH"
);
}
);
};
components = (
{
name = O;
},
{
name = dieresis;
transform = "{1, 0, 0, 1, 132, 230}";
}
);
layerId = "0B1DFD06-3317-40CA-B510-4969A0718C16";
width = 755;
}
);
leftKerningGroup = O;
note = Odieresis;
rightKerningGroup = O;
unicode = 00D6;
},
{
glyphname = Odotbelow;
lastChange = "2017-12-19 05:21:12 +0000";
layers = (
{
background = {
paths = (
{
closed = 1;
nodes = (
"36 124 OFFCURVE",
"154 -10 OFFCURVE",
"378 -10 CURVE SMOOTH",
"601 -10 OFFCURVE",
"719 124 OFFCURVE",
"719 350 CURVE SMOOTH",
"719 574 OFFCURVE",
"601 710 OFFCURVE",
"378 710 CURVE SMOOTH",
"154 710 OFFCURVE",
"36 574 OFFCURVE",
"36 350 CURVE SMOOTH"
);
},
{
closed = 1;
nodes = (
"135 541 OFFCURVE",
"215 668 OFFCURVE",
"377 668 CURVE SMOOTH",
"541 668 OFFCURVE",
"620 541 OFFCURVE",
"620 350 CURVE SMOOTH",
"620 158 OFFCURVE",
"541 32 OFFCURVE",
"377 32 CURVE SMOOTH",
"215 32 OFFCURVE",
"135 158 OFFCURVE",
"135 350 CURVE SMOOTH"
);
},
{
closed = 1;
nodes = (
"330 -140 OFFCURVE",
"349 -159 OFFCURVE",
"377 -159 CURVE SMOOTH",
"405 -159 OFFCURVE",
"423 -140 OFFCURVE",
"423 -112 CURVE SMOOTH",
"423 -84 OFFCURVE",
"405 -64 OFFCURVE",
"377 -64 CURVE SMOOTH",
"349 -64 OFFCURVE",
"330 -84 OFFCURVE",
"330 -112 CURVE SMOOTH"
);
}
);
};
components = (
{
name = O;
},
{
name = dotbelowcomb;
transform = "{1, 0, 0, 1, 629, 0}";
}
);
layerId = "0B1DFD06-3317-40CA-B510-4969A0718C16";
width = 755;
}
);
leftKerningGroup = O;
note = Odotbelow;
rightKerningGroup = O;
unicode = 1ECC;
},
{
glyphname = Ograve;
lastChange = "2017-12-19 05:21:12 +0000";
layers = (
{
background = {
paths = (
{
closed = 1;
nodes = (
"601 -10 OFFCURVE",
"719 124 OFFCURVE",
"719 350 CURVE SMOOTH",
"719 574 OFFCURVE",
"601 710 OFFCURVE",
"378 710 CURVE SMOOTH",
"154 710 OFFCURVE",
"36 574 OFFCURVE",
"36 350 CURVE SMOOTH",
"36 124 OFFCURVE",
"154 -10 OFFCURVE",
"378 -10 CURVE SMOOTH"
);
},
{
closed = 1;
nodes = (
"215 32 OFFCURVE",
"135 158 OFFCURVE",
"135 350 CURVE SMOOTH",
"135 541 OFFCURVE",
"215 668 OFFCURVE",
"377 668 CURVE SMOOTH",
"541 668 OFFCURVE",
"620 541 OFFCURVE",
"620 350 CURVE SMOOTH",
"620 158 OFFCURVE",
"541 32 OFFCURVE",
"377 32 CURVE SMOOTH"
);
},
{
closed = 1;
nodes = (
"459 807 LINE",
"344 913 LINE",
"335 922 OFFCURVE",
"319 937 OFFCURVE",
"299 937 CURVE SMOOTH",
"279 937 OFFCURVE",
"267 924 OFFCURVE",
"267 908 CURVE SMOOTH",
"267 890 OFFCURVE",
"279 876 OFFCURVE",
"298 865 CURVE SMOOTH",
"441 782 LINE"
);
}
);
};
components = (
{
name = O;
},
{
name = grave;
transform = "{1, 0, 0, 1, 132, 230}";
}
);
layerId = "0B1DFD06-3317-40CA-B510-4969A0718C16";
width = 755;
}
);
leftKerningGroup = O;
note = Ograve;
rightKerningGroup = O;
unicode = 00D2;
},
{
glyphname = Ohookabove;
lastChange = "2017-12-19 05:21:12 +0000";
layers = (
{
background = {
paths = (
{
closed = 1;
nodes = (
"601 -10 OFFCURVE",
"719 124 OFFCURVE",
"719 350 CURVE SMOOTH",
"719 574 OFFCURVE",
"601 710 OFFCURVE",
"378 710 CURVE SMOOTH",
"154 710 OFFCURVE",
"36 574 OFFCURVE",
"36 350 CURVE SMOOTH",
"36 124 OFFCURVE",
"154 -10 OFFCURVE",
"378 -10 CURVE SMOOTH"
);
},
{
closed = 1;
nodes = (
"215 32 OFFCURVE",
"135 158 OFFCURVE",
"135 350 CURVE SMOOTH",
"135 541 OFFCURVE",
"215 668 OFFCURVE",
"377 668 CURVE SMOOTH",
"541 668 OFFCURVE",
"620 541 OFFCURVE",
"620 350 CURVE SMOOTH",
"620 158 OFFCURVE",
"541 32 OFFCURVE",
"377 32 CURVE SMOOTH"
);
},
{
closed = 1;
nodes = (
"407 798 LINE",
"388 805 OFFCURVE",
"376 811 OFFCURVE",
"376 828 CURVE SMOOTH",
"376 861 OFFCURVE",
"465 876 OFFCURVE",
"465 927 CURVE SMOOTH",
"465 969 OFFCURVE",
"429 991 OFFCURVE",
"376 991 CURVE SMOOTH",
"329 991 OFFCURVE",
"288 974 OFFCURVE",
"288 940 CURVE SMOOTH",
"288 923 OFFCURVE",
"296 915 OFFCURVE",
"311 915 CURVE SMOOTH",
"334 915 OFFCURVE",
"336 934 OFFCURVE",
"339 942 CURVE SMOOTH",
"344 956 OFFCURVE",
"361 962 OFFCURVE",
"377 962 CURVE SMOOTH",
"398 962 OFFCURVE",
"411 947 OFFCURVE",
"411 930 CURVE SMOOTH",
"411 885 OFFCURVE",
"329 874 OFFCURVE",
"329 828 CURVE SMOOTH",
"329 801 OFFCURVE",
"347 778 OFFCURVE",
"398 778 CURVE"
);
}
);
};
components = (
{
name = O;
},
{
name = hookabovecomb;
transform = "{1, 0, 0, 1, 629, 230}";
}
);
layerId = "0B1DFD06-3317-40CA-B510-4969A0718C16";
width = 755;
}
);
leftKerningGroup = O;
note = Ohookabove;
rightKerningGroup = O;
unicode = 1ECE;
},
{
glyphname = Ohorn;
lastChange = "2017-12-19 08:29:57 +0000";
layers = (
{
layerId = "0B1DFD06-3317-40CA-B510-4969A0718C16";
paths = (
{
closed = 1;
nodes = (
"872 595 OFFCURVE",
"718 719 OFFCURVE",
"541 719 CURVE SMOOTH",
"300 719 OFFCURVE",
"130 566 OFFCURVE",
"139 296 CURVE SMOOTH",
"145 96 OFFCURVE",
"300 -15 OFFCURVE",
"489 -15 CURVE SMOOTH",
"741 -15 OFFCURVE",
"888 176 OFFCURVE",
"878 413 CURVE SMOOTH"
);
},
{
closed = 1;
nodes = (
"816 187 OFFCURVE",
"695 37 OFFCURVE",
"474 37 CURVE SMOOTH",
"350 37 OFFCURVE",
"214 146 OFFCURVE",
"208 292 CURVE SMOOTH",
"199 516 OFFCURVE",
"320 670 OFFCURVE",
"547 670 CURVE SMOOTH",
"685 670 OFFCURVE",
"807 543 OFFCURVE",
"810 401 CURVE SMOOTH"
);
},
{
closed = 1;
nodes = (
"812 527 LINE",
"829 493 OFFCURVE",
"852 471 OFFCURVE",
"906 471 CURVE SMOOTH",
"938 471 OFFCURVE",
"973 493 OFFCURVE",
"973 539 CURVE",
"970 581 OFFCURVE",
"952 610 OFFCURVE",
"923 628 CURVE",
"920 632 OFFCURVE",
"893 624 OFFCURVE",
"893 618 CURVE",
"910 600 OFFCURVE",
"923 576 OFFCURVE",
"923 556 CURVE",
"925 528 OFFCURVE",
"901 514 OFFCURVE",
"878 514 CURVE SMOOTH",
"854 514 OFFCURVE",
"846 524 OFFCURVE",
"838 537 CURVE"
);
}
);
width = 923;
}
);
note = Ohorn;
unicode = 01A0;
},
{
glyphname = Ohornacute;
lastChange = "2017-12-19 05:21:12 +0000";
layers = (
{
background = {
paths = (
{
closed = 1;
nodes = (
"602 -10 OFFCURVE",
"720 124 OFFCURVE",
"720 350 CURVE SMOOTH",
"720 574 OFFCURVE",
"602 710 OFFCURVE",
"379 710 CURVE SMOOTH",
"155 710 OFFCURVE",
"37 574 OFFCURVE",
"37 350 CURVE SMOOTH",
"37 124 OFFCURVE",
"155 -10 OFFCURVE",
"379 -10 CURVE SMOOTH"
);
},
{
closed = 1;
nodes = (
"216 32 OFFCURVE",
"136 158 OFFCURVE",
"136 350 CURVE SMOOTH",
"136 541 OFFCURVE",
"216 668 OFFCURVE",
"378 668 CURVE SMOOTH",
"542 668 OFFCURVE",
"621 541 OFFCURVE",
"621 350 CURVE SMOOTH",
"621 158 OFFCURVE",
"542 32 OFFCURVE",
"378 32 CURVE SMOOTH"
);
},
{
closed = 1;
nodes = (
"424 864 LINE SMOOTH",
"446 876 OFFCURVE",
"458 889 OFFCURVE",
"458 906 CURVE SMOOTH",
"458 921 OFFCURVE",
"446 936 OFFCURVE",
"424 936 CURVE SMOOTH",
"403 936 OFFCURVE",
"388 920 OFFCURVE",
"380 913 CURVE SMOOTH",
"265 806 LINE",
"282 781 LINE"
);
},
{
closed = 1;
nodes = (
"691 567 OFFCURVE",
"756 632 OFFCURVE",
"756 705 CURVE SMOOTH",
"756 752 OFFCURVE",
"729 772 OFFCURVE",
"701 772 CURVE SMOOTH",
"672 772 OFFCURVE",
"656 752 OFFCURVE",
"656 729 CURVE SMOOTH",
"656 695 OFFCURVE",
"689 688 OFFCURVE",
"689 653 CURVE SMOOTH",
"689 617 OFFCURVE",
"658 588 OFFCURVE",
"623 568 CURVE",
"623 543 LINE"
);
}
);
};
components = (
{
name = acute;
transform = "{1, 0, 0, 1, 120, 230}";
},
{
name = Ohorn;
}
);
layerId = "0B1DFD06-3317-40CA-B510-4969A0718C16";
width = 755;
}
);
leftKerningGroup = O;
note = Ohornacute;
rightKerningGroup = O;
unicode = 1EDA;
},
{
glyphname = Ohorndotbelow;
lastChange = "2017-12-19 05:21:12 +0000";
layers = (
{
background = {
paths = (
{
closed = 1;
nodes = (
"602 -10 OFFCURVE",
"720 124 OFFCURVE",
"720 350 CURVE SMOOTH",
"720 574 OFFCURVE",
"602 710 OFFCURVE",
"379 710 CURVE SMOOTH",
"155 710 OFFCURVE",
"37 574 OFFCURVE",
"37 350 CURVE SMOOTH",
"37 124 OFFCURVE",
"155 -10 OFFCURVE",
"379 -10 CURVE SMOOTH"
);
},
{
closed = 1;
nodes = (
"216 32 OFFCURVE",
"136 158 OFFCURVE",
"136 350 CURVE SMOOTH",
"136 541 OFFCURVE",
"216 668 OFFCURVE",
"378 668 CURVE SMOOTH",
"542 668 OFFCURVE",
"621 541 OFFCURVE",
"621 350 CURVE SMOOTH",
"621 158 OFFCURVE",
"542 32 OFFCURVE",
"378 32 CURVE SMOOTH"
);
},
{
closed = 1;
nodes = (
"691 567 OFFCURVE",
"756 632 OFFCURVE",
"756 705 CURVE SMOOTH",
"756 752 OFFCURVE",
"729 772 OFFCURVE",
"701 772 CURVE SMOOTH",
"672 772 OFFCURVE",
"656 752 OFFCURVE",
"656 729 CURVE SMOOTH",
"656 695 OFFCURVE",
"689 688 OFFCURVE",
"689 653 CURVE SMOOTH",
"689 617 OFFCURVE",
"658 588 OFFCURVE",
"623 568 CURVE",
"623 543 LINE"
);
},
{
closed = 1;
nodes = (
"395 -159 OFFCURVE",
"413 -140 OFFCURVE",
"413 -112 CURVE SMOOTH",
"413 -84 OFFCURVE",
"395 -64 OFFCURVE",
"367 -64 CURVE SMOOTH",
"339 -64 OFFCURVE",
"320 -84 OFFCURVE",
"320 -112 CURVE SMOOTH",
"320 -140 OFFCURVE",
"339 -159 OFFCURVE",
"367 -159 CURVE SMOOTH"
);
}
);
};
components = (
{
name = dotbelowcomb;
transform = "{1, 0, 0, 1, 629, 0}";
},
{
name = Ohorn;
}
);
layerId = "0B1DFD06-3317-40CA-B510-4969A0718C16";
width = 755;
}
);
leftKerningGroup = O;
note = Ohorndotbelow;
rightKerningGroup = O;
unicode = 1EE2;
},
{
glyphname = Ohorngrave;
lastChange = "2017-12-19 05:21:12 +0000";
layers = (
{
background = {
paths = (
{
closed = 1;
nodes = (
"602 -10 OFFCURVE",
"720 124 OFFCURVE",
"720 350 CURVE SMOOTH",
"720 574 OFFCURVE",
"602 710 OFFCURVE",
"379 710 CURVE SMOOTH",
"155 710 OFFCURVE",
"37 574 OFFCURVE",
"37 350 CURVE SMOOTH",
"37 124 OFFCURVE",
"155 -10 OFFCURVE",
"379 -10 CURVE SMOOTH"
);
},
{
closed = 1;
nodes = (
"216 32 OFFCURVE",
"136 158 OFFCURVE",
"136 350 CURVE SMOOTH",
"136 541 OFFCURVE",
"216 668 OFFCURVE",
"378 668 CURVE SMOOTH",
"542 668 OFFCURVE",
"621 541 OFFCURVE",
"621 350 CURVE SMOOTH",
"621 158 OFFCURVE",
"542 32 OFFCURVE",
"378 32 CURVE SMOOTH"
);
},
{
closed = 1;
nodes = (
"464 816 LINE",
"349 922 LINE",
"340 931 OFFCURVE",
"324 946 OFFCURVE",
"304 946 CURVE SMOOTH",
"284 946 OFFCURVE",
"272 933 OFFCURVE",
"272 917 CURVE SMOOTH",
"272 899 OFFCURVE",
"284 885 OFFCURVE",
"303 874 CURVE SMOOTH",
"446 791 LINE"
);
},
{
closed = 1;
nodes = (
"691 567 OFFCURVE",
"756 632 OFFCURVE",
"756 705 CURVE SMOOTH",
"756 752 OFFCURVE",
"729 772 OFFCURVE",
"701 772 CURVE SMOOTH",
"672 772 OFFCURVE",
"656 752 OFFCURVE",
"656 729 CURVE SMOOTH",
"656 695 OFFCURVE",
"689 688 OFFCURVE",
"689 653 CURVE SMOOTH",
"689 617 OFFCURVE",
"658 588 OFFCURVE",
"623 568 CURVE",
"623 543 LINE"
);
}
);
};
components = (
{
name = grave;
transform = "{1, 0, 0, 1, 132, 230}";
},
{
name = Ohorn;
}
);
layerId = "0B1DFD06-3317-40CA-B510-4969A0718C16";
width = 755;
}
);
leftKerningGroup = O;
note = Ohorngrave;
rightKerningGroup = O;
unicode = 1EDC;
},
{
glyphname = Ohornhookabove;
lastChange = "2017-12-19 05:21:12 +0000";
layers = (
{
background = {
paths = (
{
closed = 1;
nodes = (
"602 -10 OFFCURVE",
"720 124 OFFCURVE",
"720 350 CURVE SMOOTH",
"720 574 OFFCURVE",
"602 710 OFFCURVE",
"379 710 CURVE SMOOTH",
"155 710 OFFCURVE",
"37 574 OFFCURVE",
"37 350 CURVE SMOOTH",
"37 124 OFFCURVE",
"155 -10 OFFCURVE",
"379 -10 CURVE SMOOTH"
);
},
{
closed = 1;
nodes = (
"216 32 OFFCURVE",
"136 158 OFFCURVE",
"136 350 CURVE SMOOTH",
"136 541 OFFCURVE",
"216 668 OFFCURVE",
"378 668 CURVE SMOOTH",
"542 668 OFFCURVE",
"621 541 OFFCURVE",
"621 350 CURVE SMOOTH",
"621 158 OFFCURVE",
"542 32 OFFCURVE",
"378 32 CURVE SMOOTH"
);
},
{
closed = 1;
nodes = (
"412 809 LINE",
"393 816 OFFCURVE",
"381 822 OFFCURVE",
"381 839 CURVE SMOOTH",
"381 872 OFFCURVE",
"470 887 OFFCURVE",
"470 938 CURVE SMOOTH",
"470 980 OFFCURVE",
"434 1002 OFFCURVE",
"381 1002 CURVE SMOOTH",
"334 1002 OFFCURVE",
"293 985 OFFCURVE",
"293 951 CURVE SMOOTH",
"293 934 OFFCURVE",
"301 926 OFFCURVE",
"316 926 CURVE SMOOTH",
"339 926 OFFCURVE",
"341 945 OFFCURVE",
"344 953 CURVE SMOOTH",
"349 967 OFFCURVE",
"366 973 OFFCURVE",
"382 973 CURVE SMOOTH",
"403 973 OFFCURVE",
"416 958 OFFCURVE",
"416 941 CURVE SMOOTH",
"416 896 OFFCURVE",
"334 885 OFFCURVE",
"334 839 CURVE SMOOTH",
"334 812 OFFCURVE",
"352 789 OFFCURVE",
"403 789 CURVE"
);
},
{
closed = 1;
nodes = (
"691 567 OFFCURVE",
"756 632 OFFCURVE",
"756 705 CURVE SMOOTH",
"756 752 OFFCURVE",
"729 772 OFFCURVE",
"701 772 CURVE SMOOTH",
"672 772 OFFCURVE",
"656 752 OFFCURVE",
"656 729 CURVE SMOOTH",
"656 695 OFFCURVE",
"689 688 OFFCURVE",
"689 653 CURVE SMOOTH",
"689 617 OFFCURVE",
"658 588 OFFCURVE",
"623 568 CURVE",
"623 543 LINE"
);
}
);
};
components = (
{
name = hookabovecomb;
transform = "{1, 0, 0, 1, 629, 230}";
},
{
name = Ohorn;
}
);
layerId = "0B1DFD06-3317-40CA-B510-4969A0718C16";
width = 755;
}
);
leftKerningGroup = O;
note = Ohornhookabove;
rightKerningGroup = O;
unicode = 1EDE;
},
{
glyphname = Ohorntilde;
lastChange = "2017-12-19 05:21:12 +0000";
layers = (
{
background = {
paths = (
{
closed = 1;
nodes = (
"602 -10 OFFCURVE",
"720 124 OFFCURVE",
"720 350 CURVE SMOOTH",
"720 574 OFFCURVE",
"602 710 OFFCURVE",
"379 710 CURVE SMOOTH",
"155 710 OFFCURVE",
"37 574 OFFCURVE",
"37 350 CURVE SMOOTH",
"37 124 OFFCURVE",
"155 -10 OFFCURVE",
"379 -10 CURVE SMOOTH"
);
},
{
closed = 1;
nodes = (
"216 32 OFFCURVE",
"136 158 OFFCURVE",
"136 350 CURVE SMOOTH",
"136 541 OFFCURVE",
"216 668 OFFCURVE",
"378 668 CURVE SMOOTH",
"542 668 OFFCURVE",
"621 541 OFFCURVE",
"621 350 CURVE SMOOTH",
"621 158 OFFCURVE",
"542 32 OFFCURVE",
"378 32 CURVE SMOOTH"
);
},
{
closed = 1;
nodes = (
"234 828 OFFCURVE",
"252 849 OFFCURVE",
"285 849 CURVE SMOOTH",
"336 849 OFFCURVE",
"385 795 OFFCURVE",
"436 795 CURVE SMOOTH",
"494 795 OFFCURVE",
"524 843 OFFCURVE",
"536 895 CURVE",
"515 906 LINE",
"499 866 OFFCURVE",
"483 844 OFFCURVE",
"449 844 CURVE SMOOTH",
"400 844 OFFCURVE",
"348 897 OFFCURVE",
"297 897 CURVE SMOOTH",
"243 897 OFFCURVE",
"210 853 OFFCURVE",
"198 801 CURVE",
"220 790 LINE"
);
},
{
closed = 1;
nodes = (
"691 567 OFFCURVE",
"756 632 OFFCURVE",
"756 705 CURVE SMOOTH",
"756 752 OFFCURVE",
"729 772 OFFCURVE",
"701 772 CURVE SMOOTH",
"672 772 OFFCURVE",
"656 752 OFFCURVE",
"656 729 CURVE SMOOTH",
"656 695 OFFCURVE",
"689 688 OFFCURVE",
"689 653 CURVE SMOOTH",
"689 617 OFFCURVE",
"658 588 OFFCURVE",
"623 568 CURVE",
"623 543 LINE"
);
}
);
};
components = (
{
name = tilde;
transform = "{1, 0, 0, 1, 132, 230}";
},
{
name = Ohorn;
}
);
layerId = "0B1DFD06-3317-40CA-B510-4969A0718C16";
width = 755;
}
);
leftKerningGroup = O;
note = Ohorntilde;
rightKerningGroup = O;
unicode = 1EE0;
},
{
glyphname = Ohungarumlaut;
lastChange = "2017-12-19 05:21:12 +0000";
layers = (
{
background = {
paths = (
{
closed = 1;
nodes = (
"601 -10 OFFCURVE",
"719 124 OFFCURVE",
"719 350 CURVE SMOOTH",
"719 574 OFFCURVE",
"601 710 OFFCURVE",
"378 710 CURVE SMOOTH",
"154 710 OFFCURVE",
"36 574 OFFCURVE",
"36 350 CURVE SMOOTH",
"36 124 OFFCURVE",
"154 -10 OFFCURVE",
"378 -10 CURVE SMOOTH"
);
},
{
closed = 1;
nodes = (
"215 32 OFFCURVE",
"135 158 OFFCURVE",
"135 350 CURVE SMOOTH",
"135 541 OFFCURVE",
"215 668 OFFCURVE",
"377 668 CURVE SMOOTH",
"541 668 OFFCURVE",
"620 541 OFFCURVE",
"620 350 CURVE SMOOTH",
"620 158 OFFCURVE",
"541 32 OFFCURVE",
"377 32 CURVE SMOOTH"
);
},
{
closed = 1;
nodes = (
"395 864 LINE SMOOTH",
"417 877 OFFCURVE",
"429 891 OFFCURVE",
"429 908 CURVE SMOOTH",
"429 922 OFFCURVE",
"421 937 OFFCURVE",
"399 937 CURVE SMOOTH",
"378 937 OFFCURVE",
"357 919 OFFCURVE",
"350 913 CURVE",
"236 807 LINE",
"253 782 LINE"
);
},
{
closed = 1;
nodes = (
"556 864 LINE SMOOTH",
"577 877 OFFCURVE",
"589 891 OFFCURVE",
"589 908 CURVE SMOOTH",
"589 922 OFFCURVE",
"578 937 OFFCURVE",
"556 937 CURVE SMOOTH",
"534 937 OFFCURVE",
"517 919 OFFCURVE",
"510 913 CURVE",
"396 807 LINE",
"414 782 LINE"
);
}
);
};
components = (
{
name = O;
},
{
name = hungarumlaut;
transform = "{1, 0, 0, 1, 131, 230}";
}
);
layerId = "0B1DFD06-3317-40CA-B510-4969A0718C16";
width = 755;
}
);
leftKerningGroup = O;
note = Ohungarumlaut;
rightKerningGroup = O;
unicode = 0150;
},
{
glyphname = Omacron;
lastChange = "2017-12-19 05:21:12 +0000";
layers = (
{
background = {
paths = (
{
closed = 1;
nodes = (
"601 -10 OFFCURVE",
"719 124 OFFCURVE",
"719 350 CURVE SMOOTH",
"719 574 OFFCURVE",
"601 710 OFFCURVE",
"378 710 CURVE SMOOTH",
"154 710 OFFCURVE",
"36 574 OFFCURVE",
"36 350 CURVE SMOOTH",
"36 124 OFFCURVE",
"154 -10 OFFCURVE",
"378 -10 CURVE SMOOTH"
);
},
{
closed = 1;
nodes = (
"215 32 OFFCURVE",
"135 158 OFFCURVE",
"135 350 CURVE SMOOTH",
"135 541 OFFCURVE",
"215 668 OFFCURVE",
"377 668 CURVE SMOOTH",
"541 668 OFFCURVE",
"620 541 OFFCURVE",
"620 350 CURVE SMOOTH",
"620 158 OFFCURVE",
"541 32 OFFCURVE",
"377 32 CURVE SMOOTH"
);
},
{
closed = 1;
nodes = (
"543 793 LINE",
"543 835 LINE",
"210 835 LINE",
"210 793 LINE"
);
}
);
};
components = (
{
name = O;
},
{
name = macron;
transform = "{1, 0, 0, 1, 132, 230}";
}
);
layerId = "0B1DFD06-3317-40CA-B510-4969A0718C16";
width = 755;
}
);
leftKerningGroup = O;
note = Omacron;
rightKerningGroup = O;
unicode = 014C;
},
{
glyphname = Oslash;
lastChange = "2017-12-19 08:30:04 +0000";
layers = (
{
layerId = "0B1DFD06-3317-40CA-B510-4969A0718C16";
paths = (
{
closed = 1;
nodes = (
"303 -194 OFFCURVE",
"351 -211 OFFCURVE",
"355 -190 CURVE",
"469 212 OFFCURVE",
"565 477 OFFCURVE",
"759 889 CURVE",
"756 902 OFFCURVE",
"715 904 OFFCURVE",
"707 896 CURVE",
"526 509 OFFCURVE",
"402 187 OFFCURVE",
"298 -177 CURVE"
);
},
{
closed = 1;
nodes = (
"825 595 OFFCURVE",
"694 719 OFFCURVE",
"518 719 CURVE SMOOTH",
"276 719 OFFCURVE",
"130 566 OFFCURVE",
"139 296 CURVE SMOOTH",
"145 96 OFFCURVE",
"277 -15 OFFCURVE",
"465 -15 CURVE SMOOTH",
"719 -15 OFFCURVE",
"840 176 OFFCURVE",
"831 413 CURVE SMOOTH"
);
},
{
closed = 1;
nodes = (
"775 188 OFFCURVE",
"672 33 OFFCURVE",
"451 33 CURVE SMOOTH",
"327 33 OFFCURVE",
"208 146 OFFCURVE",
"202 292 CURVE SMOOTH",
"193 516 OFFCURVE",
"295 674 OFFCURVE",
"524 674 CURVE SMOOTH",
"662 674 OFFCURVE",
"765 543 OFFCURVE",
"769 401 CURVE SMOOTH"
);
}
);
width = 876;
}
);
note = Oslash;
unicode = 00D8;
},
{
glyphname = OE;
lastChange = "2017-12-19 08:30:10 +0000";
layers = (
{
layerId = "0B1DFD06-3317-40CA-B510-4969A0718C16";
paths = (
{
closed = 1;
nodes = (
"313 719 OFFCURVE",
"130 543 OFFCURVE",
"139 296 CURVE SMOOTH",
"145 96 OFFCURVE",
"277 -15 OFFCURVE",
"465 -15 CURVE SMOOTH",
"571 -15 OFFCURVE",
"659 24 OFFCURVE",
"726 90 CURVE",
"724 77 OFFCURVE",
"722 69 OFFCURVE",
"724 63 CURVE",
"724 20 OFFCURVE",
"756 -13 OFFCURVE",
"927 -13 CURVE SMOOTH",
"1036 -13 OFFCURVE",
"1132 -8 OFFCURVE",
"1232 17 CURVE SMOOTH",
"1254 23 OFFCURVE",
"1267 32 OFFCURVE",
"1272 45 CURVE",
"1276 57 OFFCURVE",
"1283 102 OFFCURVE",
"1295 114 CURVE",
"1292 120 OFFCURVE",
"1290 123 OFFCURVE",
"1286 120 CURVE",
"1201 44 OFFCURVE",
"1020 32 OFFCURVE",
"901 32 CURVE SMOOTH",
"834 32 OFFCURVE",
"795 37 OFFCURVE",
"794 86 CURVE SMOOTH",
"790 171 OFFCURVE",
"827 258 OFFCURVE",
"859 339 CURVE SMOOTH",
"862 345 OFFCURVE",
"866 349 OFFCURVE",
"875 349 CURVE",
"922 352 OFFCURVE",
"1136 349 OFFCURVE",
"1201 349 CURVE SMOOTH",
"1209 349 OFFCURVE",
"1213 351 OFFCURVE",
"1214 355 CURVE",
"1214 365 OFFCURVE",
"1226 399 OFFCURVE",
"1229 408 CURVE",
"1223 413 LINE",
"1147 390 OFFCURVE",
"987 388 OFFCURVE",
"895 394 CURVE",
"884 394 OFFCURVE",
"879 399 OFFCURVE",
"882 408 CURVE",
"914 501 OFFCURVE",
"929 569 OFFCURVE",
"973 645 CURVE",
"979 658 OFFCURVE",
"988 662 OFFCURVE",
"1006 662 CURVE SMOOTH",
"1083 662 OFFCURVE",
"1169 657 OFFCURVE",
"1240 647 CURVE",
"1247 644 OFFCURVE",
"1253 635 OFFCURVE",
"1259 620 CURVE",
"1265 619 LINE",
"1271 641 OFFCURVE",
"1288 693 OFFCURVE",
"1291 703 CURVE",
"1290 709 OFFCURVE",
"1286 713 OFFCURVE",
"1280 713 CURVE SMOOTH",
"1180 713 OFFCURVE",
"978 702 OFFCURVE",
"934 702 CURVE SMOOTH",
"904 702 OFFCURVE",
"896 699 OFFCURVE",
"900 655 CURVE",
"900 643 OFFCURVE",
"869 534 OFFCURVE",
"840 450 CURVE",
"821 631 OFFCURVE",
"707 719 OFFCURVE",
"541 719 CURVE SMOOTH"
);
},
{
closed = 1;
nodes = (
"791 212 OFFCURVE",
"672 37 OFFCURVE",
"450 37 CURVE SMOOTH",
"325 37 OFFCURVE",
"214 146 OFFCURVE",
"208 292 CURVE SMOOTH",
"199 516 OFFCURVE",
"330 670 OFFCURVE",
"547 670 CURVE SMOOTH",
"685 670 OFFCURVE",
"782 566 OFFCURVE",
"785 425 CURVE SMOOTH"
);
}
);
width = 1291;
}
);
note = OE;
unicode = 0152;
},
{
glyphname = Thorn;
lastChange = "2017-12-19 08:30:17 +0000";
layers = (
{
layerId = "0B1DFD06-3317-40CA-B510-4969A0718C16";
paths = (
{
closed = 1;
nodes = (
"289 30 OFFCURVE",
"239 33 OFFCURVE",
"230 56 CURVE",
"226 96 OFFCURVE",
"250 179 OFFCURVE",
"317 461 CURVE SMOOTH",
"326 502 OFFCURVE",
"397 508 OFFCURVE",
"431 508 CURVE SMOOTH",
"531 508 OFFCURVE",
"574 476 OFFCURVE",
"577 381 CURVE SMOOTH",
"583 248 OFFCURVE",
"501 201 OFFCURVE",
"400 201 CURVE SMOOTH",
"368 201 OFFCURVE",
"337 224 OFFCURVE",
"322 234 CURVE",
"319 236 OFFCURVE",
"313 231 OFFCURVE",
"313 227 CURVE SMOOTH",
"313 224 OFFCURVE",
"320 179 OFFCURVE",
"322 179 CURVE",
"343 173 OFFCURVE",
"371 164 OFFCURVE",
"418 164 CURVE SMOOTH",
"627 164 OFFCURVE",
"660 318 OFFCURVE",
"657 380 CURVE SMOOTH",
"653 506 OFFCURVE",
"562 546 OFFCURVE",
"457 546 CURVE SMOOTH",
"408 546 OFFCURVE",
"349 532 OFFCURVE",
"340 532 CURVE SMOOTH",
"337 532 OFFCURVE",
"336 533 OFFCURVE",
"336 536 CURVE",
"336 534 OFFCURVE",
"340 585 OFFCURVE",
"363 668 CURVE",
"371 693 OFFCURVE",
"375 707 OFFCURVE",
"374 708 CURVE",
"372 713 OFFCURVE",
"368 715 OFFCURVE",
"359 715 CURVE",
"257 706 LINE SMOOTH",
"214 702 OFFCURVE",
"177 700 OFFCURVE",
"150 700 CURVE SMOOTH",
"133 700 OFFCURVE",
"139 664 OFFCURVE",
"156 664 CURVE SMOOTH",
"192 664 OFFCURVE",
"267 683 OFFCURVE",
"286 645 CURVE",
"311 657 OFFCURVE",
"140 44 OFFCURVE",
"140 23 CURVE",
"144 7 OFFCURVE",
"156 -2 OFFCURVE",
"177 -4 CURVE",
"199 -7 OFFCURVE",
"231 -6 OFFCURVE",
"318 -6 CURVE SMOOTH",
"327 -6 OFFCURVE",
"324 20 OFFCURVE",
"314 30 CURVE"
);
}
);
width = 745;
}
);
note = Thorn;
unicode = 00DE;
},
{
color = 0;
glyphname = Germandbls;
lastChange = "2017-12-19 05:23:49 +0000";
layers = (
{
layerId = "0B1DFD06-3317-40CA-B510-4969A0718C16";
paths = (
{
closed = 1;
nodes = (
"606 -10 OFFCURVE",
"674 88 OFFCURVE",
"674 203 CURVE SMOOTH",
"674 313 OFFCURVE",
"592 385 OFFCURVE",
"445 398 CURVE",
"591 553 LINE",
"569 627 OFFCURVE",
"489 710 OFFCURVE",
"354 710 CURVE SMOOTH",
"177 710 OFFCURVE",
"92 616 OFFCURVE",
"92 470 CURVE SMOOTH",
"92 62 LINE SMOOTH",
"92 37 OFFCURVE",
"72 26 OFFCURVE",
"33 26 CURVE SMOOTH",
"5 26 LINE",
"5 0 LINE",
"255 0 LINE",
"255 26 LINE",
"227 26 LINE SMOOTH",
"202 26 OFFCURVE",
"188 44 OFFCURVE",
"188 63 CURVE SMOOTH",
"188 495 LINE SMOOTH",
"188 602 OFFCURVE",
"246 668 OFFCURVE",
"347 668 CURVE SMOOTH",
"431 668 OFFCURVE",
"479 617 OFFCURVE",
"499 555 CURVE",
"344 387 LINE",
"344 361 LINE",
"406 361 LINE SMOOTH",
"520 361 OFFCURVE",
"578 296 OFFCURVE",
"578 203 CURVE SMOOTH",
"578 100 OFFCURVE",
"521 29 OFFCURVE",
"419 29 CURVE SMOOTH",
"374 29 OFFCURVE",
"324 37 OFFCURVE",
"277 56 CURVE",
"277 14 LINE",
"318 -2 OFFCURVE",
"367 -10 OFFCURVE",
"423 -10 CURVE SMOOTH"
);
}
);
width = 703;
}
);
note = uni1E9E;
unicode = 1E9E;
},
{
color = 0;
glyphname = Schwa;
lastChange = "2017-12-19 05:23:49 +0000";
layers = (
{
layerId = "0B1DFD06-3317-40CA-B510-4969A0718C16";
paths = (
{
closed = 1;
nodes = (
"543 -10 OFFCURVE",
"658 120 OFFCURVE",
"658 346 CURVE SMOOTH",
"658 569 OFFCURVE",
"533 710 OFFCURVE",
"323 710 CURVE SMOOTH",
"160 710 OFFCURVE",
"56 618 OFFCURVE",
"41 500 CURVE",
"84 500 LINE",
"111 616 OFFCURVE",
"202 660 OFFCURVE",
"298 660 CURVE SMOOTH",
"479 660 OFFCURVE",
"559 515 OFFCURVE",
"559 341 CURVE SMOOTH",
"559 185 OFFCURVE",
"486 39 OFFCURVE",
"327 39 CURVE SMOOTH",
"181 39 OFFCURVE",
"133 180 OFFCURVE",
"132 283 CURVE",
"573 283 LINE",
"573 333 LINE",
"33 333 LINE",
"33 303 LINE SMOOTH",
"33 132 OFFCURVE",
"119 -10 OFFCURVE",
"330 -10 CURVE SMOOTH"
);
}
);
width = 692;
}
);
note = uni018F;
unicode = 018F;
},
{
glyphname = Tbar;
lastChange = "2017-12-19 05:21:12 +0000";
layers = (
{
components = (
{
name = T;
}
);
layerId = "0B1DFD06-3317-40CA-B510-4969A0718C16";
paths = (
{
closed = 1;
nodes = (
"520 317 LINE",
"520 363 LINE",
"134 363 LINE",
"134 317 LINE"
);
}
);
width = 652;
}
);
leftKerningGroup = T;
note = Tbar;
rightKerningGroup = T;
unicode = 0166;
},
{
glyphname = Uacute;
lastChange = "2017-12-19 05:21:12 +0000";
layers = (
{
background = {
paths = (
{
closed = 1;
nodes = (
"539 -10 OFFCURVE",
"636 51 OFFCURVE",
"636 204 CURVE SMOOTH",
"636 637 LINE SMOOTH",
"636 662 OFFCURVE",
"660 673 OFFCURVE",
"690 673 CURVE SMOOTH",
"713 673 LINE",
"713 700 LINE",
"510 700 LINE",
"510 673 LINE",
"532 673 LINE SMOOTH",
"564 673 OFFCURVE",
"586 662 OFFCURVE",
"586 637 CURVE SMOOTH",
"586 197 LINE SMOOTH",
"586 65 OFFCURVE",
"489 31 OFFCURVE",
"397 31 CURVE SMOOTH",
"290 31 OFFCURVE",
"203 63 OFFCURVE",
"203 197 CURVE SMOOTH",
"203 637 LINE SMOOTH",
"203 662 OFFCURVE",
"226 673 OFFCURVE",
"257 673 CURVE SMOOTH",
"280 673 LINE",
"280 700 LINE",
"28 700 LINE",
"28 673 LINE",
"51 673 LINE SMOOTH",
"82 673 OFFCURVE",
"105 662 OFFCURVE",
"105 637 CURVE SMOOTH",
"105 204 LINE SMOOTH",
"105 46 OFFCURVE",
"208 -10 OFFCURVE",
"375 -10 CURVE SMOOTH"
);
},
{
closed = 1;
nodes = (
"447 865 LINE SMOOTH",
"469 877 OFFCURVE",
"481 890 OFFCURVE",
"481 907 CURVE SMOOTH",
"481 922 OFFCURVE",
"469 937 OFFCURVE",
"447 937 CURVE SMOOTH",
"426 937 OFFCURVE",
"411 921 OFFCURVE",
"403 914 CURVE SMOOTH",
"288 807 LINE",
"305 782 LINE"
);
}
);
};
components = (
{
name = U;
},
{
name = acute;
transform = "{1, 0, 0, 1, 136, 230}";
}
);
layerId = "0B1DFD06-3317-40CA-B510-4969A0718C16";
width = 742;
}
);
leftKerningGroup = U;
note = Uacute;
rightKerningGroup = U;
unicode = 00DA;
},
{
glyphname = Ubreve;
lastChange = "2017-12-19 05:21:12 +0000";
layers = (
{
background = {
paths = (
{
closed = 1;
nodes = (
"539 -10 OFFCURVE",
"636 51 OFFCURVE",
"636 204 CURVE SMOOTH",
"636 637 LINE SMOOTH",
"636 662 OFFCURVE",
"660 673 OFFCURVE",
"690 673 CURVE SMOOTH",
"713 673 LINE",
"713 700 LINE",
"510 700 LINE",
"510 673 LINE",
"532 673 LINE SMOOTH",
"564 673 OFFCURVE",
"586 662 OFFCURVE",
"586 637 CURVE SMOOTH",
"586 197 LINE SMOOTH",
"586 65 OFFCURVE",
"489 31 OFFCURVE",
"397 31 CURVE SMOOTH",
"290 31 OFFCURVE",
"203 63 OFFCURVE",
"203 197 CURVE SMOOTH",
"203 637 LINE SMOOTH",
"203 662 OFFCURVE",
"226 673 OFFCURVE",
"257 673 CURVE SMOOTH",
"280 673 LINE",
"280 700 LINE",
"28 700 LINE",
"28 673 LINE",
"51 673 LINE SMOOTH",
"82 673 OFFCURVE",
"105 662 OFFCURVE",
"105 637 CURVE SMOOTH",
"105 204 LINE SMOOTH",
"105 46 OFFCURVE",
"208 -10 OFFCURVE",
"375 -10 CURVE SMOOTH"
);
},
{
closed = 1;
nodes = (
"483 774 OFFCURVE",
"525 830 OFFCURVE",
"529 905 CURVE",
"496 905 LINE",
"490 846 OFFCURVE",
"448 820 OFFCURVE",
"384 820 CURVE SMOOTH",
"320 820 OFFCURVE",
"277 846 OFFCURVE",
"270 905 CURVE",
"237 905 LINE",
"241 827 OFFCURVE",
"283 774 OFFCURVE",
"384 774 CURVE SMOOTH"
);
}
);
};
components = (
{
name = U;
},
{
name = breve;
transform = "{1, 0, 0, 1, 148, 230}";
}
);
layerId = "0B1DFD06-3317-40CA-B510-4969A0718C16";
width = 742;
}
);
leftKerningGroup = U;
note = Ubreve;
rightKerningGroup = U;
unicode = 016C;
},
{
glyphname = Ucaron;
lastChange = "2017-12-19 05:21:12 +0000";
layers = (
{
background = {
paths = (
{
closed = 1;
nodes = (
"539 -10 OFFCURVE",
"636 51 OFFCURVE",
"636 204 CURVE SMOOTH",
"636 637 LINE SMOOTH",
"636 662 OFFCURVE",
"660 673 OFFCURVE",
"690 673 CURVE SMOOTH",
"713 673 LINE",
"713 700 LINE",
"510 700 LINE",
"510 673 LINE",
"532 673 LINE SMOOTH",
"564 673 OFFCURVE",
"586 662 OFFCURVE",
"586 637 CURVE SMOOTH",
"586 197 LINE SMOOTH",
"586 65 OFFCURVE",
"489 31 OFFCURVE",
"397 31 CURVE SMOOTH",
"290 31 OFFCURVE",
"203 63 OFFCURVE",
"203 197 CURVE SMOOTH",
"203 637 LINE SMOOTH",
"203 662 OFFCURVE",
"226 673 OFFCURVE",
"257 673 CURVE SMOOTH",
"280 673 LINE",
"280 700 LINE",
"28 700 LINE",
"28 673 LINE",
"51 673 LINE SMOOTH",
"82 673 OFFCURVE",
"105 662 OFFCURVE",
"105 637 CURVE SMOOTH",
"105 204 LINE SMOOTH",
"105 46 OFFCURVE",
"208 -10 OFFCURVE",
"375 -10 CURVE SMOOTH"
);
},
{
closed = 1;
nodes = (
"397 782 LINE",
"521 911 LINE",
"502 932 LINE",
"394 847 LINE",
"386 840 OFFCURVE",
"377 836 OFFCURVE",
"371 836 CURVE SMOOTH",
"365 836 OFFCURVE",
"357 840 OFFCURVE",
"347 847 CURVE",
"239 932 LINE",
"220 911 LINE",
"344 782 LINE"
);
}
);
};
components = (
{
name = U;
},
{
name = caron;
transform = "{1, 0, 0, 1, 148, 230}";
}
);
layerId = "0B1DFD06-3317-40CA-B510-4969A0718C16";
width = 742;
}
);
leftKerningGroup = U;
note = Ucaron;
rightKerningGroup = U;
unicode = 01D3;
},
{
glyphname = Ucircumflex;
lastChange = "2017-12-19 05:21:12 +0000";
layers = (
{
background = {
paths = (
{
closed = 1;
nodes = (
"539 -10 OFFCURVE",
"636 51 OFFCURVE",
"636 204 CURVE SMOOTH",
"636 637 LINE SMOOTH",
"636 662 OFFCURVE",
"660 673 OFFCURVE",
"690 673 CURVE SMOOTH",
"713 673 LINE",
"713 700 LINE",
"510 700 LINE",
"510 673 LINE",
"532 673 LINE SMOOTH",
"564 673 OFFCURVE",
"586 662 OFFCURVE",
"586 637 CURVE SMOOTH",
"586 197 LINE SMOOTH",
"586 65 OFFCURVE",
"489 31 OFFCURVE",
"397 31 CURVE SMOOTH",
"290 31 OFFCURVE",
"203 63 OFFCURVE",
"203 197 CURVE SMOOTH",
"203 637 LINE SMOOTH",
"203 662 OFFCURVE",
"226 673 OFFCURVE",
"257 673 CURVE SMOOTH",
"280 673 LINE",
"280 700 LINE",
"28 700 LINE",
"28 673 LINE",
"51 673 LINE SMOOTH",
"82 673 OFFCURVE",
"105 662 OFFCURVE",
"105 637 CURVE SMOOTH",
"105 204 LINE SMOOTH",
"105 46 OFFCURVE",
"208 -10 OFFCURVE",
"375 -10 CURVE SMOOTH"
);
},
{
closed = 1;
nodes = (
"360 868 LINE SMOOTH",
"368 874 OFFCURVE",
"378 879 OFFCURVE",
"384 879 CURVE SMOOTH",
"390 879 OFFCURVE",
"398 874 OFFCURVE",
"407 868 CURVE",
"515 782 LINE",
"534 803 LINE",
"410 932 LINE",
"357 932 LINE",
"233 803 LINE",
"252 782 LINE"
);
}
);
};
components = (
{
name = U;
},
{
name = circumflex;
transform = "{1, 0, 0, 1, 148, 230}";
}
);
layerId = "0B1DFD06-3317-40CA-B510-4969A0718C16";
width = 742;
}
);
leftKerningGroup = U;
note = Ucircumflex;
rightKerningGroup = U;
unicode = 00DB;
},
{
glyphname = Udieresis;
lastChange = "2017-12-19 05:21:12 +0000";
layers = (
{
background = {
paths = (
{
closed = 1;
nodes = (
"539 -10 OFFCURVE",
"636 51 OFFCURVE",
"636 204 CURVE SMOOTH",
"636 637 LINE SMOOTH",
"636 662 OFFCURVE",
"660 673 OFFCURVE",
"690 673 CURVE SMOOTH",
"713 673 LINE",
"713 700 LINE",
"510 700 LINE",
"510 673 LINE",
"532 673 LINE SMOOTH",
"564 673 OFFCURVE",
"586 662 OFFCURVE",
"586 637 CURVE SMOOTH",
"586 197 LINE SMOOTH",
"586 65 OFFCURVE",
"489 31 OFFCURVE",
"397 31 CURVE SMOOTH",
"290 31 OFFCURVE",
"203 63 OFFCURVE",
"203 197 CURVE SMOOTH",
"203 637 LINE SMOOTH",
"203 662 OFFCURVE",
"226 673 OFFCURVE",
"257 673 CURVE SMOOTH",
"280 673 LINE",
"280 700 LINE",
"28 700 LINE",
"28 673 LINE",
"51 673 LINE SMOOTH",
"82 673 OFFCURVE",
"105 662 OFFCURVE",
"105 637 CURVE SMOOTH",
"105 204 LINE SMOOTH",
"105 46 OFFCURVE",
"208 -10 OFFCURVE",
"375 -10 CURVE SMOOTH"
);
},
{
closed = 1;
nodes = (
"304 781 OFFCURVE",
"322 800 OFFCURVE",
"322 827 CURVE SMOOTH",
"322 855 OFFCURVE",
"304 875 OFFCURVE",
"275 875 CURVE SMOOTH",
"247 875 OFFCURVE",
"229 855 OFFCURVE",
"229 827 CURVE SMOOTH",
"229 800 OFFCURVE",
"247 781 OFFCURVE",
"275 781 CURVE SMOOTH"
);
},
{
closed = 1;
nodes = (
"520 781 OFFCURVE",
"538 800 OFFCURVE",
"538 827 CURVE SMOOTH",
"538 855 OFFCURVE",
"520 875 OFFCURVE",
"491 875 CURVE SMOOTH",
"462 875 OFFCURVE",
"444 855 OFFCURVE",
"444 827 CURVE SMOOTH",
"444 800 OFFCURVE",
"462 781 OFFCURVE",
"491 781 CURVE SMOOTH"
);
}
);
};
components = (
{
name = U;
},
{
name = dieresis;
transform = "{1, 0, 0, 1, 148, 230}";
}
);
layerId = "0B1DFD06-3317-40CA-B510-4969A0718C16";
width = 742;
}
);
leftKerningGroup = U;
note = Udieresis;
rightKerningGroup = U;
unicode = 00DC;
},
{
glyphname = Udieresisacute;
lastChange = "2017-12-19 05:21:12 +0000";
layers = (
{
background = {
paths = (
{
closed = 1;
nodes = (
"539 -10 OFFCURVE",
"636 51 OFFCURVE",
"636 204 CURVE SMOOTH",
"636 637 LINE SMOOTH",
"636 662 OFFCURVE",
"660 673 OFFCURVE",
"690 673 CURVE SMOOTH",
"713 673 LINE",
"713 700 LINE",
"510 700 LINE",
"510 673 LINE",
"532 673 LINE SMOOTH",
"564 673 OFFCURVE",
"586 662 OFFCURVE",
"586 637 CURVE SMOOTH",
"586 197 LINE SMOOTH",
"586 65 OFFCURVE",
"489 31 OFFCURVE",
"397 31 CURVE SMOOTH",
"290 31 OFFCURVE",
"203 63 OFFCURVE",
"203 197 CURVE SMOOTH",
"203 637 LINE SMOOTH",
"203 662 OFFCURVE",
"226 673 OFFCURVE",
"257 673 CURVE SMOOTH",
"280 673 LINE",
"280 700 LINE",
"28 700 LINE",
"28 673 LINE",
"51 673 LINE SMOOTH",
"82 673 OFFCURVE",
"105 662 OFFCURVE",
"105 637 CURVE SMOOTH",
"105 204 LINE SMOOTH",
"105 46 OFFCURVE",
"208 -10 OFFCURVE",
"375 -10 CURVE SMOOTH"
);
},
{
closed = 1;
nodes = (
"291 780 OFFCURVE",
"310 799 OFFCURVE",
"310 827 CURVE SMOOTH",
"310 855 OFFCURVE",
"291 875 OFFCURVE",
"262 875 CURVE SMOOTH",
"235 875 OFFCURVE",
"216 855 OFFCURVE",
"216 827 CURVE SMOOTH",
"216 799 OFFCURVE",
"235 780 OFFCURVE",
"262 780 CURVE SMOOTH"
);
},
{
closed = 1;
nodes = (
"507 780 OFFCURVE",
"526 799 OFFCURVE",
"526 827 CURVE SMOOTH",
"526 855 OFFCURVE",
"507 875 OFFCURVE",
"479 875 CURVE SMOOTH",
"451 875 OFFCURVE",
"432 855 OFFCURVE",
"432 827 CURVE SMOOTH",
"432 799 OFFCURVE",
"451 780 OFFCURVE",
"479 780 CURVE SMOOTH"
);
},
{
closed = 1;
nodes = (
"481 969 LINE SMOOTH",
"502 981 OFFCURVE",
"512 993 OFFCURVE",
"512 1009 CURVE SMOOTH",
"512 1024 OFFCURVE",
"503 1037 OFFCURVE",
"481 1037 CURVE SMOOTH",
"460 1037 OFFCURVE",
"442 1020 OFFCURVE",
"435 1013 CURVE SMOOTH",
"344 924 LINE",
"362 899 LINE"
);
}
);
};
components = (
{
name = U;
},
{
name = dieresisacute;
transform = "{1, 0, 0, 1, 149, 230}";
}
);
layerId = "0B1DFD06-3317-40CA-B510-4969A0718C16";
width = 742;
}
);
leftKerningGroup = U;
note = Udieresisacute;
rightKerningGroup = U;
unicode = 01D7;
},
{
glyphname = Udieresiscaron;
lastChange = "2017-12-19 05:21:12 +0000";
layers = (
{
background = {
paths = (
{
closed = 1;
nodes = (
"539 -10 OFFCURVE",
"636 51 OFFCURVE",
"636 204 CURVE SMOOTH",
"636 637 LINE SMOOTH",
"636 662 OFFCURVE",
"660 673 OFFCURVE",
"690 673 CURVE SMOOTH",
"713 673 LINE",
"713 700 LINE",
"510 700 LINE",
"510 673 LINE",
"532 673 LINE SMOOTH",
"564 673 OFFCURVE",
"586 662 OFFCURVE",
"586 637 CURVE SMOOTH",
"586 197 LINE SMOOTH",
"586 65 OFFCURVE",
"489 31 OFFCURVE",
"397 31 CURVE SMOOTH",
"290 31 OFFCURVE",
"203 63 OFFCURVE",
"203 197 CURVE SMOOTH",
"203 637 LINE SMOOTH",
"203 662 OFFCURVE",
"226 673 OFFCURVE",
"257 673 CURVE SMOOTH",
"280 673 LINE",
"280 700 LINE",
"28 700 LINE",
"28 673 LINE",
"51 673 LINE SMOOTH",
"82 673 OFFCURVE",
"105 662 OFFCURVE",
"105 637 CURVE SMOOTH",
"105 204 LINE SMOOTH",
"105 46 OFFCURVE",
"208 -10 OFFCURVE",
"375 -10 CURVE SMOOTH"
);
},
{
closed = 1;
nodes = (
"296 780 OFFCURVE",
"315 799 OFFCURVE",
"315 827 CURVE SMOOTH",
"315 855 OFFCURVE",
"296 875 OFFCURVE",
"267 875 CURVE SMOOTH",
"240 875 OFFCURVE",
"221 855 OFFCURVE",
"221 827 CURVE SMOOTH",
"221 799 OFFCURVE",
"240 780 OFFCURVE",
"267 780 CURVE SMOOTH"
);
},
{
closed = 1;
nodes = (
"512 780 OFFCURVE",
"531 799 OFFCURVE",
"531 827 CURVE SMOOTH",
"531 855 OFFCURVE",
"512 875 OFFCURVE",
"484 875 CURVE SMOOTH",
"456 875 OFFCURVE",
"437 855 OFFCURVE",
"437 827 CURVE SMOOTH",
"437 799 OFFCURVE",
"456 780 OFFCURVE",
"484 780 CURVE SMOOTH"
);
},
{
closed = 1;
nodes = (
"401 911 LINE",
"523 1035 LINE",
"505 1056 LINE",
"404 978 LINE",
"394 971 OFFCURVE",
"385 963 OFFCURVE",
"376 963 CURVE SMOOTH",
"369 963 OFFCURVE",
"357 971 OFFCURVE",
"347 978 CURVE",
"246 1056 LINE",
"228 1035 LINE",
"350 911 LINE"
);
}
);
};
components = (
{
name = U;
},
{
name = dieresiscaron;
transform = "{1, 0, 0, 1, 149, 230}";
}
);
layerId = "0B1DFD06-3317-40CA-B510-4969A0718C16";
width = 742;
}
);
leftKerningGroup = U;
note = Udieresiscaron;
rightKerningGroup = U;
unicode = 01D9;
},
{
glyphname = Udieresisgrave;
lastChange = "2017-12-19 05:21:12 +0000";
layers = (
{
background = {
paths = (
{
closed = 1;
nodes = (
"539 -10 OFFCURVE",
"636 51 OFFCURVE",
"636 204 CURVE SMOOTH",
"636 637 LINE SMOOTH",
"636 662 OFFCURVE",
"660 673 OFFCURVE",
"690 673 CURVE SMOOTH",
"713 673 LINE",
"713 700 LINE",
"510 700 LINE",
"510 673 LINE",
"532 673 LINE SMOOTH",
"564 673 OFFCURVE",
"586 662 OFFCURVE",
"586 637 CURVE SMOOTH",
"586 197 LINE SMOOTH",
"586 65 OFFCURVE",
"489 31 OFFCURVE",
"397 31 CURVE SMOOTH",
"290 31 OFFCURVE",
"203 63 OFFCURVE",
"203 197 CURVE SMOOTH",
"203 637 LINE SMOOTH",
"203 662 OFFCURVE",
"226 673 OFFCURVE",
"257 673 CURVE SMOOTH",
"280 673 LINE",
"280 700 LINE",
"28 700 LINE",
"28 673 LINE",
"51 673 LINE SMOOTH",
"82 673 OFFCURVE",
"105 662 OFFCURVE",
"105 637 CURVE SMOOTH",
"105 204 LINE SMOOTH",
"105 46 OFFCURVE",
"208 -10 OFFCURVE",
"375 -10 CURVE SMOOTH"
);
},
{
closed = 1;
nodes = (
"296 780 OFFCURVE",
"315 799 OFFCURVE",
"315 827 CURVE SMOOTH",
"315 855 OFFCURVE",
"296 875 OFFCURVE",
"267 875 CURVE SMOOTH",
"240 875 OFFCURVE",
"221 855 OFFCURVE",
"221 827 CURVE SMOOTH",
"221 799 OFFCURVE",
"240 780 OFFCURVE",
"267 780 CURVE SMOOTH"
);
},
{
closed = 1;
nodes = (
"403 924 LINE",
"312 1013 LINE SMOOTH",
"305 1020 OFFCURVE",
"288 1036 OFFCURVE",
"267 1036 CURVE SMOOTH",
"245 1036 OFFCURVE",
"235 1024 OFFCURVE",
"235 1009 CURVE SMOOTH",
"235 993 OFFCURVE",
"245 981 OFFCURVE",
"266 969 CURVE SMOOTH",
"385 899 LINE"
);
},
{
closed = 1;
nodes = (
"512 780 OFFCURVE",
"531 799 OFFCURVE",
"531 827 CURVE SMOOTH",
"531 855 OFFCURVE",
"512 875 OFFCURVE",
"484 875 CURVE SMOOTH",
"456 875 OFFCURVE",
"437 855 OFFCURVE",
"437 827 CURVE SMOOTH",
"437 799 OFFCURVE",
"456 780 OFFCURVE",
"484 780 CURVE SMOOTH"
);
}
);
};
components = (
{
name = U;
},
{
name = dieresisgrave;
transform = "{1, 0, 0, 1, 149, 230}";
}
);
layerId = "0B1DFD06-3317-40CA-B510-4969A0718C16";
width = 742;
}
);
leftKerningGroup = U;
note = Udieresisgrave;
rightKerningGroup = U;
unicode = 01DB;
},
{
glyphname = Udieresismacron;
lastChange = "2017-12-19 05:21:12 +0000";
layers = (
{
background = {
paths = (
{
closed = 1;
nodes = (
"539 -10 OFFCURVE",
"636 51 OFFCURVE",
"636 204 CURVE SMOOTH",
"636 637 LINE SMOOTH",
"636 662 OFFCURVE",
"660 673 OFFCURVE",
"690 673 CURVE SMOOTH",
"713 673 LINE",
"713 700 LINE",
"510 700 LINE",
"510 673 LINE",
"532 673 LINE SMOOTH",
"564 673 OFFCURVE",
"586 662 OFFCURVE",
"586 637 CURVE SMOOTH",
"586 197 LINE SMOOTH",
"586 65 OFFCURVE",
"489 31 OFFCURVE",
"397 31 CURVE SMOOTH",
"290 31 OFFCURVE",
"203 63 OFFCURVE",
"203 197 CURVE SMOOTH",
"203 637 LINE SMOOTH",
"203 662 OFFCURVE",
"226 673 OFFCURVE",
"257 673 CURVE SMOOTH",
"280 673 LINE",
"280 700 LINE",
"28 700 LINE",
"28 673 LINE",
"51 673 LINE SMOOTH",
"82 673 OFFCURVE",
"105 662 OFFCURVE",
"105 637 CURVE SMOOTH",
"105 204 LINE SMOOTH",
"105 46 OFFCURVE",
"208 -10 OFFCURVE",
"375 -10 CURVE SMOOTH"
);
},
{
closed = 1;
nodes = (
"291 781 OFFCURVE",
"309 800 OFFCURVE",
"309 827 CURVE SMOOTH",
"309 855 OFFCURVE",
"291 875 OFFCURVE",
"262 875 CURVE SMOOTH",
"234 875 OFFCURVE",
"216 855 OFFCURVE",
"216 827 CURVE SMOOTH",
"216 800 OFFCURVE",
"234 781 OFFCURVE",
"262 781 CURVE SMOOTH"
);
},
{
closed = 1;
nodes = (
"507 781 OFFCURVE",
"525 800 OFFCURVE",
"525 827 CURVE SMOOTH",
"525 855 OFFCURVE",
"507 875 OFFCURVE",
"478 875 CURVE SMOOTH",
"449 875 OFFCURVE",
"431 855 OFFCURVE",
"431 827 CURVE SMOOTH",
"431 800 OFFCURVE",
"449 781 OFFCURVE",
"478 781 CURVE SMOOTH"
);
},
{
closed = 1;
nodes = (
"537 928 LINE",
"537 970 LINE",
"204 970 LINE",
"204 928 LINE"
);
}
);
};
components = (
{
name = U;
},
{
name = dieresis;
transform = "{1, 0, 0, 1, 148, 230}";
},
{
alignment = -1;
name = macron;
transform = "{1, 0, 0, 1, 145, 356}";
}
);
layerId = "0B1DFD06-3317-40CA-B510-4969A0718C16";
width = 742;
}
);
leftKerningGroup = U;
note = Udieresismacron;
rightKerningGroup = U;
unicode = 01D5;
},
{
glyphname = Uhorn;
lastChange = "2017-12-19 08:30:26 +0000";
layers = (
{
layerId = "0B1DFD06-3317-40CA-B510-4969A0718C16";
paths = (
{
closed = 1;
nodes = (
"969 682 OFFCURVE",
"971 685 OFFCURVE",
"971 694 CURVE SMOOTH",
"971 704 OFFCURVE",
"966 720 OFFCURVE",
"958 720 CURVE SMOOTH",
"945 720 OFFCURVE",
"896 700 OFFCURVE",
"878 696 CURVE",
"853 683 OFFCURVE",
"844 670 OFFCURVE",
"835 646 CURVE SMOOTH",
"764 438 OFFCURVE",
"596 40 OFFCURVE",
"372 40 CURVE SMOOTH",
"264 40 OFFCURVE",
"226 83 OFFCURVE",
"223 169 CURVE SMOOTH",
"218 259 OFFCURVE",
"342 526 OFFCURVE",
"393 633 CURVE SMOOTH",
"403 656 OFFCURVE",
"428 653 OFFCURVE",
"446 658 CURVE",
"452 659 OFFCURVE",
"458 658 OFFCURVE",
"459 668 CURVE",
"459 671 OFFCURVE",
"456 706 OFFCURVE",
"451 706 CURVE SMOOTH",
"445 706 OFFCURVE",
"347 697 OFFCURVE",
"194 697 CURVE SMOOTH",
"186 697 OFFCURVE",
"182 687 OFFCURVE",
"183 676 CURVE",
"183 662 OFFCURVE",
"190 646 OFFCURVE",
"200 646 CURVE SMOOTH",
"290 646 LINE SMOOTH",
"308 646 OFFCURVE",
"318 640 OFFCURVE",
"318 627 CURVE SMOOTH",
"318 624 OFFCURVE",
"317 618 OFFCURVE",
"317 613 CURVE",
"290 501 OFFCURVE",
"150 281 OFFCURVE",
"154 148 CURVE SMOOTH",
"159 33 OFFCURVE",
"243 -18 OFFCURVE",
"336 -18 CURVE SMOOTH",
"486 -18 OFFCURVE",
"574 31 OFFCURVE",
"689 203 CURVE",
"690 203 OFFCURVE",
"693 202 OFFCURVE",
"695 200 CURVE",
"695 196 OFFCURVE",
"671 133 OFFCURVE",
"671 80 CURVE",
"675 31 OFFCURVE",
"699 -25 OFFCURVE",
"800 -25 CURVE SMOOTH",
"868 -25 OFFCURVE",
"915 -1 OFFCURVE",
"971 27 CURVE",
"975 29 OFFCURVE",
"975 32 OFFCURVE",
"973 36 CURVE",
"973 49 OFFCURVE",
"960 73 OFFCURVE",
"951 73 CURVE SMOOTH",
"947 73 OFFCURVE",
"883 29 OFFCURVE",
"828 29 CURVE SMOOTH",
"765 29 OFFCURVE",
"738 43 OFFCURVE",
"734 104 CURVE",
"731 261 OFFCURVE",
"832 520 OFFCURVE",
"927 663 CURVE SMOOTH",
"935 676 OFFCURVE",
"957 681 OFFCURVE",
"965 682 CURVE"
);
},
{
closed = 1;
nodes = (
"803 534 LINE",
"797 483 OFFCURVE",
"829 437 OFFCURVE",
"872 427 CURVE SMOOTH",
"964 405 OFFCURVE",
"1004 493 OFFCURVE",
"1004 532 CURVE",
"1003 547 OFFCURVE",
"1002 569 OFFCURVE",
"994 582 CURVE",
"990 585 OFFCURVE",
"971 593 OFFCURVE",
"958 584 CURVE",
"963 575 OFFCURVE",
"965 565 OFFCURVE",
"965 557 CURVE SMOOTH",
"965 512 OFFCURVE",
"938 468 OFFCURVE",
"888 481 CURVE SMOOTH",
"837 494 OFFCURVE",
"819 530 OFFCURVE",
"823 550 CURVE"
);
}
);
width = 956;
}
);
note = Uhorn;
unicode = 01AF;
},
{
color = 0;
glyphname = "alpha-latin";
lastChange = "2017-12-19 05:24:05 +0000";
layers = (
{
layerId = "0B1DFD06-3317-40CA-B510-4969A0718C16";
paths = (
{
closed = 1;
nodes = (
"304 -10 OFFCURVE",
"357 10 OFFCURVE",
"393 69 CURVE",
"393 37 LINE SMOOTH",
"393 0 OFFCURVE",
"429 -10 OFFCURVE",
"461 -10 CURVE SMOOTH",
"491 -10 OFFCURVE",
"523 -1 OFFCURVE",
"545 17 CURVE",
"545 34 LINE",
"531 29 OFFCURVE",
"519 26 OFFCURVE",
"510 26 CURVE SMOOTH",
"494 26 OFFCURVE",
"486 36 OFFCURVE",
"486 58 CURVE SMOOTH",
"486 403 LINE",
"452 444 OFFCURVE",
"374 480 OFFCURVE",
"279 480 CURVE SMOOTH",
"141 480 OFFCURVE",
"26 405 OFFCURVE",
"26 215 CURVE SMOOTH",
"26 67 OFFCURVE",
"96 -10 OFFCURVE",
"234 -10 CURVE SMOOTH"
);
},
{
closed = 1;
nodes = (
"152 28 OFFCURVE",
"119 116 OFFCURVE",
"119 222 CURVE SMOOTH",
"119 370 OFFCURVE",
"183 441 OFFCURVE",
"279 441 CURVE SMOOTH",
"330 441 OFFCURVE",
"368 421 OFFCURVE",
"392 398 CURVE",
"392 169 LINE SMOOTH",
"392 98 OFFCURVE",
"346 28 OFFCURVE",
"255 28 CURVE SMOOTH"
);
}
);
width = 558;
}
);
leftKerningGroup = a;
note = ascript;
rightKerningGroup = a;
unicode = 0251;
},
{
glyphname = ae;
lastChange = "2017-12-19 08:30:40 +0000";
layers = (
{
layerId = "0B1DFD06-3317-40CA-B510-4969A0718C16";
paths = (
{
closed = 1;
nodes = (
"465 198 OFFCURVE",
"563 263 OFFCURVE",
"559 331 CURVE SMOOTH",
"556 375 OFFCURVE",
"533 393 OFFCURVE",
"496 393 CURVE SMOOTH",
"450 393 OFFCURVE",
"406 367 OFFCURVE",
"364 325 CURVE",
"383 371 OFFCURVE",
"405 428 OFFCURVE",
"414 441 CURVE",
"411 443 LINE",
"364 428 LINE",
"355 424 OFFCURVE",
"347 420 OFFCURVE",
"343 396 CURVE",
"152 396 OFFCURVE",
"21 253 OFFCURVE",
"27 88 CURVE",
"27 49 OFFCURVE",
"71 -6 OFFCURVE",
"102 -6 CURVE SMOOTH",
"163 -6 OFFCURVE",
"218 37 OFFCURVE",
"261 113 CURVE",
"261 102 LINE",
"264 31 OFFCURVE",
"314 -13 OFFCURVE",
"370 -13 CURVE SMOOTH",
"507 -13 OFFCURVE",
"627 112 OFFCURVE",
"684 213 CURVE",
"683 219 OFFCURVE",
"660 234 OFFCURVE",
"656 230 CURVE",
"614 150 OFFCURVE",
"505 37 OFFCURVE",
"397 37 CURVE SMOOTH",
"342 37 OFFCURVE",
"322 56 OFFCURVE",
"319 114 CURVE SMOOTH",
"318 154 OFFCURVE",
"327 180 OFFCURVE",
"332 198 CURVE"
);
},
{
closed = 1;
nodes = (
"331 359 LINE",
"308 311 OFFCURVE",
"295 258 OFFCURVE",
"273 201 CURVE",
"225 101 OFFCURVE",
"154 39 OFFCURVE",
"119 39 CURVE SMOOTH",
"105 39 OFFCURVE",
"94 67 OFFCURVE",
"93 100 CURVE SMOOTH",
"89 205 OFFCURVE",
"175 362 OFFCURVE",
"330 362 CURVE"
);
},
{
closed = 1;
nodes = (
"380 305 OFFCURVE",
"434 351 OFFCURVE",
"482 351 CURVE SMOOTH",
"506 351 OFFCURVE",
"512 338 OFFCURVE",
"512 322 CURVE SMOOTH",
"512 274 OFFCURVE",
"439 239 OFFCURVE",
"389 239 CURVE SMOOTH",
"381 239 OFFCURVE",
"367 242 OFFCURVE",
"361 243 CURVE"
);
}
);
width = 509;
}
);
note = ae;
unicode = 00E6;
},
{
glyphname = eth;
lastChange = "2017-12-19 08:31:04 +0000";
layers = (
{
layerId = "0B1DFD06-3317-40CA-B510-4969A0718C16";
paths = (
{
closed = 1;
nodes = (
"2 671 OFFCURVE",
"36 690 OFFCURVE",
"101 710 CURVE SMOOTH",
"150 726 LINE",
"251 596 OFFCURVE",
"288 450 OFFCURVE",
"292 407 CURVE",
"292 401 OFFCURVE",
"289 396 OFFCURVE",
"283 393 CURVE",
"148 342 OFFCURVE",
"48 212 OFFCURVE",
"51 107 CURVE SMOOTH",
"55 31 OFFCURVE",
"100 -10 OFFCURVE",
"154 -10 CURVE SMOOTH",
"292 -10 OFFCURVE",
"353 151 OFFCURVE",
"347 301 CURVE SMOOTH",
"339 478 OFFCURVE",
"290 630 OFFCURVE",
"219 747 CURVE",
"287 766 OFFCURVE",
"322 775 OFFCURVE",
"325 772 CURVE SMOOTH",
"326 771 OFFCURVE",
"328 771 OFFCURVE",
"332 771 CURVE SMOOTH",
"339 771 OFFCURVE",
"331 806 OFFCURVE",
"315 806 CURVE",
"201 772 LINE",
"83 947 OFFCURVE",
"-86 1025 OFFCURVE",
"-209 952 CURVE",
"-57 925 OFFCURVE",
"51 846 OFFCURVE",
"129 751 CURVE",
"108 745 LINE SMOOTH",
"14 716 OFFCURVE",
"-4 706 OFFCURVE",
"-23 706 CURVE SMOOTH",
"-24 706 OFFCURVE",
"-25 704 OFFCURVE",
"-27 702 CURVE",
"-27 697 OFFCURVE",
"-11 671 OFFCURVE",
"4 671 CURVE"
);
},
{
closed = 1;
nodes = (
"298 358 OFFCURVE",
"303 327 OFFCURVE",
"305 294 CURVE SMOOTH",
"311 162 OFFCURVE",
"252 32 OFFCURVE",
"164 32 CURVE SMOOTH",
"140 32 OFFCURVE",
"112 45 OFFCURVE",
"108 106 CURVE SMOOTH",
"105 200 OFFCURVE",
"200 326 OFFCURVE",
"293 358 CURVE"
);
}
);
width = 395;
}
);
note = eth;
unicode = 00F0;
},
{
color = 0;
glyphname = dcaron;
lastChange = "2017-12-19 05:24:30 +0000";
layers = (
{
layerId = "0B1DFD06-3317-40CA-B510-4969A0718C16";
paths = (
{
closed = 1;
nodes = (
"321 -10 OFFCURVE",
"381 14 OFFCURVE",
"417 74 CURVE",
"422 -4 LINE",
"564 11 LINE",
"564 34 LINE",
"541 34 LINE SMOOTH",
"513 34 OFFCURVE",
"499 44 OFFCURVE",
"499 69 CURVE SMOOTH",
"499 717 LINE",
"474 717 LINE",
"349 672 LINE",
"355 649 LINE",
"365 653 OFFCURVE",
"377 657 OFFCURVE",
"385 657 CURVE SMOOTH",
"394 657 OFFCURVE",
"405 654 OFFCURVE",
"405 636 CURVE SMOOTH",
"405 410 LINE",
"363 467 OFFCURVE",
"298 480 OFFCURVE",
"242 480 CURVE SMOOTH",
"123 480 OFFCURVE",
"31 401 OFFCURVE",
"31 245 CURVE SMOOTH",
"31 60 OFFCURVE",
"118 -10 OFFCURVE",
"243 -10 CURVE SMOOTH"
);
},
{
closed = 1;
nodes = (
"160 28 OFFCURVE",
"124 120 OFFCURVE",
"124 242 CURVE SMOOTH",
"124 372 OFFCURVE",
"176 440 OFFCURVE",
"275 440 CURVE SMOOTH",
"337 440 OFFCURVE",
"406 392 OFFCURVE",
"406 320 CURVE SMOOTH",
"406 168 LINE SMOOTH",
"406 97 OFFCURVE",
"357 28 OFFCURVE",
"269 28 CURVE SMOOTH"
);
},
{
closed = 1;
nodes = (
"630 523 OFFCURVE",
"674 583 OFFCURVE",
"674 646 CURVE SMOOTH",
"674 694 OFFCURVE",
"650 714 OFFCURVE",
"621 714 CURVE SMOOTH",
"592 714 OFFCURVE",
"575 694 OFFCURVE",
"575 670 CURVE SMOOTH",
"575 636 OFFCURVE",
"610 629 OFFCURVE",
"610 594 CURVE SMOOTH",
"610 558 OFFCURVE",
"584 525 OFFCURVE",
"557 499 CURVE",
"574 482 LINE"
);
}
);
width = 686;
}
);
leftKerningGroup = d;
note = dcaron;
unicode = 010F;
},
{
glyphname = dcroat;
lastChange = "2017-12-19 08:31:04 +0000";
layers = (
{
layerId = "0B1DFD06-3317-40CA-B510-4969A0718C16";
paths = (
{
closed = 1;
nodes = (
"211 632 LINE",
"268 534 OFFCURVE",
"292 438 OFFCURVE",
"292 407 CURVE SMOOTH",
"292 401 OFFCURVE",
"289 396 OFFCURVE",
"283 393 CURVE",
"148 342 OFFCURVE",
"48 212 OFFCURVE",
"51 107 CURVE SMOOTH",
"55 31 OFFCURVE",
"100 -10 OFFCURVE",
"154 -10 CURVE SMOOTH",
"292 -10 OFFCURVE",
"353 151 OFFCURVE",
"347 301 CURVE SMOOTH",
"343 425 OFFCURVE",
"318 537 OFFCURVE",
"276 633 CURVE",
"306 633 OFFCURVE",
"339 634 OFFCURVE",
"402 634 CURVE SMOOTH",
"414 634 OFFCURVE",
"420 669 OFFCURVE",
"420 674 CURVE",
"419 677 OFFCURVE",
"414 679 OFFCURVE",
"407 679 CURVE SMOOTH",
"374 679 OFFCURVE",
"338 671 OFFCURVE",
"262 666 CURVE",
"148 914 OFFCURVE",
"-62 1036 OFFCURVE",
"-209 952 CURVE",
"-13 920 OFFCURVE",
"117 788 OFFCURVE",
"193 664 CURVE",
"154 664 LINE SMOOTH",
"139 664 OFFCURVE",
"123 665 OFFCURVE",
"27 665 CURVE SMOOTH",
"18 665 OFFCURVE",
"11 635 OFFCURVE",
"11 627 CURVE",
"12 625 OFFCURVE",
"15 624 OFFCURVE",
"21 624 CURVE SMOOTH",
"29 624 OFFCURVE",
"113 632 OFFCURVE",
"161 632 CURVE SMOOTH"
);
},
{
closed = 1;
nodes = (
"298 358 OFFCURVE",
"303 327 OFFCURVE",
"305 294 CURVE SMOOTH",
"311 162 OFFCURVE",
"252 32 OFFCURVE",
"164 32 CURVE SMOOTH",
"140 32 OFFCURVE",
"112 45 OFFCURVE",
"108 106 CURVE SMOOTH",
"105 200 OFFCURVE",
"200 326 OFFCURVE",
"293 358 CURVE"
);
}
);
width = 395;
}
);
note = dslash;
unicode = 0111;
},
{
color = 0;
glyphname = schwa;
lastChange = "2017-12-19 05:24:34 +0000";
layers = (
{
layerId = "0B1DFD06-3317-40CA-B510-4969A0718C16";
paths = (
{
closed = 1;
nodes = (
"396 -10 OFFCURVE",
"487 83 OFFCURVE",
"487 236 CURVE SMOOTH",
"487 393 OFFCURVE",
"392 480 OFFCURVE",
"246 480 CURVE SMOOTH",
"112 480 OFFCURVE",
"47 407 OFFCURVE",
"36 303 CURVE",
"65 303 LINE",
"83 407 OFFCURVE",
"154 444 OFFCURVE",
"225 444 CURVE SMOOTH",
"331 444 OFFCURVE",
"392 360 OFFCURVE",
"392 234 CURVE SMOOTH",
"392 121 OFFCURVE",
"343 28 OFFCURVE",
"242 28 CURVE SMOOTH",
"147 28 OFFCURVE",
"117 112 OFFCURVE",
"115 173 CURVE",
"403 173 LINE",
"403 212 LINE",
"32 212 LINE",
"32 189 LINE SMOOTH",
"32 77 OFFCURVE",
"100 -10 OFFCURVE",
"246 -10 CURVE SMOOTH"
);
}
);
width = 521;
}
);
note = schwa;
unicode = 0259;
},
{
color = 0;
glyphname = hbar;
lastChange = "2017-12-19 05:24:39 +0000";
layers = (
{
layerId = "0B1DFD06-3317-40CA-B510-4969A0718C16";
paths = (
{
closed = 1;
nodes = (
"600 0 LINE",
"600 25 LINE",
"582 25 LINE SMOOTH",
"552 25 OFFCURVE",
"528 34 OFFCURVE",
"528 57 CURVE SMOOTH",
"528 344 LINE SMOOTH",
"528 424 OFFCURVE",
"471 480 OFFCURVE",
"357 480 CURVE SMOOTH",
"265 480 OFFCURVE",
"194 424 OFFCURVE",
"178 373 CURVE",
"178 285 LINE",
"188 285 LINE",
"188 389 OFFCURVE",
"264 439 OFFCURVE",
"330 439 CURVE SMOOTH",
"396 439 OFFCURVE",
"434 404 OFFCURVE",
"434 332 CURVE SMOOTH",
"434 57 LINE SMOOTH",
"434 34 OFFCURVE",
"411 25 OFFCURVE",
"383 25 CURVE SMOOTH",
"367 25 LINE",
"367 0 LINE"
);
},
{
closed = 1;
nodes = (
"255 0 LINE",
"255 25 LINE",
"240 25 LINE SMOOTH",
"212 25 OFFCURVE",
"188 34 OFFCURVE",
"188 57 CURVE SMOOTH",
"188 717 LINE",
"163 717 LINE",
"37 672 LINE",
"44 649 LINE",
"54 653 OFFCURVE",
"66 657 OFFCURVE",
"73 657 CURVE SMOOTH",
"83 657 OFFCURVE",
"94 654 OFFCURVE",
"94 636 CURVE SMOOTH",
"94 57 LINE SMOOTH",
"94 34 OFFCURVE",
"71 25 OFFCURVE",
"41 25 CURVE SMOOTH",
"22 25 LINE",
"22 0 LINE"
);
},
{
closed = 1;
nodes = (
"339 559 LINE",
"339 594 LINE",
"40 594 LINE",
"40 559 LINE"
);
}
);
width = 622;
}
);
note = hbar;
rightKerningGroup = h;
unicode = 0127;
},
{
glyphname = idotless;
lastChange = "2017-12-19 08:31:30 +0000";
layers = (
{
layerId = "0B1DFD06-3317-40CA-B510-4969A0718C16";
paths = (
{
closed = 1;
nodes = (
"450 245 OFFCURVE",
"421 256 OFFCURVE",
"414 243 CURVE SMOOTH",
"375 171 OFFCURVE",
"281 49 OFFCURVE",
"189 49 CURVE SMOOTH",
"162 49 OFFCURVE",
"145 63 OFFCURVE",
"139 90 CURVE",
"126 138 OFFCURVE",
"157 248 OFFCURVE",
"218 356 CURVE SMOOTH",
"223 364 OFFCURVE",
"209 382 OFFCURVE",
"200 382 CURVE SMOOTH",
"190 382 OFFCURVE",
"157 368 OFFCURVE",
"146 349 CURVE",
"120 294 OFFCURVE",
"54 124 OFFCURVE",
"67 61 CURVE SMOOTH",
"76 8 OFFCURVE",
"129 0 OFFCURVE",
"161 0 CURVE SMOOTH",
"205 0 OFFCURVE",
"246 17 OFFCURVE",
"288 49 CURVE",
"344 88 OFFCURVE",
"407 158 OFFCURVE",
"446 234 CURVE"
);
}
);
width = 324;
}
);
note = dotlessi;
unicode = 0131;
},
{
color = 0;
glyphname = ij;
lastChange = "2017-12-19 05:24:49 +0000";
layers = (
{
layerId = "0B1DFD06-3317-40CA-B510-4969A0718C16";
paths = (
{
closed = 1;
nodes = (
"472 -107 OFFCURVE",
"516 -25 OFFCURVE",
"516 102 CURVE SMOOTH",
"516 473 LINE",
"491 473 LINE",
"365 428 LINE",
"372 406 LINE",
"383 410 OFFCURVE",
"394 414 OFFCURVE",
"402 414 CURVE SMOOTH",
"411 414 OFFCURVE",
"423 410 OFFCURVE",
"423 393 CURVE SMOOTH",
"423 97 LINE SMOOTH",
"423 -4 OFFCURVE",
"418 -72 OFFCURVE",
"326 -110 CURVE",
"331 -132 LINE"
);
},
{
closed = 1;
nodes = (
"265 0 LINE",
"265 25 LINE",
"246 25 LINE SMOOTH",
"217 25 OFFCURVE",
"193 34 OFFCURVE",
"193 57 CURVE SMOOTH",
"193 475 LINE",
"168 475 LINE",
"42 431 LINE",
"49 408 LINE",
"59 411 OFFCURVE",
"71 416 OFFCURVE",
"78 416 CURVE SMOOTH",
"88 416 OFFCURVE",
"99 412 OFFCURVE",
"99 394 CURVE SMOOTH",
"99 57 LINE SMOOTH",
"99 34 OFFCURVE",
"76 25 OFFCURVE",
"46 25 CURVE SMOOTH",
"27 25 LINE",
"27 0 LINE"
);
},
{
closed = 1;
nodes = (
"171 561 OFFCURVE",
"194 584 OFFCURVE",
"194 616 CURVE SMOOTH",
"194 649 OFFCURVE",
"171 671 OFFCURVE",
"138 671 CURVE SMOOTH",
"103 671 OFFCURVE",
"81 649 OFFCURVE",
"81 616 CURVE SMOOTH",
"81 584 OFFCURVE",
"103 561 OFFCURVE",
"138 561 CURVE SMOOTH"
);
},
{
closed = 1;
nodes = (
"499 561 OFFCURVE",
"522 584 OFFCURVE",
"522 616 CURVE SMOOTH",
"522 649 OFFCURVE",
"499 671 OFFCURVE",
"465 671 CURVE SMOOTH",
"431 671 OFFCURVE",
"409 649 OFFCURVE",
"409 616 CURVE SMOOTH",
"409 584 OFFCURVE",
"431 561 OFFCURVE",
"465 561 CURVE SMOOTH"
);
}
);
width = 598;
}
);
note = ij;
unicode = 0133;
},
{
color = 0;
glyphname = jdotless;
lastChange = "2017-12-19 05:24:51 +0000";
layers = (
{
anchors = (
{
name = bottom;
position = "{151, 0}";
},
{
name = top;
position = "{151, 470}";
}
);
layerId = "0B1DFD06-3317-40CA-B510-4969A0718C16";
paths = (
{
closed = 1;
nodes = (
"176 -107 OFFCURVE",
"220 -25 OFFCURVE",
"220 102 CURVE SMOOTH",
"220 473 LINE",
"195 473 LINE",
"69 428 LINE",
"76 406 LINE",
"86 410 OFFCURVE",
"98 414 OFFCURVE",
"106 414 CURVE SMOOTH",
"115 414 OFFCURVE",
"126 410 OFFCURVE",
"126 393 CURVE SMOOTH",
"126 97 LINE SMOOTH",
"126 -3 OFFCURVE",
"123 -71 OFFCURVE",
"31 -110 CURVE",
"35 -132 LINE"
);
}
);
width = 302;
}
);
leftKerningGroup = j;
note = dotlessj;
unicode = 0237;
},
{
color = 0;
glyphname = kgreenlandic;
lastChange = "2017-12-19 05:24:51 +0000";
layers = (
{
layerId = "0B1DFD06-3317-40CA-B510-4969A0718C16";
paths = (
{
closed = 1;
nodes = (
"257 0 LINE",
"257 25 LINE",
"240 25 LINE SMOOTH",
"211 25 OFFCURVE",
"187 35 OFFCURVE",
"187 57 CURVE SMOOTH",
"187 487 LINE",
"162 487 LINE",
"36 442 LINE",
"43 419 LINE",
"54 423 OFFCURVE",
"65 427 OFFCURVE",
"73 427 CURVE SMOOTH",
"82 427 OFFCURVE",
"94 424 OFFCURVE",
"94 406 CURVE SMOOTH",
"94 57 LINE SMOOTH",
"94 34 OFFCURVE",
"70 25 OFFCURVE",
"40 25 CURVE SMOOTH",
"21 25 LINE",
"21 0 LINE"
);
},
{
closed = 1;
nodes = (
"577 0 LINE",
"577 25 LINE",
"550 25 LINE SMOOTH",
"530 25 OFFCURVE",
"496 35 OFFCURVE",
"475 55 CURVE SMOOTH",
"247 266 LINE",
"185 217 LINE",
"421 0 LINE"
);
},
{
closed = 1;
nodes = (
"446 417 LINE SMOOTH",
"463 432 OFFCURVE",
"488 444 OFFCURVE",
"506 444 CURVE SMOOTH",
"528 444 LINE",
"528 470 LINE",
"332 470 LINE",
"332 444 LINE",
"354 444 LINE SMOOTH",
"380 444 OFFCURVE",
"401 428 OFFCURVE",
"380 411 CURVE SMOOTH",
"155 225 LINE",
"155 173 LINE"
);
}
);
width = 591;
}
);
note = kgreenlandic;
rightKerningGroup = k;
unicode = 0138;
},
{
glyphname = lslash;
lastChange = "2017-12-19 08:31:41 +0000";
layers = (
{
layerId = "0B1DFD06-3317-40CA-B510-4969A0718C16";
paths = (
{
closed = 1;
nodes = (
"-14 133 OFFCURVE",
"17 151 OFFCURVE",
"77 171 CURVE",
"69 139 OFFCURVE",
"65 112 OFFCURVE",
"67 87 CURVE SMOOTH",
"68 36 OFFCURVE",
"108 -7 OFFCURVE",
"175 -7 CURVE SMOOTH",
"319 -7 OFFCURVE",
"428 139 OFFCURVE",
"495 246 CURVE SMOOTH",
"501 256 OFFCURVE",
"468 287 OFFCURVE",
"456 269 CURVE SMOOTH",
"405 187 OFFCURVE",
"318 39 OFFCURVE",
"201 39 CURVE SMOOTH",
"159 39 OFFCURVE",
"127 55 OFFCURVE",
"126 101 CURVE SMOOTH",
"125 125 OFFCURVE",
"130 154 OFFCURVE",
"143 192 CURVE",
"246 224 OFFCURVE",
"301 238 OFFCURVE",
"307 234 CURVE",
"308 233 OFFCURVE",
"311 233 OFFCURVE",
"314 233 CURVE SMOOTH",
"321 233 OFFCURVE",
"313 268 OFFCURVE",
"298 268 CURVE",
"154 226 LINE",
"162 249 OFFCURVE",
"171 275 OFFCURVE",
"184 305 CURVE",
"292 378 OFFCURVE",
"578 627 OFFCURVE",
"569 885 CURVE SMOOTH",
"565 938 OFFCURVE",
"560 987 OFFCURVE",
"525 987 CURVE SMOOTH",
"518 987 OFFCURVE",
"461 981 OFFCURVE",
"413 896 CURVE SMOOTH",
"331 753 OFFCURVE",
"203 497 OFFCURVE",
"173 417 CURVE SMOOTH",
"155 368 OFFCURVE",
"115 287 OFFCURVE",
"88 207 CURVE",
"-1 179 OFFCURVE",
"-23 168 OFFCURVE",
"-40 168 CURVE SMOOTH",
"-42 168 OFFCURVE",
"-43 167 OFFCURVE",
"-45 164 CURVE",
"-45 159 OFFCURVE",
"-29 133 OFFCURVE",
"-13 133 CURVE"
);
},
{
closed = 1;
nodes = (
"228 430 OFFCURVE",
"250 480 OFFCURVE",
"273 528 CURVE SMOOTH",
"311 610 OFFCURVE",
"357 710 OFFCURVE",
"395 777 CURVE SMOOTH",
"465 906 OFFCURVE",
"475 927 OFFCURVE",
"495 927 CURVE SMOOTH",
"515 927 OFFCURVE",
"520 900 OFFCURVE",
"521 870 CURVE SMOOTH",
"527 731 OFFCURVE",
"357 481 OFFCURVE",
"206 380 CURVE"
);
}
);
width = 358;
}
);
note = lslash;
unicode = 0142;
},
{
color = 0;
glyphname = eng;
lastChange = "2017-12-19 05:24:55 +0000";
layers = (
{
layerId = "0B1DFD06-3317-40CA-B510-4969A0718C16";
paths = (
{
closed = 1;
nodes = (
"478 -215 OFFCURVE",
"529 -140 OFFCURVE",
"529 -17 CURVE SMOOTH",
"529 344 LINE SMOOTH",
"529 424 OFFCURVE",
"472 480 OFFCURVE",
"358 480 CURVE SMOOTH",
"266 480 OFFCURVE",
"195 424 OFFCURVE",
"178 373 CURVE",
"178 285 LINE",
"188 285 LINE",
"188 389 OFFCURVE",
"264 439 OFFCURVE",
"331 439 CURVE SMOOTH",
"395 439 OFFCURVE",
"435 404 OFFCURVE",
"435 332 CURVE SMOOTH",
"435 -58 LINE SMOOTH",
"435 -128 OFFCURVE",
"413 -186 OFFCURVE",
"339 -215 CURVE",
"344 -238 LINE"
);
},
{
closed = 1;
nodes = (
"255 0 LINE",
"255 25 LINE",
"240 25 LINE SMOOTH",
"205 25 OFFCURVE",
"188 37 OFFCURVE",
"188 66 CURVE SMOOTH",
"188 473 LINE",
"166 473 LINE",
"38 428 LINE",
"44 406 LINE",
"54 410 OFFCURVE",
"66 414 OFFCURVE",
"74 414 CURVE SMOOTH",
"83 414 OFFCURVE",
"94 410 OFFCURVE",
"94 393 CURVE SMOOTH",
"94 66 LINE SMOOTH",
"94 37 OFFCURVE",
"77 25 OFFCURVE",
"41 25 CURVE SMOOTH",
"22 25 LINE",
"22 0 LINE"
);
}
);
width = 609;
}
);
leftKerningGroup = m;
note = eng;
rightKerningGroup = m;
unicode = 014B;
},
{
glyphname = ohorn;
lastChange = "2017-12-19 08:32:07 +0000";
layers = (
{
layerId = "0B1DFD06-3317-40CA-B510-4969A0718C16";
paths = (
{
closed = 1;
nodes = (
"622 305 OFFCURVE",
"622 306 OFFCURVE",
"622 308 CURVE SMOOTH",
"622 317 OFFCURVE",
"607 327 OFFCURVE",
"597 327 CURVE SMOOTH",
"595 327 OFFCURVE",
"593 326 OFFCURVE",
"591 324 CURVE SMOOTH",
"566 276 OFFCURVE",
"512 236 OFFCURVE",
"465 236 CURVE SMOOTH",
"389 236 OFFCURVE",
"356 311 OFFCURVE",
"352 389 CURVE SMOOTH",
"351 409 OFFCURVE",
"356 431 OFFCURVE",
"361 444 CURVE SMOOTH",
"362 447 LINE",
"362 453 OFFCURVE",
"358 456 OFFCURVE",
"352 456 CURVE SMOOTH",
"350 456 OFFCURVE",
"347 455 OFFCURVE",
"346 453 CURVE",
"338 449 OFFCURVE",
"325 447 OFFCURVE",
"314 444 CURVE",
"292 439 OFFCURVE",
"294 408 OFFCURVE",
"290 389 CURVE",
"158 386 OFFCURVE",
"52 240 OFFCURVE",
"58 90 CURVE SMOOTH",
"60 37 OFFCURVE",
"93 -12 OFFCURVE",
"155 -12 CURVE SMOOTH",
"288 -12 OFFCURVE",
"333 157 OFFCURVE",
"346 251 CURVE",
"378 212 OFFCURVE",
"422 198 OFFCURVE",
"462 198 CURVE SMOOTH",
"537 198 OFFCURVE",
"594 251 OFFCURVE",
"622 305 CURVE"
);
},
{
closed = 1;
nodes = (
"308 307 LINE",
"312 236 OFFCURVE",
"248 38 OFFCURVE",
"168 38 CURVE SMOOTH",
"137 38 OFFCURVE",
"127 84 OFFCURVE",
"127 108 CURVE",
"124 209 OFFCURVE",
"205 355 OFFCURVE",
"290 355 CURVE SMOOTH",
"295 355 OFFCURVE",
"298 352 OFFCURVE",
"298 346 CURVE",
"303 319 OFFCURVE",
"305 322 OFFCURVE",
"308 312 CURVE"
);
},
{
closed = 1;
nodes = (
"326 352 LINE",
"337 339 OFFCURVE",
"351 321 OFFCURVE",
"399 321 CURVE SMOOTH",
"446 321 OFFCURVE",
"483 365 OFFCURVE",
"483 406 CURVE",
"482 424 OFFCURVE",
"477 438 OFFCURVE",
"470 450 CURVE",
"466 453 OFFCURVE",
"450 458 OFFCURVE",
"440 458 CURVE SMOOTH",
"438 458 OFFCURVE",
"436 457 OFFCURVE",
"434 456 CURVE",
"436 447 OFFCURVE",
"438 438 OFFCURVE",
"438 430 CURVE SMOOTH",
"439 386 OFFCURVE",
"422 358 OFFCURVE",
"389 358 CURVE SMOOTH",
"364 358 OFFCURVE",
"350 363 OFFCURVE",
"342 386 CURVE"
);
}
);
width = 453;
}
);
note = ohorn;
unicode = 01A1;
},
{
glyphname = oslash;
lastChange = "2017-12-19 08:37:58 +0000";
layers = (
{
layerId = "0B1DFD06-3317-40CA-B510-4969A0718C16";
paths = (
{
closed = 1;
nodes = (
"130 -226 OFFCURVE",
"158 -238 OFFCURVE",
"162 -221 CURVE",
"171 -145 OFFCURVE",
"182 -74 OFFCURVE",
"194 -6 CURVE",
"299 23 OFFCURVE",
"333 167 OFFCURVE",
"346 251 CURVE",
"378 212 OFFCURVE",
"422 198 OFFCURVE",
"462 198 CURVE SMOOTH",
"537 198 OFFCURVE",
"594 251 OFFCURVE",
"622 305 CURVE",
"632 314 OFFCURVE",
"595 333 OFFCURVE",
"591 324 CURVE",
"566 276 OFFCURVE",
"512 236 OFFCURVE",
"465 236 CURVE SMOOTH",
"389 236 OFFCURVE",
"356 311 OFFCURVE",
"352 389 CURVE SMOOTH",
"351 409 OFFCURVE",
"356 431 OFFCURVE",
"361 444 CURVE SMOOTH",
"364 453 OFFCURVE",
"351 458 OFFCURVE",
"346 453 CURVE",
"338 449 OFFCURVE",
"325 447 OFFCURVE",
"314 444 CURVE",
"306 440 LINE",
"328 513 OFFCURVE",
"357 587 OFFCURVE",
"389 672 CURVE",
"388 683 OFFCURVE",
"363 687 OFFCURVE",
"357 678 CURVE",
"318 575 OFFCURVE",
"283 480 OFFCURVE",
"253 384 CURVE",
"138 356 OFFCURVE",
"55 228 OFFCURVE",
"58 90 CURVE SMOOTH",
"60 37 OFFCURVE",
"92 -11 OFFCURVE",
"154 -12 CURVE",
"140 -77 OFFCURVE",
"132 -140 OFFCURVE",
"124 -211 CURVE"
);
},
{
closed = 1;
nodes = (
"124 187 OFFCURVE",
"176 298 OFFCURVE",
"239 338 CURVE",
"209 238 OFFCURVE",
"184 139 OFFCURVE",
"162 38 CURVE",
"137 44 OFFCURVE",
"127 84 OFFCURVE",
"127 108 CURVE"
);
},
{
closed = 1;
nodes = (
"314 255 OFFCURVE",
"269 99 OFFCURVE",
"205 51 CURVE",
"225 156 OFFCURVE",
"246 252 OFFCURVE",
"278 353 CURVE",
"282 353 OFFCURVE",
"286 355 OFFCURVE",
"290 355 CURVE SMOOTH",
"295 355 OFFCURVE",
"298 352 OFFCURVE",
"298 346 CURVE",
"303 319 OFFCURVE",
"305 322 OFFCURVE",
"308 312 CURVE"
);
},
{
closed = 1;
nodes = (
"289 389 LINE",
"289 390 OFFCURVE",
"290 392 OFFCURVE",
"292 395 CURVE",
"290 394 OFFCURVE",
"290 392 OFFCURVE",
"290 389 CURVE"
);
}
);
width = 453;
}
);
note = oslash;
unicode = 00F8;
},
